<svg width="165" height="78" viewBox="0 0 165 78" fill="none" xmlns="http://www.w3.org/2000/svg">
<path opacity="0.09" d="M9.08198 1.21412C9.88529 0.375641 11.1141 0.181598 12.2255 0.0231591C13.7001 -0.080093 15.204 0.158456 16.5263 0.808232C17.2049 1.16427 17.5313 1.86924 17.9495 2.46026C18.6098 3.34859 18.6281 4.48258 18.7987 5.52222C18.7785 7.29887 18.9252 9.09332 18.6263 10.8539C18.6501 12.7267 18.6648 14.6618 17.9623 16.4349C17.7533 17.0598 17.1976 17.4656 16.8032 17.973C16.4346 18.4821 15.7138 18.5409 15.2957 19.0002C14.8427 19.4844 14.1806 19.7621 13.8083 20.3158C13.8174 20.3923 13.8394 20.5418 13.8486 20.6166C13.7111 20.7466 13.579 20.8819 13.447 21.0189C12.5978 21.496 12.4052 22.5072 12.2824 23.3706C12.1008 24.3212 11.226 24.8215 10.7179 25.5798C10.2888 25.8967 9.78808 26.1424 9.27089 26.2901C8.3282 26.34 7.37267 26.3649 6.43364 26.2634C5.54414 25.9928 4.59045 25.6332 4.05491 24.8446C3.55789 24.1307 3.04069 23.3279 3.07187 22.4324C3.19108 21.3483 3.5854 20.314 3.89352 19.2726C3.82382 18.8773 3.67343 18.4804 3.38182 18.1884C2.6097 17.398 1.75137 16.6841 1.01593 15.8617C0.221792 14.6689 -0.291736 13.1647 0.181443 11.7619C0.63995 9.47428 2.95816 7.95755 5.25987 7.84539C6.07601 7.89524 6.80779 8.34564 7.63126 8.38836C7.95772 8.30647 8.07143 7.95043 8.04392 7.66025C8.03842 6.64375 8.11361 5.61657 7.86969 4.61966C7.99624 4.11942 8.01274 3.60138 8.09161 3.09758C8.40706 2.46383 8.63815 1.77666 9.08198 1.21412ZM10.1842 1.95113L10.0687 2.20748L10.0247 2.05616L10.0027 2.28224C9.7514 2.65965 9.63219 3.10648 9.69821 3.55509C9.88712 4.99884 10.076 6.45327 10.5474 7.84184C11.3745 10.4748 12.187 13.1219 13.3388 15.6409C13.5515 16.1786 13.9312 16.7447 14.5474 16.8835C14.6538 17.1755 14.7051 17.6935 15.1581 17.6134C15.4406 17.56 15.4314 17.268 15.4956 17.0562C15.4956 16.985 15.4937 16.8408 15.4937 16.7696C15.8019 16.62 15.9889 16.3263 16.0458 16.0023C16.4823 14.0103 16.6198 11.9737 16.8344 9.95316C16.7812 8.56638 17.0985 7.18672 16.9041 5.8035C16.8124 4.51641 16.9096 3.05841 16.0366 1.98673C15.2351 1.36188 14.1347 1.35832 13.1554 1.37078C12.1503 1.3868 10.9839 1.2159 10.1842 1.95113ZM4.87289 9.21793C4.01456 10.0155 3.15807 10.8166 2.30341 11.6194C2.06866 11.8687 1.62299 12.1126 1.78072 12.5167C1.79722 12.6164 1.83023 12.8193 1.84674 12.919C2.13652 13.9266 3.00218 14.6476 3.73395 15.3686C5.37358 16.6503 7.04988 17.8982 8.84723 18.9664C9.32774 19.2476 9.92013 19.65 10.485 19.3295C11.0114 19.8974 11.5946 19.1586 12.0494 18.8738C12.5024 18.3842 12.308 17.617 12.1155 17.0491C11.5304 15.7905 10.6684 14.6761 9.76607 13.615C8.75919 12.3458 7.81283 11.0159 6.61705 9.90331C6.3071 9.63984 6.03749 9.19123 5.57165 9.22684C5.44327 8.96337 5.03795 9.01855 4.87289 9.21793ZM5.53864 20.4724C4.82887 20.4439 5.01594 21.4355 4.8307 21.8806C4.70966 22.2455 4.74451 22.6282 4.81236 23.0003C5.18651 23.1356 5.58082 23.1908 5.97697 23.2228C7.45153 23.3991 8.92609 23.57 10.4025 23.7284C10.6849 23.821 10.9875 23.5878 10.9527 23.3012C10.9325 23.0306 11.1141 22.6015 10.7693 22.4662C10.5675 22.0657 10.2484 21.7257 9.84861 21.5067C8.86557 20.9709 7.82934 20.508 6.72892 20.2481C6.32544 20.1965 5.83759 20.1377 5.53864 20.4724Z" fill="#08030A"/>
<path opacity="0.25" d="M10.1842 1.95117C10.9838 1.21595 12.1503 1.38684 13.1553 1.37082C14.1347 1.35836 15.2351 1.36192 16.0366 1.98677C16.9096 3.05846 16.8124 4.51645 16.9041 5.80354C17.0985 7.18676 16.7812 8.56642 16.8344 9.9532C16.6198 11.9737 16.4823 14.0103 16.0458 16.0024C15.9889 16.3264 15.8018 16.6201 15.4937 16.7696C15.6276 12.0093 15.8624 7.25263 16.0091 2.49413C16.0623 2.2093 15.7615 2.0295 15.5084 2.03662C13.7349 1.95651 11.9577 1.95117 10.1842 1.95117Z" fill="#17071D"/>
<path d="M10.1843 1.95117C11.9578 1.95117 13.7349 1.95651 15.5085 2.03662C15.7615 2.0295 16.0623 2.2093 16.0091 2.49413C15.8624 7.25263 15.6277 12.0093 15.4938 16.7696C15.4938 16.8408 15.4956 16.985 15.4956 17.0562C15.2994 17.1915 15.0756 17.3446 14.828 17.2165C14.4704 16.5507 14.3438 15.7941 14.0889 15.0891C13.2636 12.5737 12.5502 10.0209 11.6515 7.53034C11.6442 7.5072 11.6295 7.4627 11.6221 7.43955C11.2278 5.66468 10.5162 3.97171 10.0687 2.20752L10.1843 1.95117ZM14.8024 16.2267L14.9876 16.1733C15.0866 15.5733 14.9051 14.977 14.685 14.4233C14.5144 15.0286 14.8207 15.6161 14.8024 16.2267Z" fill="#E0D600"/>
<path opacity="0.72" d="M10.0247 2.05615L10.0687 2.20747C10.5162 3.97166 11.2278 5.66463 11.6221 7.4395C11.2333 6.78082 11.1068 6.02245 10.861 5.31215C10.5731 4.30277 10.1824 3.31832 10.0027 2.28224L10.0247 2.05615Z" fill="#5A2F23"/>
<path opacity="0.24" d="M9.69814 3.55556C9.63211 3.10695 9.75133 2.66012 10.0026 2.28271C10.1823 3.3188 10.573 4.30325 10.8609 5.31263C11.1067 6.02293 11.2332 6.7813 11.622 7.43998C11.6294 7.46312 11.644 7.50763 11.6514 7.53077C11.6991 7.78 11.7541 8.02923 11.8164 8.27668C12.7206 11.1464 13.6505 14.0107 14.5473 16.884C13.9311 16.7451 13.5514 16.179 13.3387 15.6414C12.1869 13.1224 11.3744 10.4752 10.5473 7.84231C10.0759 6.45374 9.88704 4.99931 9.69814 3.55556Z" fill="#16071C"/>
<path opacity="0.07" d="M117.935 5.20848C118.867 4.69222 119.964 4.63526 120.998 4.46436C122.368 4.51954 123.672 5.0002 125.025 5.1711C126.715 4.91297 128.428 4.67442 130.141 4.84354C131.668 5.21916 132.976 6.2232 134.57 6.38164C135.182 6.31399 135.767 6.0879 136.387 6.06476C137.845 6.07722 139.186 6.91748 140.088 7.98382C141.143 9.50946 141.359 11.3983 141.519 13.1838C141.495 14.3356 141.363 15.6565 142.227 16.5805C143.014 17.2445 144.136 17.3709 144.851 18.1417C145.777 19.2223 146.194 20.6803 146.093 22.0742C146.194 23.5945 146.546 25.17 147.544 26.3912C148.16 27.5109 148.976 28.563 150.117 29.2235C151.256 29.8323 152.602 29.932 153.752 30.5159C154.262 30.8417 154.757 31.1977 155.23 31.5734C155.854 32.3015 156.455 33.0741 156.782 33.9766C157.543 35.764 158.005 37.6474 158.662 39.4686C159.39 41.9787 160.279 44.4443 161.244 46.8778C162.176 48.9642 163.05 51.072 163.984 53.1584C164.677 54.7374 165.154 56.4553 164.954 58.1857C164.631 60.014 163.285 61.5574 161.589 62.3585C160.839 62.7021 160.121 63.1133 159.342 63.3946C156.835 64.3808 154.392 65.7961 151.617 65.8495C150.781 65.7409 149.921 65.6145 149.174 65.2086C148.153 64.703 147.423 63.8201 146.638 63.0385C146.021 62.1182 145.614 61.075 145.343 60.0122C145.044 58.8924 144.523 57.8475 144.099 56.7722C143.25 54.6555 142.333 52.5638 141.51 50.4382C141.618 50.4097 141.834 50.3528 141.944 50.3243C142.438 50.1961 142.933 50.0733 143.432 49.9522C143.971 50.8477 144.261 51.8571 144.697 52.8023C145.317 54.3707 145.959 55.9302 146.649 57.4718C147.237 58.9565 147.872 60.427 148.631 61.8387C149.207 62.7982 150.199 63.6759 151.413 63.6492C153.477 63.7453 155.346 62.7733 157.192 62.0203C158.957 61.18 160.862 60.5 162.298 59.1506C162.981 58.369 163.456 57.2938 163.175 56.2631C162.704 54.5719 161.888 53.0017 161.235 51.3746C160.402 49.6015 159.722 47.7679 158.907 45.9877C157.526 42.4184 156.569 38.7138 155.243 35.1267C154.737 33.9232 154.284 32.5703 153.147 31.7781C151.995 31.0838 150.584 31.1319 149.301 30.8524C148.479 30.6352 147.931 29.948 147.47 29.2983C146.271 27.5359 144.875 25.8607 144.105 23.8633C143.749 22.9678 144.136 22.0493 144.36 21.177C144.433 19.8703 143.426 18.6953 142.289 18.1079C141.387 17.6219 140.396 18.1132 139.452 18.0651C139.149 17.0451 139.456 15.9894 139.423 14.9516C139.703 13.328 139.54 11.6493 139.074 10.0738C138.665 9.07509 138.267 7.84497 137.123 7.4373C136.569 7.16137 135.91 7.23436 135.395 7.55658C134.364 8.25086 133.933 9.4347 133.359 10.4619C132.888 9.45428 132.418 8.43422 131.769 7.52275C131.118 6.6006 129.999 6.03806 128.862 5.97397C127.679 6.07544 126.568 6.52405 125.502 7.00471C124.987 7.22724 124.308 7.41238 123.833 7.01005C123.103 6.45819 122.377 5.69804 121.365 5.78349C119.808 5.64463 118.485 6.60416 117.343 7.49961C115.652 9.05373 114.511 11.0636 113.552 13.0984C113.324 13.5968 113.055 14.1131 112.583 14.4335C111.82 14.7219 110.946 14.5937 110.205 14.9587C108.723 15.6102 107.798 17.0148 107.155 18.4087C106.584 19.8632 106.408 21.4208 106.3 22.9625C106.324 23.5589 106.438 24.1499 106.449 24.7498C106.568 27.2083 107.665 29.5813 109.376 31.3847C110.595 32.4902 112.299 33.2646 113.994 32.9014C115.821 32.4154 117.123 30.6441 117.174 28.8318C117.145 27.753 116.716 26.7276 116.657 25.6542C116.829 24.7427 117.706 24.1944 118.157 23.42C118.828 22.5068 119.048 21.2749 120.05 20.6108C121.115 19.8293 122.529 20.0714 123.767 19.8454C124.514 19.7563 125.198 19.4466 125.891 19.1831C126.188 19.1012 126.617 18.925 126.834 19.2383C127.558 20.0964 128.45 20.8209 129.477 21.314C130.577 21.8748 131.854 22.0973 132.862 22.8272C133.233 23.5126 133.345 24.3101 133.763 24.9813C134.291 25.8518 134.872 26.7401 135.731 27.3418C136.626 27.9613 137.842 27.8777 138.705 28.5541C139.419 29.0722 139.817 29.8804 140.197 30.6423C140.76 31.9917 141.501 33.3803 141.299 34.8863C140.915 36.5455 139.527 37.9269 139.654 39.7071C139.991 42.6979 141.59 45.3468 142.517 48.1738C142.456 48.1827 142.335 48.1987 142.276 48.2058C141.851 48.2646 141.433 48.3465 141.015 48.4248C140.805 48.4622 140.598 48.5031 140.393 48.5459C139.547 46.0393 138.108 43.7001 137.772 41.0494C137.548 39.4864 137.926 37.8984 138.583 36.4725C139.192 35.1498 139.144 33.5903 138.572 32.2641C138.298 31.6214 138.001 30.9343 137.424 30.4963C136.521 29.9284 135.474 29.6543 134.498 29.2359C134.241 29.1238 133.955 29.0935 133.684 29.0597C133.449 28.7233 133.202 28.3993 132.928 28.0966C132.963 28.0129 133.035 27.8474 133.07 27.7637C132.497 27.016 132.347 26.0529 131.734 25.3337C131.113 24.4312 129.979 24.1232 128.992 23.7493C128.035 23.4627 127.3 22.7738 126.482 22.2486C125.875 21.8979 125.154 21.8445 124.464 21.8694C123.571 21.8979 122.628 21.7591 121.788 22.1329C120.921 22.5068 120.36 23.3132 120.011 24.1392C119.336 25.1717 118.704 26.3307 118.768 27.591C118.762 29.0811 118.955 30.6619 118.223 32.038C117.244 33.7274 115.34 35.0465 113.275 34.8756C111.898 35.0056 110.491 34.6709 109.357 33.8965C107.523 32.5276 106.034 30.6655 105.378 28.49C104.914 27.2368 104.715 25.9087 104.629 24.5878C104.439 23.76 104.461 22.9038 104.644 22.0777C104.793 19.5712 105.499 16.9116 107.366 15.078C108.389 14.0294 109.933 13.8176 111.125 13.0236C112.607 11.8558 112.974 9.90645 114.205 8.53747C115.157 7.15959 116.457 6.03272 117.935 5.20848Z" fill="#060207"/>
<path opacity="0.19" d="M117.343 7.5001C118.485 6.60466 119.808 5.64513 121.365 5.78398C122.377 5.69853 123.103 6.45868 123.833 7.01054C124.308 7.41287 124.987 7.22773 125.502 7.0052C126.568 6.52455 127.679 6.07593 128.862 5.97446C129.999 6.03855 131.118 6.6011 131.769 7.52324C132.418 8.43471 132.888 9.45477 133.359 10.4624C133.933 9.43519 134.364 8.25135 135.395 7.55707C135.91 7.23485 136.569 7.16186 137.123 7.43779C138.267 7.84546 138.665 9.07558 139.074 10.0743C139.54 11.6498 139.703 13.3285 139.423 14.9521C139.456 15.9899 139.149 17.0456 139.452 18.0656C140.397 18.1137 141.387 17.6224 142.289 18.1084C143.426 18.6958 144.433 19.8708 144.36 21.1774C144.136 22.0497 143.749 22.9683 144.105 23.8638C144.875 25.8612 146.271 27.5363 147.47 29.2987C147.931 29.9485 148.479 30.6357 149.301 30.8529C150.585 31.1324 151.995 31.0843 153.147 31.7786C154.284 32.5708 154.737 33.9237 155.243 35.1271C156.569 38.7143 157.526 42.4189 158.907 45.9882C159.722 47.7684 160.402 49.602 161.235 51.3751C161.888 53.0022 162.704 54.5724 163.175 56.2636C163.456 57.2943 162.981 58.3695 162.298 59.151C160.862 60.5004 158.957 61.1805 157.193 62.0207C155.346 62.7738 153.477 63.7458 151.414 63.6496C150.199 63.6763 149.207 62.7987 148.631 61.8392C147.872 60.4275 147.237 58.957 146.649 57.4723C145.959 55.9307 145.317 54.3712 144.697 52.8028C144.261 51.8575 143.971 50.8482 143.432 49.9527L143.472 49.942C143.667 49.894 143.863 49.8495 144.063 49.805C145.328 52.972 146.698 56.098 147.988 59.2561C148.395 60.1444 148.716 61.0861 149.303 61.8855C149.44 62.1187 149.723 62.1827 149.95 62.3145C150.251 62.7239 150.706 62.9589 151.206 63.064C151.582 63.1601 151.975 63.1369 152.353 63.0497C154.15 62.74 155.744 61.8374 157.424 61.1894C158.79 60.6767 160.066 59.9735 161.332 59.2614C162.568 58.6455 163.074 57.0112 162.519 55.8025C161.842 54.1647 161.191 52.518 160.441 50.9123C159.535 48.6532 158.414 46.476 157.658 44.1617C156.595 41.0855 155.736 37.9417 154.563 34.9011C154.267 34.0839 153.858 33.3113 153.469 32.5334C153.369 32.3144 153.084 32.2931 152.897 32.1916C152.807 32.156 152.628 32.0866 152.538 32.0527L152.389 31.9975C152.165 31.9637 151.942 31.937 151.722 31.9103C150.858 31.5436 149.882 31.6735 149 31.3745C148.072 31.0558 147.463 30.2476 146.905 29.507C145.552 27.5666 144.107 25.6547 143.188 23.4739C142.993 22.9327 143.256 22.3737 143.314 21.8326C143.784 21.5459 143.995 20.9781 143.793 20.4725C143.223 19.8138 142.696 19.1213 142.111 18.4769C141.955 18.2704 141.673 18.3362 141.455 18.3451C140.466 18.3398 139.63 19.0768 138.621 18.8436C138.555 17.8378 138.817 16.8462 138.808 15.8386C139.074 13.5884 139.177 11.1691 138.124 9.08093L138.001 9.25716C137.811 8.68394 137.55 8.10181 137.051 7.71907C136.624 7.53749 136.142 7.55529 135.725 7.74933C135.476 7.96117 135.307 8.23889 135.14 8.51126C134.352 9.50995 134.287 10.8754 134.421 12.0788C134.614 13.7041 135.248 15.2298 135.795 16.7625C135.967 17.2165 136.022 17.7007 136 18.1831C135.487 18.0069 135.129 17.5992 134.819 17.1862C133.867 15.9045 133.071 14.4643 132.837 12.8835C132.609 11.1567 132.402 9.34618 131.437 7.83478C131.364 7.65498 131.19 7.58377 131.017 7.53214C130.777 7.30962 130.599 7.00164 130.284 6.87703C129.699 6.59575 129.035 6.54769 128.402 6.67052C126.999 6.49962 125.838 7.46628 124.595 7.92379C123.899 8.18192 123.478 7.41287 122.968 7.10312C122.755 6.86813 122.537 6.62246 122.263 6.46224C121.64 6.24328 120.95 6.25574 120.338 6.49607C120.318 6.50141 120.277 6.51209 120.255 6.51743C120.132 6.54947 119.883 6.61534 119.76 6.64738C118.823 6.69901 118.144 7.41287 117.468 7.96296C115.905 9.57938 114.731 11.5269 113.882 13.5795C113.629 14.1243 113.403 14.7562 112.848 15.0784C112.132 15.3081 111.311 14.9663 110.632 15.3437C110.581 15.3704 110.478 15.4256 110.427 15.4523L110.333 15.5004C109.942 15.6766 109.629 15.9686 109.339 16.2694C108.837 16.2908 108.609 16.7839 108.389 17.147C107.131 19.3403 106.898 21.9305 107.07 24.3925C107.312 26.6249 108.015 28.9338 109.664 30.5787C110.399 31.3282 111.276 32.0581 112.371 32.2041C112.947 32.2557 113.638 32.3856 114.08 31.9228C114.131 31.8961 114.232 31.8409 114.284 31.8142C115.527 31.7537 116.215 30.4488 116.457 29.4038C116.871 27.839 115.767 26.4558 115.536 24.9711C115.866 24.3569 116.653 24.1611 117.099 23.6359C118.328 22.4556 118.405 20.6291 119.465 19.3492C119.861 18.8543 120.562 19.0537 121.106 19.1124C122.352 19.3278 123.712 19.2993 124.84 18.6887C126.262 17.7221 127.166 16.216 127.753 14.6619C128.176 13.8982 128.661 13.1416 129.29 12.5203C129.702 12.0948 130.396 12.4615 130.561 12.9404C130.744 13.1701 130.781 13.6365 131.17 13.6027C131.375 14.5177 131.679 15.406 132.019 16.2819C131.958 16.9263 132.301 17.5031 132.374 18.1297C132.275 18.4484 131.901 18.3611 131.657 18.3024C130.882 18.119 130.124 17.7577 129.304 17.893C128.912 17.8111 128.494 17.7345 128.116 17.9072C127.949 18.0176 127.813 18.1564 127.707 18.322C127.597 18.8756 127.722 19.5094 128.242 19.8334C129.581 20.7466 131.223 21.0866 132.785 21.4605L132.903 21.4925C132.881 21.5299 132.838 21.6047 132.816 21.6421C133.225 21.813 133.735 21.8824 134.025 22.2473C134.153 23.0769 133.833 24.0151 134.396 24.7432C134.893 25.4588 135.294 26.3258 136.143 26.7103C136.373 26.9969 136.694 27.1696 137.073 27.077C137.803 27.013 138.667 26.9507 139.208 27.5363C140.055 28.3944 140.523 29.5284 141.015 30.6001C141.471 31.8195 142.152 33.0105 142.199 34.335C141.983 36.2576 140.112 37.6871 140.286 39.6916C140.813 42.6361 142.324 45.2832 143.355 48.0728C143.072 48.1066 142.794 48.1387 142.517 48.1743C141.59 45.3473 139.991 42.6984 139.654 39.7076C139.527 37.9274 140.916 36.546 141.299 34.8868C141.501 33.3808 140.76 31.9922 140.197 30.6428C139.817 29.8809 139.419 29.0727 138.706 28.5546C137.842 27.8781 136.626 27.9618 135.731 27.3423C134.872 26.7406 134.291 25.8523 133.763 24.9817C133.345 24.3106 133.233 23.5131 132.862 22.8277C131.854 22.0978 130.577 21.8753 129.477 21.3145C128.45 20.8214 127.558 20.0969 126.834 19.2388C126.617 18.9255 126.188 19.1017 125.891 19.1836C125.198 19.4471 124.514 19.7568 123.767 19.8458C122.529 20.0719 121.115 19.8298 120.05 20.6113C119.048 21.2753 118.828 22.5073 118.157 23.4205C117.706 24.1949 116.829 24.7432 116.657 25.6547C116.716 26.7281 117.145 27.7535 117.174 28.8323C117.123 30.6446 115.821 32.4159 113.994 32.9019C112.299 33.2651 110.595 32.4907 109.376 31.3852C107.665 29.5818 106.568 27.2088 106.449 24.7503C106.438 24.1504 106.324 23.5594 106.3 22.963C106.408 21.4213 106.584 19.8636 107.155 18.4092C107.799 17.0153 108.723 15.6107 110.205 14.9592C110.946 14.5942 111.821 14.7224 112.583 14.434C113.055 14.1136 113.324 13.5973 113.552 13.0989C114.511 11.0641 115.652 9.05422 117.343 7.5001Z" fill="#100614"/>
<path d="M120.338 6.49584C120.95 6.25476 121.64 6.24226 122.264 6.46191C121.943 6.68692 121.552 6.45834 121.2 6.51727C120.91 6.5512 120.622 6.54584 120.338 6.49584Z" fill="#FFA5FF"/>
<path d="M128.402 6.66953C129.035 6.5467 129.699 6.59476 130.284 6.87604C129.856 6.95437 129.471 6.75676 129.062 6.69802C128.644 6.69802 128.266 7.01134 127.843 6.85112C127.982 6.80483 128.263 6.71404 128.402 6.66953Z" fill="#FFA5FF"/>
<path d="M126.487 7.46209C126.911 7.23245 127.346 7.01882 127.808 6.86572L127.701 7.04908C127.311 7.22532 126.889 7.3179 126.487 7.46209Z" fill="#FFA5FF"/>
<path d="M110.632 15.3428C111.19 15.2271 111.753 15.3446 112.215 15.6668C111.679 15.5974 111.157 15.4603 110.632 15.3428Z" fill="#FFA5FF"/>
<path d="M114.654 22.4849C115.215 22.7056 115.815 22.8106 116.413 22.6575C116.417 23.2414 115.742 23.1489 115.327 23.1453C115.072 22.9566 114.783 22.7839 114.654 22.4849Z" fill="#FFA5FF"/>
<path d="M120.255 6.51759C120.277 6.51225 120.317 6.50157 120.338 6.49623C120.622 6.54607 120.91 6.55141 121.2 6.51759C121.552 6.45884 121.942 6.68671 122.263 6.4624C122.537 6.62262 122.755 6.86829 122.968 7.10328C123.076 7.58037 123.147 8.06993 123.085 8.55949C122.99 8.95291 122.9 9.34812 122.777 9.73443C122.504 10.2258 122.238 10.7242 122.069 11.2583C122.271 11.0536 122.472 10.8435 122.661 10.6227C123.298 9.8537 124.079 9.2146 124.86 8.58975C125.376 8.1803 125.895 7.76729 126.487 7.46288C126.889 7.31868 127.311 7.22611 127.701 7.04987L127.808 6.86651C127.817 6.86295 127.833 6.85583 127.842 6.85227C128.266 7.01249 128.644 6.69917 129.062 6.69917C129.471 6.75791 129.856 6.95552 130.284 6.87719C130.599 7.0018 130.777 7.30978 131.017 7.5323C131.182 7.88835 131.334 8.25151 131.435 8.63248C131.129 9.32854 131.674 10.1189 131.169 10.7705C131.03 10.4785 130.878 10.1973 130.709 9.9249C130.581 9.20748 130.676 8.40995 130.205 7.79222C129.842 7.29732 129.135 7.22611 128.572 7.36853C127.213 7.71923 126.084 8.56661 125.025 9.42645C124.057 10.1457 123.316 11.1016 122.39 11.8618C121.836 12.3798 120.86 11.7247 121.163 11.0286C121.535 9.92135 122.282 8.86212 122.122 7.64268C122.12 7.22433 121.64 6.94128 121.246 7.01427C120.103 7.16203 119.144 7.88301 118.373 8.67164C116.383 10.8738 115.017 13.6313 114.615 16.5419C114.518 17.0956 114.63 17.7347 114.254 18.2064C113.919 18.4201 113.387 18.4414 113.071 18.1958C112.598 17.5228 112.371 16.6523 111.643 16.177C111.281 15.9438 110.777 15.9865 110.526 16.3479C110.471 16.3995 110.362 16.5028 110.309 16.5544C109.513 17.1116 109.198 18.0533 108.958 18.9345C108.402 21.2328 108.372 23.6592 108.925 25.9592C109.229 26.7158 109.449 27.5027 109.396 28.3234C108.081 26.3883 107.879 23.9654 107.943 21.7063C107.932 20.9622 108.308 20.1914 107.969 19.4739C108.185 18.3293 108.629 17.2149 109.339 16.2696C109.629 15.9687 109.942 15.6768 110.333 15.5005L110.364 15.6038L110.449 15.5664L110.427 15.4525C110.478 15.4257 110.581 15.3706 110.632 15.3439C111.157 15.4614 111.679 15.5984 112.215 15.6679L112.323 15.7213C112.915 16.234 113.302 16.9158 113.627 17.6083C113.598 16.7057 113.862 15.8352 114.036 14.9576C114.748 12.3656 116.096 9.91067 118.021 7.97558C118.46 7.55367 118.929 7.15668 119.474 6.86651C119.769 6.91991 120.281 6.93772 120.255 6.51759Z" fill="#9B4E93"/>
<path d="M112.417 21.9131C112.919 22.2495 112.89 22.8566 113.123 23.3479C113.143 23.3924 113.18 23.4815 113.2 23.5242C113.357 23.8962 113.522 24.2683 113.746 24.6101C114.137 25.1228 114.597 25.5839 115.032 26.0628C115.333 26.4615 115.611 26.8781 115.815 27.3338C115.692 27.7682 115.802 28.2115 115.835 28.6494C115.844 29.1852 115.54 29.6606 115.241 30.0914C115.171 29.7994 115.039 29.495 115.129 29.1924C115.514 27.9142 114.619 26.6912 113.766 25.7975C113.686 25.6052 113.609 25.413 113.537 25.2207C113.343 25.1406 113.15 25.0623 112.958 24.9839C112.585 24.0066 111.929 22.9723 112.417 21.9131Z" fill="#9B4E93"/>
<path opacity="0.3" d="M117.468 7.96304C118.144 7.41295 118.823 6.69909 119.76 6.64746C119.689 6.70265 119.545 6.81302 119.474 6.86643C118.929 7.1566 118.46 7.55359 118.021 7.9755C116.096 9.91059 114.748 12.3655 114.036 14.9575C114.012 14.8756 113.963 14.7083 113.939 14.6246C113.706 15.3117 113.147 15.9259 112.323 15.7212L112.215 15.6678C111.753 15.3456 111.19 15.2281 110.632 15.3438C111.311 14.9664 112.132 15.3082 112.848 15.0785C113.403 14.7563 113.629 14.1243 113.882 13.5796C114.731 11.527 115.905 9.57947 117.468 7.96304Z" fill="#1C0923"/>
<path opacity="0.3" d="M108.389 17.1472C108.609 16.784 108.837 16.2909 109.339 16.2695C108.629 17.2148 108.186 18.3292 107.969 19.4739C107.872 19.9136 107.793 20.3569 107.738 20.8037C107.325 23.9707 107.696 27.4884 109.818 30.0608C110.808 31.2927 112.395 32.3626 114.08 31.9229C113.638 32.3858 112.947 32.2558 112.371 32.2042C111.276 32.0582 110.399 31.3283 109.664 30.5788C108.015 28.9339 107.313 26.625 107.07 24.3926C106.898 21.9306 107.131 19.3404 108.389 17.1472Z" fill="#1C0923"/>
<path d="M119.76 6.64753C119.883 6.61549 120.132 6.54962 120.255 6.51758C120.281 6.93771 119.769 6.9199 119.474 6.8665C119.545 6.81309 119.688 6.70272 119.76 6.64753Z" fill="#FFA1FF"/>
<path d="M128.116 17.9072C128.494 17.7345 128.912 17.8111 129.304 17.8929C129.423 17.9321 129.666 18.0087 129.785 18.0478C129.559 18.1475 129.346 18.1333 129.147 18.0033C128.827 17.8449 128.455 17.9143 128.116 17.9072Z" fill="#FFA1FF"/>
<path d="M128.628 18.9829C129.31 19.1342 129.979 19.4137 130.586 19.7537C130.109 19.6541 129.642 19.5259 129.163 19.4369C128.882 19.4386 128.75 19.1805 128.628 18.9829Z" fill="#FFA1FF"/>
<path d="M109.997 28.8755C110.614 29.4719 111.157 30.2071 112.008 30.5044C112.391 30.645 112.8 30.7127 113.211 30.7305C113.699 30.8017 114.144 30.556 114.599 30.4332C114.23 31.236 113.211 31.2556 112.453 31.1061C111.366 30.7038 110.639 29.7709 109.997 28.8755Z" fill="#FFA1FF"/>
<path opacity="0.29" d="M124.595 7.92368C125.838 7.46616 126.999 6.49951 128.402 6.67041C128.263 6.71491 127.982 6.80571 127.843 6.85199C127.833 6.85555 127.817 6.86267 127.808 6.86623C127.346 7.01933 126.911 7.23296 126.487 7.4626C125.895 7.76702 125.376 8.18003 124.86 8.58947C124.281 8.76928 123.643 8.76216 123.223 8.27972C123.19 8.34915 123.12 8.48979 123.085 8.55921C123.148 8.06966 123.076 7.5801 122.968 7.103C123.478 7.41276 123.899 8.18181 124.595 7.92368Z" fill="#1B0922"/>
<path d="M121.246 7.0144C121.64 6.94141 122.12 7.22447 122.122 7.64281C122.282 8.86226 121.535 9.92148 121.163 11.0288C120.86 11.7248 121.836 12.3799 122.39 11.8619C123.316 11.1018 124.057 10.1458 125.025 9.42658C126.084 8.56674 127.213 7.71936 128.572 7.36866C129.136 7.22624 129.842 7.29745 130.205 7.79235C130.676 8.41008 130.581 9.20761 130.709 9.92504C130.036 9.45328 129.088 9.69717 128.688 10.3861C129.251 10.1671 129.858 10.1031 130.462 10.1511C130.689 10.3648 130.924 10.5713 131.169 10.7706C131.674 10.1191 131.129 9.32867 131.435 8.63261C131.951 10.6959 132.035 12.8588 132.813 14.8616C133.523 16.8625 134.865 18.6071 136.514 19.9761C136.903 20.309 137.339 20.5849 137.783 20.8502C137.488 21.0691 137.185 21.2756 136.875 21.475C135.734 20.6722 134.685 19.7571 133.697 18.7851C133.123 18.2048 132.82 17.4393 132.303 16.8198C132.208 16.64 132.108 16.462 132.019 16.2822C131.679 15.4063 131.375 14.518 131.169 13.6029C131.058 13.1098 130.951 12.6167 130.863 12.12C130.988 11.869 130.929 11.6803 130.685 11.5575C130.652 11.3955 130.617 11.2335 130.583 11.0733C130.522 10.719 130.295 10.4538 130.001 10.2544C129.112 10.7012 128.505 11.5041 127.998 12.3159C127.622 12.9585 127.232 13.6083 127.048 14.3328C126.537 15.4205 126.075 16.5421 125.343 17.5141C124.662 17.936 124.017 18.4896 123.175 18.5519C122.113 18.7709 121.068 18.2991 120.349 17.5586C120.329 17.5158 120.292 17.4268 120.274 17.3841C120.178 17.1224 120.094 16.8572 120.013 16.5937C120.039 16.3747 120.072 16.1575 120.11 15.9404C120.173 15.862 120.299 15.7054 120.362 15.6288C120.184 15.4419 120.024 15.0467 119.694 15.2069C119.393 15.3226 119.215 15.595 119.015 15.8229C119.191 15.83 119.542 15.846 119.718 15.8531C119.615 16.008 119.518 16.1664 119.43 16.3284C119.322 16.5207 119.223 16.7148 119.127 16.9124C117.977 18.7264 117.937 20.9036 117.242 22.8743L117.231 22.8956C116.831 23.2268 116.439 23.6949 115.859 23.6665C114.823 23.7466 114.063 22.9045 113.601 22.1106C113.792 22.107 114.177 22.0981 114.37 22.0945C114.085 21.5035 113.071 21.3237 112.822 22.034C112.932 22.0465 113.152 22.0714 113.264 22.0839C113.187 22.5022 113.13 22.9223 113.123 23.3478C112.89 22.8565 112.919 22.2494 112.417 21.913C111.929 22.9722 112.585 24.0065 112.958 24.9838C112.545 25.1957 112.2 25.719 112.611 26.1036C113.002 26.4863 113.528 26.1748 113.766 25.7974C114.619 26.691 115.514 27.914 115.129 29.1922C115.039 29.4949 115.171 29.7993 115.241 30.0912C115.54 29.6604 115.844 29.1851 115.835 28.6493C115.802 28.2113 115.692 27.7681 115.815 27.3337C116.29 28.279 116.273 29.3987 115.749 30.3209C115.03 30.9066 114.311 31.6863 113.291 31.6703C111.584 31.6845 110.241 30.3832 109.348 29.0979C107.654 26.6839 107.474 23.6255 107.738 20.8039C107.793 20.3571 107.872 19.9138 107.969 19.4741C108.308 20.1915 107.932 20.9623 107.943 21.7065C107.879 23.9655 108.081 26.3884 109.396 28.3235C109.449 27.5028 109.229 26.716 108.925 25.9594C108.372 23.6593 108.402 21.2329 108.958 18.9347C109.198 18.0535 109.513 17.1117 110.309 16.5545C110.355 16.7717 110.405 16.9889 110.458 17.2061C110.916 17.2915 111.246 17.0227 111.158 16.5563C110.947 16.4851 110.735 16.4157 110.526 16.348C110.777 15.9866 111.281 15.9439 111.643 16.1771C112.371 16.6524 112.598 17.523 113.071 18.1959C113.387 18.4416 113.919 18.4202 114.254 18.2066C114.63 17.7348 114.518 17.0957 114.616 16.5421C115.017 13.6314 116.384 10.8739 118.373 8.67177C119.144 7.88314 120.103 7.16216 121.246 7.0144ZM119.221 8.43857C118.502 8.81419 118.707 10.0158 119.505 10.16C120.094 10.3452 120.772 9.85739 120.727 9.24856C120.796 8.50799 119.828 8.022 119.221 8.43857ZM125.981 9.65267C125.554 9.94284 125.772 10.6781 126.298 10.7012C126.72 10.7493 127.069 10.3042 126.918 9.92682C126.817 9.54407 126.285 9.4159 125.981 9.65267ZM124.123 12.4618C123.844 12.8268 124.255 13.2398 124.644 12.9906C124.86 12.6238 124.508 12.25 124.123 12.4618ZM121.247 12.882C120.934 12.9194 120.743 13.3217 120.923 13.5691C121.106 13.9394 121.832 13.7899 121.785 13.3466C121.842 13.0511 121.526 12.8125 121.247 12.882ZM116.638 13.6154C115.905 13.9287 115.798 14.9915 116.422 15.4633C117.057 16.0312 118.214 15.5897 118.287 14.7547C118.45 13.9074 117.411 13.1971 116.638 13.6154ZM122.889 17.0316C123.045 17.3966 123.474 17.4357 123.819 17.5123C123.146 17.8203 122.392 17.717 121.684 17.6227C121.689 17.4019 121.372 17.2773 121.187 17.3414C121.136 17.5194 121.202 17.66 121.387 17.7651H121.495C121.889 18.0143 122.331 18.2315 122.819 18.1621C123.808 18.1354 124.539 17.3895 125.016 16.6186C124.864 16.7557 124.714 16.8946 124.561 17.0298C124.534 16.5777 124.47 15.9706 123.931 15.83C123.221 15.5452 122.48 16.4032 122.889 17.0316ZM115.127 17.7758C115.058 18.0268 115.114 18.219 115.298 18.3508C115.754 18.5234 115.776 18.057 115.716 17.7544C115.569 17.7597 115.274 17.7704 115.127 17.7758ZM133.856 18.2048C133.787 18.4754 134.087 18.6854 134.291 18.8172C134.555 18.9934 134.601 18.632 134.39 18.5359C134.229 18.4238 134.087 18.1193 133.856 18.2048ZM112.393 19.2711C112.079 19.3281 112.229 19.8016 112.521 19.7073C112.816 19.6432 112.679 19.1803 112.393 19.2711ZM109.134 19.9975C108.732 20.309 108.91 21.062 109.431 21.1546C109.924 21.3095 110.449 20.8235 110.296 20.341C110.218 19.8337 109.499 19.6646 109.134 19.9975ZM135.692 19.9405C135.626 20.1844 135.945 20.5155 136.204 20.4692C136.253 20.2253 135.938 19.9138 135.692 19.9405ZM114.981 20.1328C114.256 20.5013 114.262 21.678 115.05 21.9699C115.795 22.3794 116.804 21.6228 116.561 20.8235C116.451 20.1381 115.578 19.7999 114.981 20.1328ZM114.654 22.4862C114.782 22.7853 115.072 22.9579 115.327 23.1466C115.742 23.1502 116.417 23.2428 116.413 22.6589C115.815 22.812 115.215 22.7069 114.654 22.4862ZM109.48 24.2593C109.146 24.5957 109.638 25.0586 109.972 24.7453C110.153 24.4124 109.807 24.1204 109.48 24.2593ZM111.483 29.3667C111.43 29.8189 111.764 30.1624 112.008 30.5042C111.157 30.2069 110.614 29.4717 109.997 28.8754C110.639 29.7708 111.366 30.7036 112.453 31.106C113.211 31.2555 114.23 31.2359 114.599 30.433C114.144 30.5559 113.699 30.8015 113.211 30.7303C113.44 30.4704 113.695 30.2301 113.889 29.9435C114.26 29.2777 113.816 28.352 113.051 28.2042C112.301 27.9995 111.468 28.6083 111.483 29.3667Z" fill="#A95DA2"/>
<path d="M136.259 8.41447C136.627 8.29342 136.873 8.73847 137.007 9.00906C137.601 10.8765 137.475 12.8543 137.484 14.7823C137.462 15.0066 137.511 15.4196 137.178 15.4249C136.692 14.0542 136.294 12.6407 136.066 11.2058C136.046 10.2944 135.624 9.19064 136.259 8.41447Z" fill="#A95DA2"/>
<path d="M140.103 62.3286C140.503 62.3375 140.928 62.3624 141.286 62.5583C141.44 62.7131 141.625 62.763 141.845 62.7078L142.018 62.6811C142.124 62.9659 142.52 62.8698 142.764 62.8502C142.876 62.8467 143.102 62.8395 143.214 62.836C143.289 62.9072 143.441 63.0496 143.516 63.1208C143.399 63.4964 143.324 63.8988 143.076 64.221C142.071 63.735 141.059 63.2597 140.041 62.8021C140.057 62.6829 140.088 62.4461 140.103 62.3286ZM142.478 63.4092C142.584 63.5071 142.584 63.5071 142.478 63.4092V63.4092Z" fill="#A95DA2"/>
<path d="M135.699 66.3839C135.668 66.1293 136.163 66.1614 136.167 66.391C136.25 66.6812 136.321 66.9785 136.385 67.2775C136.494 67.7902 136.598 68.303 136.721 68.8139C136.413 68.7427 136.09 68.4561 135.775 68.6376C135.681 68.8459 135.83 69.2892 135.538 69.339C135.283 69.1414 135.509 68.7676 135.463 68.5077C135.487 68.2086 135.503 67.9095 135.527 67.6122C135.575 67.201 135.63 66.7898 135.699 66.3839Z" fill="#A95DA2"/>
<path opacity="0.27" d="M131.017 7.53223C131.19 7.58385 131.364 7.65506 131.437 7.83486C132.402 9.34626 132.609 11.1567 132.837 12.8835C133.071 14.4644 133.867 15.9045 134.819 17.1863C135.129 17.5993 135.487 18.007 136 18.1832C136.022 17.7008 135.967 17.2166 135.795 16.7626C135.248 15.2298 134.614 13.7042 134.421 12.0789C134.287 10.8755 134.351 9.51004 135.14 8.51134C134.671 11.0321 135.558 13.544 136.268 15.9419C136.532 17.1525 137.027 18.3007 137.499 19.4472C137.739 19.3884 138.08 19.4044 138.045 19.068C138.383 15.8173 138.733 12.483 138.001 9.25725L138.124 9.08101C139.177 11.1692 139.074 13.5885 138.808 15.8387C138.817 16.8463 138.555 17.8379 138.621 18.8437C139.63 19.0769 140.466 18.3399 141.455 18.3452C141.189 18.525 140.928 18.7084 140.661 18.8793C139.832 19.068 139.195 19.6608 138.397 19.9225C137.799 20.177 137.137 19.9901 136.514 19.9759C134.865 18.6069 133.522 16.8623 132.813 14.8613C132.035 12.8586 131.951 10.6957 131.435 8.6324C131.335 8.25143 131.182 7.88827 131.017 7.53223Z" fill="#1A0820"/>
<path d="M135.725 7.75032C136.141 7.55567 136.624 7.53781 137.051 7.71996C136.624 7.8914 136.161 7.82889 135.725 7.75032Z" fill="#FFC4FF"/>
<path d="M124.561 17.0299C124.714 16.8946 124.864 16.7557 125.016 16.6187C124.539 17.3895 123.808 18.1354 122.819 18.1621C122.331 18.2315 121.889 18.0143 121.495 17.7651C121.543 17.7295 121.636 17.6583 121.684 17.6227C122.392 17.717 123.145 17.8203 123.819 17.5123C124.083 17.3788 124.334 17.2186 124.561 17.0299Z" fill="#FFC4FF"/>
<path d="M137.374 16.7456C137.532 17.1782 137.981 17.876 137.506 18.2089C137.454 17.7212 137.379 17.2352 137.374 16.7456Z" fill="#FFC4FF"/>
<path d="M131.074 18.6343C131.567 18.8621 132.041 19.1292 132.506 19.4087C131.985 19.2342 131.457 19.033 131.074 18.6343Z" fill="#FFC4FF"/>
<path d="M129.163 19.437C129.642 19.526 130.109 19.6542 130.586 19.7539C131.556 19.9907 132.503 20.3378 133.431 20.6974L133.524 20.8576C133.04 20.8434 132.602 20.628 132.134 20.539C131.123 20.2417 130.049 20.0191 129.163 19.437Z" fill="#FFC4FF"/>
<path d="M135.692 19.9401C135.938 19.9134 136.253 20.2249 136.204 20.4688C135.945 20.5151 135.626 20.184 135.692 19.9401Z" fill="#FFC4FF"/>
<path d="M11.6516 7.53076C12.5502 10.0213 13.2637 12.5741 14.089 15.0895C14.3439 15.7945 14.4704 16.5511 14.8281 17.2169C15.0757 17.345 15.2994 17.1919 15.4957 17.0566C15.4315 17.2685 15.4406 17.5604 15.1582 17.6139C14.7052 17.694 14.6538 17.1759 14.5475 16.884C13.6506 14.0107 12.7208 11.1464 11.8166 8.27667C11.7543 8.02922 11.6992 7.77999 11.6516 7.53076Z" fill="#2A0636"/>
<path d="M127.998 12.3164C128.505 11.5046 129.112 10.7017 130.001 10.2549C130.295 10.4543 130.522 10.7195 130.583 11.0738C130.33 10.9029 130.04 10.5379 129.708 10.7818C128.396 11.6061 127.833 13.0943 127.048 14.3333C127.232 13.6088 127.623 12.959 127.998 12.3164Z" fill="#2A0636"/>
<path d="M1.78076 12.5171C4.7042 14.705 7.64781 16.8715 10.5804 19.0487C11.1141 19.5044 11.613 18.7478 12.0623 18.5022C12.0586 18.5947 12.0531 18.7816 12.0495 18.8742C11.5946 19.1591 11.0114 19.8978 10.4851 19.33C7.61113 17.1848 4.71704 15.0681 1.84679 12.9194C1.83028 12.8197 1.79727 12.6168 1.78076 12.5171Z" fill="#2A0636"/>
<path d="M120.349 17.5592C121.068 18.2997 122.113 18.7715 123.175 18.5525C124.017 18.4902 124.662 17.9366 125.343 17.5146C124.516 19.0367 122.188 19.3554 120.816 18.3442C120.618 18.1075 120.466 17.8386 120.349 17.5592Z" fill="#2A0636"/>
<path d="M128.242 19.8337C127.722 19.5097 127.597 18.8759 127.707 18.3223C127.54 19.0522 128.206 19.5542 128.794 19.8497C130.313 20.6027 131.998 20.9552 133.656 21.3059C134.113 21.3842 134.581 21.5373 135.052 21.4412C135.03 21.5444 134.99 21.7527 134.97 21.856C134.276 21.7527 133.594 21.5996 132.903 21.4928L132.785 21.4608C131.223 21.0869 129.581 20.7469 128.242 19.8337Z" fill="#2A0636"/>
<path d="M109.818 30.0613C107.696 27.4889 107.325 23.9712 107.738 20.8042C107.474 23.6258 107.654 26.6842 109.348 29.0982C110.241 30.3835 111.584 31.6848 113.291 31.6706C114.311 31.6866 115.03 30.9069 115.749 30.3212C115.509 31.0066 114.856 31.4089 114.284 31.8148C114.232 31.8415 114.131 31.8967 114.08 31.9234C112.395 32.3631 110.808 31.2932 109.818 30.0613Z" fill="#2A0636"/>
<path d="M113.264 22.0845C113.348 22.0916 113.517 22.1041 113.601 22.1112C114.064 22.9051 114.823 23.7472 115.859 23.6671C116.439 23.6956 116.831 23.2274 117.231 22.8962C117.004 23.7685 116.013 24.2385 115.151 23.9377C114.871 23.7846 114.601 23.6137 114.351 23.4214C114.034 23.0636 113.754 22.6791 113.46 22.3052C113.211 22.6684 113.126 23.0956 113.2 23.5247C113.18 23.4819 113.143 23.3929 113.123 23.3484C113.13 22.923 113.187 22.5028 113.264 22.0845Z" fill="#2A0636"/>
<path d="M134.496 24.2948C134.289 24.0117 134.298 23.6575 134.289 23.3281C134.443 24.261 135.272 24.9214 135.729 25.7296C136.063 26.1106 136.294 26.8796 136.939 26.7408C137.823 26.1871 138.553 25.4234 139.36 24.7683L139.432 24.7612C139.606 25.2383 139.791 25.7136 139.949 26.1996C139.742 25.8685 139.54 25.532 139.369 25.1831C138.814 25.5712 138.3 26.0127 137.785 26.447C137.541 26.6518 137.304 26.8618 137.073 27.0772C136.694 27.1698 136.373 26.9971 136.143 26.7105C135.657 25.8667 135.026 25.1119 134.496 24.2948Z" fill="#2A0636"/>
<path d="M140.954 28.5835C141.613 29.956 142.141 31.3838 142.748 32.7777C142.994 33.4043 143.417 34.0559 143.188 34.7519C143.168 34.3407 143.113 33.9277 142.937 33.5503C142.304 32.1208 141.761 30.6539 141.101 29.2351C141.064 29.0731 140.991 28.7473 140.954 28.5835Z" fill="#2A0636"/>
<path d="M140.916 40.3047C141.455 41.3052 141.809 42.384 142.267 43.4183C142.761 44.6822 143.362 45.907 143.78 47.1977C143.58 47.009 143.479 46.7562 143.393 46.5087C142.608 44.4259 141.612 42.4178 140.916 40.3047Z" fill="#2A0636"/>
<path d="M151.973 62.461C155.384 60.9834 158.85 59.6198 162.229 58.0728C162.073 58.6282 161.449 58.7635 160.987 58.9896C157.724 60.3425 154.507 61.8041 151.206 63.0645C150.706 62.9594 150.251 62.7244 149.95 62.315C149.686 61.4997 149.227 60.752 149.062 59.9064C149.449 60.5971 149.647 61.3697 150.04 62.0569C150.436 62.6835 151.336 62.8046 151.973 62.461Z" fill="#2A0636"/>
<path d="M140.041 62.8027C141.059 63.2602 142.071 63.7356 143.076 64.2216C143.324 63.8993 143.399 63.497 143.516 63.1214C143.441 63.0502 143.289 62.9078 143.214 62.8366C143.294 62.8793 143.456 62.9647 143.536 63.0075C143.436 63.5273 143.476 64.1682 143.056 64.5651C142.075 64.0809 141.057 63.6715 140.098 63.1517C140.083 63.0644 140.055 62.89 140.041 62.8027Z" fill="#2A0636"/>
<path d="M137.713 65.4409C138.847 67.1837 139.892 68.9764 141.007 70.7299C141.805 70.3347 142.423 69.676 143.126 69.1455C143.298 69.4339 142.971 69.6066 142.801 69.7757C142.251 70.1958 141.733 70.6569 141.161 71.0504C140.906 71.086 140.86 70.7904 140.734 70.648C139.813 69.142 138.893 67.6341 137.946 66.1441C137.816 65.9323 137.644 65.7026 137.713 65.4409Z" fill="#2A0636"/>
<path d="M134.748 74.6411C135.859 74.7978 136.978 74.9046 138.1 74.9669C138.076 75.0452 138.031 75.2001 138.007 75.2784C136.95 75.2891 135.901 75.1289 134.854 75.031C134.832 74.9722 134.79 74.8547 134.768 74.796L134.748 74.6411Z" fill="#2A0636"/>
<path d="M137.051 7.71875C137.55 8.10149 137.81 8.68362 138.001 9.25685C138.733 12.4826 138.383 15.8169 138.045 19.0676C137.9 19.0622 137.612 19.0533 137.468 19.048C137.031 18.0244 136.747 16.9473 136.268 15.9415C135.558 13.5436 134.671 11.0317 135.14 8.51094C135.307 8.23857 135.476 7.96086 135.725 7.74901C136.162 7.82734 136.624 7.88965 137.051 7.71875ZM136.259 8.41481C135.624 9.19098 136.046 10.2947 136.066 11.2062C136.294 12.641 136.692 14.0545 137.178 15.4253C137.512 15.4199 137.462 15.0069 137.484 14.7826C137.475 12.8546 137.601 10.8768 137.007 9.0094C136.873 8.73881 136.628 8.29376 136.259 8.41481ZM137.374 16.7444C137.379 17.234 137.455 17.72 137.506 18.2077C137.981 17.8748 137.532 17.177 137.374 16.7444Z" fill="#9D5095"/>
<path opacity="0.42" d="M123.223 8.27979C123.643 8.76222 124.281 8.76934 124.861 8.58954C124.079 9.21439 123.298 9.85349 122.661 10.6225C122.689 10.3252 122.722 10.028 122.777 9.73422C122.9 9.34791 122.99 8.95271 123.085 8.55928C123.12 8.48985 123.19 8.34921 123.223 8.27979Z" fill="#270C30"/>
<path opacity="0.42" d="M113.939 14.6245C113.963 14.7082 114.012 14.8755 114.036 14.9574C113.862 15.8351 113.598 16.7056 113.627 17.6081C113.302 16.9156 112.915 16.2338 112.323 15.7211C113.146 15.9258 113.706 15.3117 113.939 14.6245Z" fill="#270C30"/>
<path d="M119.221 8.43851C119.828 8.02194 120.796 8.50794 120.726 9.2485C120.772 9.85734 120.094 10.3451 119.505 10.16C118.707 10.0158 118.502 8.81414 119.221 8.43851Z" fill="#5E5E5E"/>
<path d="M125.981 9.65249C126.285 9.41572 126.817 9.54389 126.918 9.92664C127.069 10.304 126.72 10.7491 126.298 10.701C125.772 10.6779 125.554 9.94266 125.981 9.65249Z" fill="#5E5E5E"/>
<path d="M121.247 12.8813C121.526 12.8118 121.841 13.0504 121.785 13.3459C121.832 13.7892 121.106 13.9387 120.923 13.5684C120.743 13.321 120.934 12.9187 121.247 12.8813Z" fill="#5E5E5E"/>
<path d="M116.638 13.6147C117.41 13.1964 118.45 13.9067 118.287 14.7541C118.214 15.589 117.057 16.0305 116.422 15.4626C115.798 14.9909 115.905 13.9281 116.638 13.6147Z" fill="#5E5E5E"/>
<path d="M122.889 17.0318C122.48 16.4034 123.221 15.5453 123.931 15.8302C124.47 15.9708 124.534 16.5779 124.561 17.03C124.334 17.2187 124.083 17.379 123.819 17.5125C123.474 17.4359 123.045 17.3968 122.889 17.0318Z" fill="#5E5E5E"/>
<path d="M109.134 19.9973C109.499 19.6644 110.217 19.8335 110.296 20.3409C110.449 20.8233 109.924 21.3093 109.431 21.1544C108.91 21.0618 108.732 20.3088 109.134 19.9973Z" fill="#5E5E5E"/>
<path d="M114.98 20.1322C115.578 19.7993 116.451 20.1376 116.561 20.8229C116.803 21.6223 115.795 22.3788 115.05 21.9694C114.261 21.6774 114.256 20.5007 114.98 20.1322Z" fill="#5E5E5E"/>
<path d="M112.611 26.1031C112.2 25.7186 112.545 25.1952 112.957 24.9834C113.15 25.0617 113.343 25.1401 113.537 25.2202C113.609 25.4124 113.686 25.6047 113.766 25.797C113.528 26.1744 113.001 26.4859 112.611 26.1031Z" fill="#5E5E5E"/>
<path d="M111.483 29.3666C111.468 28.6082 112.301 27.9994 113.051 28.2041C113.816 28.3519 114.26 29.2776 113.889 29.9434C113.695 30.23 113.44 30.4703 113.211 30.7303C112.8 30.7125 112.391 30.6448 112.007 30.5042C111.764 30.1624 111.43 29.8188 111.483 29.3666Z" fill="#5E5E5E"/>
<path d="M4.87288 9.21789C5.03794 9.01851 5.44326 8.96332 5.57165 9.22679C7.60008 12.0039 9.62302 14.7846 11.6551 17.5582C11.5561 17.843 11.4772 18.1456 11.281 18.3895C11.0719 18.2489 10.8647 18.1118 10.6556 17.9747C10.6629 17.7433 10.7344 17.4852 10.5474 17.3C8.74635 14.9163 7.05354 12.4614 5.24335 10.0849C4.48957 10.4605 4.01272 11.1832 3.33963 11.671C3.04252 11.8455 3.13239 12.1819 3.17824 12.4543C3.04068 12.4614 2.76925 12.4775 2.63353 12.4846C2.51432 12.1997 2.40978 11.9078 2.30341 11.6194C3.15806 10.8165 4.01455 10.0154 4.87288 9.21789Z" fill="#D7CD00"/>
<path opacity="0.27" d="M5.57166 9.22661C6.0375 9.191 6.3071 9.63961 6.61705 9.90308C7.81284 11.0157 8.7592 12.3455 9.76608 13.6148C10.6684 14.6758 11.5304 15.7902 12.1155 17.0488C12.308 17.6167 12.5025 18.384 12.0495 18.8736C12.0531 18.781 12.0586 18.5941 12.0623 18.5015C12.0605 18.4143 12.0568 18.2398 12.055 18.1526C11.9284 17.9496 11.7945 17.752 11.6551 17.558C9.62303 14.7844 7.60009 12.0037 5.57166 9.22661Z" fill="#19081F"/>
<path opacity="0.88" d="M122.069 11.2582C122.238 10.7242 122.504 10.2257 122.777 9.73438C122.722 10.0281 122.689 10.3254 122.661 10.6227C122.473 10.8434 122.271 11.0535 122.069 11.2582Z" fill="#5C2457"/>
<path d="M128.688 10.3862C129.088 9.69725 130.036 9.45336 130.709 9.92512C130.878 10.1975 131.03 10.4788 131.169 10.7707C130.924 10.5713 130.689 10.3648 130.462 10.1512C129.858 10.1031 129.251 10.1672 128.688 10.3862Z" fill="#FEAEFB"/>
<path d="M3.33974 11.6711C4.01283 11.1833 4.48968 10.4606 5.24346 10.085C7.05365 12.4615 8.74646 14.9164 10.5475 17.3001C10.7345 17.4853 10.663 17.7434 10.6557 17.9748C8.14123 16.1644 5.69464 14.2613 3.17835 12.4544C3.1325 12.182 3.04263 11.8456 3.33974 11.6711Z" fill="#E5DB00"/>
<path d="M141.455 18.3446C141.673 18.3357 141.955 18.2698 142.111 18.4763C142.696 19.1208 143.223 19.8133 143.793 20.472C143.894 20.796 143.747 21.1128 143.476 21.3069C142.933 21.7769 142.379 22.2308 141.812 22.6705C141.62 22.8183 141.431 22.9714 141.251 23.1316C140.827 23.5286 140.387 23.9131 139.892 24.2246C139.446 24.1837 138.944 24.0662 138.555 24.3493C137.928 24.6875 137.512 25.3889 136.802 25.5598C136.11 25.2696 135.98 24.3493 135.32 23.9772C135.709 24.716 136.22 25.3889 136.668 26.0956C136.734 26.1152 136.866 26.158 136.932 26.1775C137.658 25.5954 138.308 24.7356 139.36 24.7676C138.553 25.4227 137.823 26.1864 136.939 26.7401C136.294 26.8789 136.063 26.1099 135.729 25.7289C135.272 24.9207 134.443 24.2602 134.289 23.3274C134.944 22.6207 135.852 22.1934 136.629 21.6255L136.875 21.4742C137.185 21.2748 137.488 21.0683 137.783 20.8494C138.728 20.1729 139.716 19.5569 140.661 18.8787C140.928 18.7078 141.189 18.5244 141.455 18.3446ZM141.473 22.2646C141.924 21.962 142.33 21.5988 142.788 21.3015C142.757 21.2036 142.693 21.0042 142.66 20.9063C142.197 21.2713 141.436 21.5864 141.473 22.2646Z" fill="#E5DB00"/>
<path d="M144.73 35.4955C145.029 35.1982 145.57 35.4813 145.473 35.8854C144.938 37.0585 144.275 38.1747 143.733 39.3479C143.454 39.8588 143.723 40.4231 143.969 40.8895C146.916 46.5915 149.787 52.3291 152.73 58.0329C152.917 58.4139 153.11 58.8536 152.914 59.2702C152.708 60.041 151.703 60.4416 150.99 60.0606C150.418 59.8274 150.238 59.2061 150.027 58.6987C147.553 52.8383 145.062 46.9867 142.59 41.1245C142.209 40.2718 142.346 39.2731 142.867 38.5058C143.511 37.516 144.059 36.4675 144.73 35.4955Z" fill="#E5DB00"/>
<path opacity="0.31" d="M129.708 10.7807C130.04 10.5368 130.329 10.9018 130.583 11.0727C130.617 11.2329 130.652 11.3949 130.685 11.5569C130.617 11.783 130.676 11.9699 130.863 12.1194C130.951 12.6161 131.058 13.1092 131.169 13.6024C130.781 13.6362 130.744 13.1698 130.561 12.9401C130.396 12.4612 129.702 12.0945 129.29 12.52C128.661 13.1413 128.176 13.8979 127.753 14.6616C127.166 16.2157 126.262 17.7218 124.84 18.6884C123.712 19.299 122.351 19.3275 121.106 19.1121C120.561 19.0533 119.861 18.854 119.465 19.3489C118.405 20.6288 118.328 22.4553 117.099 23.6356C116.653 24.1608 115.866 24.3566 115.536 24.9708C115.767 26.4555 116.871 27.8387 116.457 29.4035C116.215 30.4485 115.527 31.7534 114.284 31.8139C114.856 31.408 115.509 31.0057 115.749 30.3203C116.273 29.3981 116.29 28.2784 115.815 27.3331C115.611 26.8774 115.333 26.4608 115.032 26.062C115.01 25.6045 114.808 25.1826 114.718 24.7376C114.638 24.3904 114.958 24.1732 115.151 23.9365C116.013 24.2373 117.003 23.7673 117.231 22.895L117.242 22.8737C118.082 21.437 118.142 19.5928 119.364 18.3537C119.749 17.9425 120.351 18.2683 120.816 18.343C122.188 19.3542 124.516 19.0355 125.343 17.5135C126.075 16.5415 126.537 15.4199 127.048 14.3322C127.833 13.0932 128.396 11.605 129.708 10.7807Z" fill="#1C0A22"/>
<path opacity="0.91" d="M130.685 11.5571C130.929 11.68 130.988 11.8687 130.863 12.1197C130.676 11.9701 130.617 11.7832 130.685 11.5571Z" fill="#732554"/>
<path d="M1.78071 12.5164C1.62299 12.1123 2.06866 11.8684 2.30341 11.6191C2.40979 11.9075 2.51432 12.1995 2.63354 12.4843C3.05536 12.924 3.56705 13.2641 4.06041 13.6201C6.37128 15.297 8.62163 17.0523 10.9545 18.6972C11.037 18.6207 11.2003 18.4658 11.281 18.3893C11.4772 18.1454 11.5561 17.8427 11.6551 17.5579C11.7945 17.752 11.9284 17.9496 12.0549 18.1525C12.0568 18.2397 12.0604 18.4142 12.0623 18.5014C11.6129 18.7471 11.1141 19.5037 10.5804 19.0479C7.64776 16.8708 4.70415 14.7042 1.78071 12.5164Z" fill="#E3D900"/>
<path d="M2.63354 12.4844C2.76926 12.4772 3.0407 12.4612 3.17825 12.4541C5.69453 14.261 8.14112 16.1641 10.6556 17.9745C10.8647 18.1116 11.0719 18.2487 11.281 18.3893C11.2003 18.4659 11.0371 18.6207 10.9545 18.6973C8.62164 17.0524 6.37129 15.2971 4.06042 13.6201C3.56706 13.2641 3.05537 12.9241 2.63354 12.4844Z" fill="#FEFD00"/>
<path d="M124.123 12.4615C124.508 12.2496 124.86 12.6235 124.644 12.9902C124.255 13.2394 123.844 12.8264 124.123 12.4615Z" fill="#615E61"/>
<path opacity="0.25" d="M1.8468 12.9189C4.71705 15.0677 7.61113 17.1843 10.485 19.3295C9.92017 19.6499 9.32778 19.2476 8.84726 18.9663C7.04992 17.8982 5.37363 16.6503 3.73401 15.3685C3.00224 14.6475 2.13658 13.9265 1.8468 12.9189Z" fill="#17081C"/>
<path d="M14.8023 16.2267C14.8207 15.6161 14.5144 15.0286 14.6849 14.4233C14.905 14.977 15.0866 15.5734 14.9876 16.1733L14.8023 16.2267Z" fill="#FDFB07"/>
<path d="M119.015 15.8228C119.215 15.5949 119.393 15.3225 119.694 15.2068C120.024 15.0466 120.184 15.4418 120.362 15.6287C120.299 15.7053 120.173 15.8619 120.11 15.9403C120.098 15.8156 120.072 15.5629 120.059 15.4382C119.942 15.5735 119.828 15.7106 119.718 15.853C119.542 15.8459 119.192 15.8299 119.015 15.8228Z" fill="#FBADF5"/>
<path d="M110.333 15.5003L110.427 15.4521L110.449 15.5663L110.364 15.6038L110.333 15.5003Z" fill="#FEB9F5"/>
<path opacity="0.91" d="M119.718 15.8528C119.828 15.7104 119.942 15.5733 120.059 15.438C120.072 15.5626 120.097 15.8154 120.11 15.94C120.072 16.1572 120.039 16.3744 120.013 16.5933C119.98 16.4972 119.918 16.3067 119.885 16.2106C119.771 16.2391 119.544 16.2996 119.43 16.3281C119.518 16.1661 119.615 16.0077 119.718 15.8528Z" fill="#612C5C"/>
<path opacity="0.78" d="M137.499 19.4466C137.027 18.3002 136.532 17.1519 136.268 15.9414C136.747 16.9472 137.031 18.0242 137.468 19.0479C137.612 19.0532 137.9 19.0621 138.045 19.0675C138.08 19.4039 137.739 19.3879 137.499 19.4466Z" fill="#461641"/>
<path opacity="0.51" d="M119.43 16.3279C119.544 16.2995 119.771 16.2389 119.885 16.2104C119.918 16.3066 119.98 16.4971 120.013 16.5932C120.094 16.8567 120.178 17.1219 120.274 17.3836C119.914 17.3338 119.555 17.2875 119.201 17.227C119.182 17.1486 119.146 16.9902 119.127 16.9119C119.223 16.7142 119.322 16.5202 119.43 16.3279Z" fill="#2E1039"/>
<path opacity="0.51" d="M113.2 23.5236C113.126 23.0946 113.211 22.6674 113.46 22.3042C113.754 22.678 114.034 23.0626 114.351 23.4204C113.821 23.5984 113.829 24.161 113.746 24.6096C113.522 24.2678 113.357 23.8957 113.2 23.5236Z" fill="#2E1039"/>
<path d="M110.526 16.3477C110.735 16.4153 110.948 16.4847 111.158 16.5559C111.246 17.0224 110.916 17.2912 110.458 17.2057C110.405 16.9885 110.355 16.7713 110.309 16.5542C110.362 16.5025 110.471 16.3993 110.526 16.3477Z" fill="#695E68"/>
<path opacity="0.32" d="M132.019 16.2817C132.108 16.4615 132.207 16.6396 132.303 16.8194C132.512 17.6276 133.049 18.3005 133.57 18.9449C134.465 19.9596 135.503 20.8587 136.629 21.6259C135.852 22.1938 134.944 22.6211 134.289 23.3278C134.298 23.6571 134.289 24.0114 134.496 24.2945C135.026 25.1116 135.657 25.8664 136.143 26.7102C135.294 26.3257 134.892 25.4587 134.395 24.7431C133.832 24.015 134.153 23.0768 134.025 22.2472C133.735 21.8823 133.225 21.8128 132.816 21.6419C132.838 21.6046 132.881 21.5298 132.903 21.4924C133.594 21.5992 134.276 21.7523 134.969 21.8556C134.99 21.7523 135.03 21.544 135.052 21.4408L135.076 21.2272C134.311 20.5204 133.387 19.9739 132.506 19.4078C132.041 19.1283 131.567 18.8613 131.074 18.6334C131.032 18.612 130.949 18.5693 130.907 18.5479L130.812 18.4999C130.744 18.4678 130.61 18.402 130.542 18.3681L130.445 18.3201C130.23 18.2133 130.012 18.1171 129.785 18.0477C129.666 18.0085 129.423 17.932 129.304 17.8928C130.124 17.7575 130.881 18.1189 131.657 18.3023C131.901 18.361 132.275 18.4482 132.374 18.1296C132.301 17.503 131.958 16.9262 132.019 16.2817Z" fill="#1D0925"/>
<path opacity="0.4" d="M117.242 22.8735C117.937 20.9029 117.977 18.7257 119.127 16.9116C119.146 16.99 119.182 17.1484 119.201 17.2267C119.555 17.2872 119.914 17.3335 120.274 17.3834C120.292 17.4261 120.329 17.5151 120.349 17.5578C120.466 17.8373 120.618 18.1061 120.816 18.3429C120.351 18.2681 119.749 17.9424 119.364 18.3536C118.142 19.5926 118.082 21.4369 117.242 22.8735Z" fill="#240D2D"/>
<path opacity="0.9" d="M132.303 16.8193C132.82 17.4388 133.123 18.2043 133.697 18.7847C134.685 19.7567 135.734 20.6717 136.875 21.4746L136.629 21.6259C135.503 20.8586 134.465 19.9596 133.57 18.9449C133.049 18.3005 132.512 17.6276 132.303 16.8193Z" fill="#3A113F"/>
<path d="M121.187 17.341C121.372 17.2769 121.689 17.4016 121.684 17.6223C121.636 17.6579 121.543 17.7291 121.495 17.7647H121.387C121.202 17.6597 121.136 17.519 121.187 17.341Z" fill="#F282EC"/>
<path d="M115.127 17.7753C115.274 17.7699 115.569 17.7592 115.716 17.7539C115.776 18.0565 115.754 18.523 115.298 18.3503C115.114 18.2185 115.058 18.0263 115.127 17.7753Z" fill="#635E62"/>
<path d="M127.707 18.3219C127.813 18.1563 127.949 18.0175 128.116 17.9071C128.455 17.9142 128.827 17.8448 129.146 18.0032C129.346 18.1332 129.559 18.1474 129.785 18.0477C130.012 18.1172 130.23 18.2133 130.445 18.3201L130.417 18.434C130.449 18.418 130.511 18.3842 130.542 18.3682C130.61 18.402 130.744 18.4679 130.812 18.4999L130.792 18.6049C130.821 18.5907 130.88 18.5622 130.907 18.548C130.949 18.5693 131.032 18.6121 131.074 18.6334C131.457 19.0322 131.986 19.2334 132.506 19.4078C133.387 19.9739 134.311 20.5204 135.076 21.2272L135.052 21.4408C134.581 21.5369 134.113 21.3839 133.656 21.3055C131.998 20.9548 130.313 20.6023 128.794 19.8493C128.206 19.5538 127.54 19.0518 127.707 18.3219ZM128.627 18.9823C128.75 19.1799 128.882 19.4381 129.163 19.4363C130.049 20.0184 131.124 20.241 132.134 20.5383C132.602 20.6273 133.04 20.8427 133.524 20.8569L133.431 20.6967C132.503 20.3371 131.556 19.9899 130.586 19.7532C129.979 19.4132 129.31 19.1337 128.627 18.9823Z" fill="#9E5196"/>
<path d="M133.856 18.2044C134.087 18.1189 134.229 18.4233 134.39 18.5355C134.601 18.6316 134.555 18.993 134.291 18.8168C134.087 18.685 133.787 18.475 133.856 18.2044Z" fill="#D376CC"/>
<path d="M130.445 18.3198L130.542 18.3679C130.511 18.3839 130.449 18.4177 130.417 18.4337L130.445 18.3198Z" fill="#FE99EE"/>
<path d="M130.812 18.4995L130.907 18.548C130.88 18.5623 130.821 18.5911 130.792 18.6054L130.812 18.4995Z" fill="#E577D3"/>
<path opacity="0.38" d="M138.397 19.9226C139.195 19.6609 139.832 19.0681 140.661 18.8794C139.716 19.5577 138.728 20.1736 137.783 20.8501C137.339 20.5848 136.903 20.3089 136.514 19.976C137.137 19.9902 137.8 20.1772 138.397 19.9226Z" fill="#230B2C"/>
<path d="M112.393 19.2705C112.679 19.1798 112.816 19.6426 112.521 19.7067C112.23 19.8011 112.079 19.3275 112.393 19.2705Z" fill="#6B5E69"/>
<path d="M89.6178 19.5698C90.423 19.8386 91.2428 20.0683 92.0259 20.3905C93.3647 20.9424 94.1405 22.4484 93.9131 23.8263C93.7609 24.7751 93.6563 25.7329 93.5573 26.6889C96.3725 27.1784 99.1859 27.6751 101.992 28.2056C101.18 29.0672 100.085 29.6013 99.019 30.1104C97.1905 30.8261 95.1676 30.0481 93.3005 30.5786C92.7118 30.8136 92.7815 31.515 92.6348 32.0135C90.7091 39.9407 88.5302 47.811 86.6192 55.7419C86.3019 57.531 85.4436 59.3628 85.9809 61.1857C86.7219 61.2819 87.5344 61.1857 88.0956 60.6624C90.0653 58.948 92.0809 57.1945 93.4014 54.9337C94.1442 53.6056 94.9567 52.315 95.815 51.0546C96.0644 50.6647 96.3707 50.2873 96.4496 49.8227C96.8586 47.9499 97.3702 46.1003 97.7774 44.2293C96.2808 44.329 94.7861 44.4892 93.284 44.4856C92.5908 44.4874 91.9158 44.2845 91.3253 43.9391C91.0429 42.8211 91.0025 41.6675 91.0502 40.5229C93.6417 40.2914 96.224 40.7294 98.8118 40.7774C99.4922 38.4899 100.211 36.213 100.941 33.9397C102.042 34.3616 103.325 34.5182 104.2 35.3567C104.914 36.0634 105.258 37.1066 105.095 38.0858C104.947 38.9972 104.849 39.914 104.752 40.8326C107.479 41.3044 110.203 41.7904 112.923 42.2977C112.156 43.1095 111.131 43.6151 110.133 44.1029C108.33 44.879 106.295 44.0477 104.45 44.6191C103.938 44.8719 104.006 45.5075 103.863 45.9632C102.885 49.7604 101.537 53.465 100.695 57.296C100.338 58.5564 100.046 59.8969 100.323 61.2C101.069 61.3833 101.906 61.2285 102.469 60.6997C104.396 59.0157 106.37 57.2889 107.637 55.0583C108.29 53.8602 109.068 52.7333 109.737 51.5459C110.742 49.78 112.147 48.2792 113.328 46.6308C113.671 46.1572 114.075 45.5324 114.768 45.616C115.859 45.7869 116.95 45.981 118.045 46.1465C119.171 46.3157 120.231 46.7322 121.317 47.0509C121.299 47.455 121.277 47.8645 121.154 48.2561C120.631 50.1663 120.688 52.1583 120.644 54.1183C120.607 56.4522 120.418 58.8038 120.761 61.127C120.903 61.8159 121.015 62.6473 121.689 63.0514C122.06 63.3078 122.533 63.0924 122.832 62.8307C123.756 62.0545 124.53 61.1092 125.11 60.066C125.567 59.402 125.224 58.5493 125.574 57.839C126.669 55.0636 129.035 52.8918 131.711 51.5228C132.039 51.3323 132.406 50.8107 132.054 50.4938C130.742 49.2138 129.744 47.6295 128.189 46.5969C127.419 46.0522 126.557 45.6427 125.664 45.3348C123.164 44.434 121.079 42.4829 120.134 40.0547C119.608 38.456 119.683 36.6812 120.352 35.1324C120.941 33.7456 121.902 32.5404 122.975 31.4759C124.596 29.9235 126.638 28.891 128.655 27.9137C129.559 27.4917 130.539 27.2603 131.489 26.9612C132.019 27.2728 132.514 27.6448 132.928 28.097C133.202 28.3997 133.449 28.7237 133.684 29.0601C134.054 29.6672 134.408 30.2956 134.632 30.9703C134.638 31.4011 134.139 31.6325 133.845 31.8906C131.72 33.3344 129.475 34.7514 127.984 36.8645C126.973 38.2478 126.386 39.9176 126.357 41.6159C129.202 44.0957 132.807 45.7175 135.256 48.6282C135.745 49.2245 136.598 49.3741 137.336 49.2156C138.359 49.0109 139.366 48.7385 140.393 48.5463C140.598 48.5035 140.805 48.4626 141.015 48.4252C141.473 48.9806 141.702 49.6625 141.944 50.3247C141.834 50.3532 141.618 50.4101 141.51 50.4386C140.446 50.7751 139.259 50.8712 138.348 51.553C138.113 51.7275 137.82 52.0106 137.996 52.3239C138.764 54.5758 139.289 57.0361 138.669 59.3824C137.827 61.581 135.745 63.1778 133.46 63.8169C132.263 64.1373 130.999 64.3421 129.757 64.221C128.131 63.7706 127.063 62.3589 126.06 61.1306C125.638 62.0313 124.98 62.8752 124.107 63.3985C122.942 63.8756 121.567 64.1427 120.362 63.6407C118.438 62.9606 117.383 61.0843 116.917 59.256C115.998 60.0945 115.05 60.981 113.86 61.4368C111.901 62.0919 109.629 60.9597 108.855 59.1349C108.492 58.3962 108.523 57.5559 108.297 56.7851C107.003 58.4015 105.642 59.9912 104.019 61.3086C103.124 62.0189 102.131 62.6936 100.978 62.9179C99.263 63.087 97.4656 62.382 96.3597 61.095C95.4555 60.05 95.2795 58.624 95.2244 57.3102C95.2263 56.4896 95.2226 55.6493 95.4537 54.8535C94.9732 55.7508 94.2377 56.4753 93.6087 57.2711C91.9929 59.1866 90.2982 61.1412 88.0571 62.3892C86.0873 63.5463 83.4555 62.7523 81.9736 61.1964C80.9759 60.1675 80.743 58.7006 80.6604 57.3458C80.024 58.8377 79.1382 60.2048 78.1827 61.5204C77.6435 62.4408 76.4972 62.7399 75.4921 62.8876C74.6081 62.9891 73.6434 63.0105 72.8365 62.5921C72.0809 62.1328 71.582 61.346 71.3784 60.5128C70.9658 58.9445 70.7989 57.3156 70.8649 55.6992C69.5095 57.3245 67.958 58.7842 66.4174 60.2405C64.5632 61.9138 61.8507 62.7381 59.3674 62.1079C58.1478 61.8462 57.04 60.9953 56.6824 59.8096C56.0936 57.7588 56.2385 55.5051 57.139 53.5593C58.0542 51.6616 59.305 49.9348 60.2697 48.0656C59.7379 47.7665 59.2041 47.4728 58.6759 47.1719C56.73 49.8227 55.4242 52.8597 53.4563 55.498C52.8474 56.3222 52.0753 57.0112 51.382 57.766C50.5732 58.7184 49.183 58.8127 48.0056 58.7825C46.8667 58.7077 45.5406 58.4958 44.8419 57.5167C43.9872 56.4539 44.0184 55.0369 44.0037 53.7587C43.9909 51.2219 44.6365 48.7421 45.4086 46.337C44.0147 46.5489 42.6154 46.7305 41.2234 46.9423C40.7979 47.0224 40.2898 47.1257 40.0771 47.5387C39.8148 48.1244 40.2458 48.7083 40.2568 49.3029C40.3045 50.3817 40.1413 51.4587 39.9652 52.5215C39.5342 54.8856 38.8575 57.223 37.7735 59.386C37.106 60.5965 35.846 61.3656 34.5915 61.9192C32.3063 62.8876 29.7075 63.1493 27.2664 62.6669C25.9184 62.3696 24.5099 61.5649 24.1101 60.1995C23.7487 58.9017 24.2183 57.5417 24.8363 56.3916C26.5585 53.8121 28.4512 51.2451 31.039 49.415C31.6626 48.9522 32.3705 48.5765 32.8749 47.9837C33.2912 47.5066 33.1591 46.8373 32.9739 46.2979C32.5594 45.0713 32.011 43.8964 31.4663 42.7232C31.2261 42.093 30.4209 42.0254 29.8322 42.0432C27.9853 42.1642 26.2595 43.0205 24.8693 44.1723C24.4365 46.5791 24.2311 49.018 23.9853 51.448C23.6277 54.6043 23.6901 57.7855 23.459 60.949C23.3819 61.3032 23.4278 61.7554 23.1582 62.0296C21.9807 62.2254 20.7318 62.4408 19.5727 62.0456C18.4484 61.6379 17.6488 60.6677 17.1976 59.6174C16.0257 56.915 15.646 53.9759 15.3306 51.0831C14.9986 48.6602 14.8684 46.216 14.74 43.7771C14.6923 38.8477 14.2888 33.9308 13.9055 29.0174C13.7258 26.7636 13.4103 24.517 13.3351 22.2544C13.3296 21.8414 13.2875 21.4123 13.447 21.0189C13.5791 20.8818 13.7111 20.7465 13.8487 20.6166C14.5511 20.1341 15.3599 20.5988 16.0678 20.8053C17.1041 21.1952 18.2118 21.5013 19.1013 22.1743C19.9578 22.8329 20.5392 23.8121 20.7299 24.8535C21.315 24.4992 21.9514 24.2375 22.5383 23.8868C24.2769 22.8472 26.3256 22.3487 28.3595 22.3113C30.0908 22.3078 31.7048 23.3314 32.6016 24.736C33.1977 25.6386 33.3701 26.7245 33.5296 27.7659C33.7992 29.8594 33.7809 31.9868 33.5369 34.0821C33.3205 35.8089 32.9556 37.5446 32.1871 39.1272C33.8689 39.1147 35.426 40.044 36.332 41.3934C37.1848 42.6805 38.0963 43.9284 39.1326 45.0855C41.3994 44.742 43.6699 44.4126 45.9423 44.1011C46.3036 42.6484 46.5659 41.0427 47.6975 39.939C48.3339 39.2785 49.3353 39.3818 50.1789 39.3016C51.1234 39.2678 51.4811 40.279 51.8002 40.9644C52.3706 42.1393 52.1065 43.4602 51.8717 44.6814C51.1693 48.119 50.1551 51.489 49.4123 54.9176C49.2601 55.7116 49.0601 56.5145 49.1042 57.328C49.1005 57.6698 49.537 57.8033 49.8286 57.7606C50.5549 57.3369 51.0978 56.6818 51.6571 56.0748C53.6049 53.805 55.2537 51.302 56.6952 48.7047C57.0455 48.0158 57.4857 47.3784 57.9772 46.7785C57.2784 46.4082 56.6915 45.8439 56.3357 45.1496C55.7874 43.9177 56.6769 42.2514 58.1019 42.1375C59.162 41.9275 60.0551 42.7357 60.4311 43.6169C60.5907 44.6832 59.9744 45.7318 59.1858 46.4332C60.0001 46.6806 60.9153 46.9815 61.7406 46.6058C62.7292 46.2391 63.1656 45.228 63.9635 44.6227C65.3628 45.0766 66.7567 45.5466 68.1597 45.9899C67.9616 46.9921 67.4004 47.8787 66.9658 48.7955C64.963 52.5375 63.1033 56.3667 60.7411 59.9129C60.6145 60.1354 60.5448 60.422 60.7062 60.6499C61.1189 61.0059 61.7186 60.835 62.2046 60.7603C63.1583 60.6001 63.9139 59.9841 64.6916 59.475C67.0575 57.8265 69.2088 55.8647 70.9749 53.6163C71.4243 51.7204 71.206 49.7176 71.6077 47.8075C71.8241 46.9209 72.2698 45.8546 73.3023 45.6623C73.9185 45.5253 74.687 45.1443 75.2354 45.6356C76.0864 46.4634 76.6934 47.5867 76.6531 48.7813C76.7008 52.76 75.9782 56.7067 76.0038 60.6837C76.0644 61.038 75.9415 61.6415 76.4128 61.7519C76.8493 61.9103 77.1006 61.4581 77.3317 61.1911C78.2689 59.904 78.9603 58.4674 79.6701 57.0557C80.2203 55.8629 80.9557 54.7147 81.0566 53.3778C82.7054 45.6267 84.5981 37.9273 86.3496 30.1994C84.7558 30.3027 83.162 30.4843 81.5628 30.4558C80.8933 30.4433 80.2496 30.2297 79.6829 29.8932C79.3931 28.7415 79.3601 27.5523 79.3913 26.3738C82.0726 26.1281 84.7448 26.5821 87.4206 26.6355C88.1176 24.2696 88.8677 21.9197 89.6178 19.5698ZM26.5805 24.6114C25.315 25.2807 24.1852 26.1726 23.1013 27.0894C22.5841 27.5167 22.4649 28.2199 22.52 28.8447C22.6135 29.8737 22.4851 30.9115 22.6373 31.9369C22.9271 33.9236 23.1068 35.9246 23.3948 37.9113C23.5819 39.1432 23.8881 40.3538 24.1046 41.5803C24.376 41.3792 24.6676 41.2029 24.9115 40.9715C27.0555 38.3101 28.3173 35.0398 28.7171 31.6948C29.1151 29.5621 28.9042 27.344 28.2586 25.2772C28.0771 24.574 27.2206 24.2215 26.5805 24.6114ZM57.4178 43.8109C57.4086 44.4732 57.5572 45.1959 58.0579 45.6837C59.36 45.5609 59.8882 43.421 58.6613 42.8318C58.0505 42.7125 57.427 43.2092 57.4178 43.8109ZM115.441 52.6051C114.273 54.8268 113.143 57.0717 112.125 59.3628C111.927 59.7972 111.832 60.4149 112.175 60.7994C113.099 61.0932 113.785 60.1604 114.403 59.637C115.969 57.5612 117.249 55.2203 117.785 52.6817C118.067 51.3643 118.456 50.0701 118.794 48.7652C117.207 49.577 116.186 51.0706 115.441 52.6051ZM32.697 51.2023C31.1619 52.1013 29.9826 53.4347 28.6474 54.5758C27.3489 55.6635 26.265 57.0165 25.6231 58.5688C25.4159 59.0477 25.315 59.6156 25.5461 60.1069C25.8194 60.698 26.4796 60.9935 27.0977 61.1306C28.2971 61.3673 29.5461 61.0932 30.6465 60.6161C31.5819 60.1799 32.5833 59.5337 32.8382 58.4923C33.304 56.8865 33.6525 55.2452 33.8322 53.5878C33.9734 52.6016 33.7295 51.6225 33.5736 50.654C33.282 50.8356 32.9886 51.019 32.697 51.2023ZM129.178 57.2533C128.319 58.1843 127.802 59.4678 128.024 60.7229C128.204 61.5934 128.747 62.4675 129.638 62.7897C130.816 63.2152 132.253 62.5619 132.679 61.4172C133.389 59.3094 133.238 57.029 132.756 54.8909C131.415 55.4268 130.15 56.1976 129.178 57.2533Z" fill="white"/>
<path d="M51.0206 32.5104C51.4956 32.3769 52.1889 32.3947 52.3539 32.9519C52.5355 33.6693 52.6346 34.4455 52.3411 35.1522C51.8991 36.2186 50.4172 36.644 49.4452 35.9889C48.8656 35.5296 47.9963 34.8727 48.2806 34.0592C48.9115 33.1993 49.9991 32.7685 51.0206 32.5104Z" fill="white"/>
<path d="M74.1386 39.2733C74.5347 39.0918 75.1326 39.0544 75.3417 39.5137C75.5545 40.0193 75.747 40.5658 75.6884 41.123C75.6737 41.9632 74.9034 42.702 74.0414 42.7287C73.2656 42.7786 72.598 42.2872 72.0973 41.7639C71.8241 41.5022 71.7947 41.0696 72.0405 40.7812C72.565 40.0905 73.3261 39.592 74.1386 39.2733Z" fill="white"/>
<path opacity="0.23" d="M5.53857 20.4728C5.83752 20.1381 6.32537 20.1968 6.72886 20.2485C7.82928 20.5084 8.8655 20.9712 9.84854 21.5071C10.2484 21.726 10.5675 22.066 10.7692 22.4666C9.0324 21.7848 7.28457 21.1332 5.53857 20.4728Z" fill="#16061C"/>
<path d="M4.83081 21.8804C5.01605 21.4354 4.82898 20.4438 5.53874 20.4723C7.28474 21.1327 9.03256 21.7843 10.7694 22.4661C11.1142 22.6014 10.9326 23.0304 10.9528 23.301C10.3971 23.4363 9.82853 23.3153 9.27098 23.253C7.86062 23.0732 6.43925 22.9575 5.03622 22.7367C4.62356 22.6406 4.8033 22.1617 4.83081 21.8804ZM5.61027 21.8982C5.60844 22.0228 5.60477 22.2739 5.60294 22.4002C6.16598 22.4715 6.70885 22.6726 7.2829 22.6406C7.72307 22.6228 8.12105 22.8738 8.56672 22.8168C9.08025 22.7509 9.54425 23.0482 10.0559 22.9966C9.87805 22.5462 9.24347 22.6406 8.84549 22.5071C7.76158 22.3308 6.71252 21.9356 5.61027 21.8982Z" fill="#DAD000"/>
<path opacity="0.86" d="M143.793 20.4722C143.995 20.9777 143.784 21.5456 143.314 21.8323C142.837 22.2043 142.383 22.6013 141.928 23.0001C141.898 22.9164 141.84 22.7526 141.812 22.6707C142.379 22.231 142.933 21.7771 143.476 21.3071C143.747 21.113 143.894 20.7962 143.793 20.4722Z" fill="#3E1630"/>
<path d="M141.473 22.265C141.436 21.5868 142.197 21.2717 142.66 20.9067C142.693 21.0046 142.757 21.204 142.788 21.3019C142.329 21.5992 141.924 21.9624 141.473 22.265Z" fill="#FEFC00"/>
<path d="M112.822 22.0336C113.071 21.3233 114.085 21.5031 114.37 22.0942C114.177 22.0977 113.792 22.1066 113.601 22.1102C113.517 22.1031 113.348 22.0906 113.264 22.0835C113.152 22.071 112.932 22.0461 112.822 22.0336Z" fill="#FCC0F8"/>
<path d="M4.81241 23.0001C4.74455 22.6281 4.70971 22.2453 4.83075 21.8804C4.80324 22.1616 4.62351 22.6405 5.03616 22.7366C6.4392 22.9574 7.86058 23.0731 9.27095 23.2529C9.82849 23.3152 10.397 23.4363 10.9528 23.301C10.9876 23.5876 10.685 23.8208 10.4025 23.7282C8.92615 23.5698 7.45159 23.3989 5.97702 23.2226C5.58087 23.1906 5.18656 23.1354 4.81241 23.0001Z" fill="#290636"/>
<path d="M5.61024 21.8979C6.71249 21.9353 7.76155 22.3305 8.84545 22.5068C9.24344 22.6403 9.87801 22.5459 10.0559 22.9963C9.54422 23.048 9.08021 22.7507 8.56668 22.8165C8.12102 22.8735 7.72303 22.6225 7.28287 22.6403C6.70882 22.6723 6.16595 22.4712 5.60291 22.4C5.60474 22.2736 5.60841 22.0226 5.61024 21.8979Z" fill="#FFFF00"/>
<path d="M135.32 23.9771C135.98 24.3491 136.111 25.2695 136.802 25.5597C137.512 25.3888 137.928 24.6874 138.555 24.3491C138.944 24.0661 139.447 24.1836 139.892 24.2245C139.933 24.4631 139.979 24.7034 140.023 24.9437C139.826 24.8743 139.63 24.812 139.432 24.7603L139.36 24.7675C138.308 24.7354 137.658 25.5953 136.932 26.1774C136.866 26.1578 136.734 26.1151 136.668 26.0955C136.221 25.3888 135.709 24.7158 135.32 23.9771Z" fill="#FFFF00"/>
<path d="M152.189 61.4565C155.289 60.1338 158.403 58.8396 161.497 57.5044C161.499 57.5845 161.503 57.7429 161.504 57.8231C160.947 58.2343 160.281 58.4586 159.652 58.7345C157.105 59.8133 154.553 60.8815 152.01 61.9692C151.764 62.0617 151.509 62.1685 151.243 62.1507C150.863 62.197 150.697 61.8161 150.473 61.5971C151.047 61.6968 151.652 61.7181 152.189 61.4565Z" fill="#FFFF00"/>
<path opacity="0.33" d="M141.928 23.0008C142.383 22.6021 142.838 22.2051 143.314 21.833C143.256 22.3742 142.993 22.9332 143.188 23.4744C144.107 25.6551 145.552 27.5671 146.905 29.5075C147.463 30.2481 148.072 31.0563 149 31.3749C149.882 31.674 150.858 31.544 151.722 31.9108C150.711 31.9517 149.697 31.9695 148.688 31.9108C148.195 31.9001 147.786 31.585 147.534 31.1951C145.662 28.4661 143.799 25.7299 141.928 23.0008Z" fill="#1F0A26"/>
<path d="M141.251 23.132C141.431 22.9718 141.62 22.8187 141.812 22.6709C141.84 22.7528 141.899 22.9166 141.928 23.0002C143.799 25.7293 145.662 28.4655 147.534 31.1945C147.786 31.5844 148.195 31.8995 148.688 31.9102C149.697 31.9689 150.711 31.9511 151.722 31.9102C151.942 31.9369 152.165 31.9636 152.389 31.9974C151.988 31.8692 151.868 32.3837 152.336 32.2306C152.387 32.1861 152.488 32.0971 152.538 32.0526C152.628 32.0864 152.807 32.1559 152.897 32.1915C153.521 32.7558 153.64 33.6067 153.908 34.3526C155.094 37.986 156.252 41.6283 157.453 45.2582C159.058 49.0251 160.714 52.7724 162.333 56.534C162.544 57.0325 162.434 57.5897 162.229 58.0721C158.85 59.6191 155.384 60.9828 151.973 62.4603C151.336 62.8039 150.436 62.6829 150.04 62.0562C149.647 61.3691 149.449 60.5965 149.062 59.9057L149.042 59.847C148.991 59.7491 148.89 59.555 148.838 59.4571C148.811 59.3646 148.758 59.1776 148.73 59.0833C148.778 58.8109 148.679 58.6453 148.437 58.583C148.422 58.4869 148.391 58.2929 148.376 58.195C148.407 57.9261 148.307 57.757 148.07 57.6894C148.054 57.5933 148.022 57.4028 148.006 57.3066C148.043 57.0378 147.942 56.8705 147.705 56.8064C147.689 56.7103 147.657 56.5144 147.641 56.4183C147.665 56.1744 147.569 55.9982 147.355 55.8931C147.331 55.8041 147.285 55.6243 147.261 55.5353C147.302 55.2879 147.21 55.1116 146.99 55.0048C146.964 54.914 146.915 54.7325 146.891 54.6417C146.933 54.3889 146.839 54.2126 146.61 54.1112C146.59 54.0132 146.55 53.8174 146.529 53.7213C146.48 53.4115 146.487 52.9487 146.091 52.8686C146.067 52.7742 146.021 52.5855 145.998 52.4912C146.032 52.2241 145.932 52.0586 145.697 51.9909C145.682 51.8948 145.653 51.699 145.638 51.6028C145.664 51.334 145.559 51.1667 145.324 51.1026C145.31 50.9994 145.279 50.7911 145.264 50.6878C145.2 50.3763 145.187 49.9455 144.831 49.8137C144.595 49.0144 144.222 48.2632 143.896 47.4977C143.866 47.4229 143.808 47.2716 143.78 47.1968C143.362 45.9062 142.761 44.6814 142.267 43.4174C141.809 42.3831 141.455 41.3043 140.915 40.3039C140.664 39.7182 140.446 39.0221 140.776 38.4222C141.517 37.1618 142.473 36.0278 143.188 34.7514C143.417 34.0553 142.993 33.4038 142.748 32.7771C142.141 31.3832 141.612 29.9555 140.954 28.583C140.925 28.5118 140.87 28.3693 140.842 28.2981C140.893 28.0471 140.804 27.8727 140.573 27.7748C140.549 27.6768 140.503 27.4792 140.479 27.3813C140.411 27.0734 140.387 26.6692 140.046 26.5286C140.022 26.4467 139.973 26.2812 139.949 26.1993C139.791 25.7133 139.606 25.238 139.432 24.7609C139.63 24.8125 139.826 24.8748 140.022 24.9442C140.087 25.003 140.215 25.1205 140.279 25.1792C140.347 25.1383 140.479 25.0528 140.545 25.0101C141.649 27.8104 142.882 30.5608 144.006 33.3521C144.332 34.269 143.965 35.2285 143.369 35.953C142.795 36.8218 142.128 37.6389 141.651 38.5646C141.431 38.9634 141.642 39.4084 141.783 39.7965C144.655 46.6948 147.536 53.5896 150.355 60.5074C150.452 60.8617 150.41 61.2356 150.473 61.5969C150.696 61.8159 150.863 62.1969 151.243 62.1506C151.509 62.1684 151.764 62.0616 152.01 61.969C154.553 60.8813 157.104 59.8132 159.652 58.7344C160.281 58.4584 160.947 58.2341 161.504 57.8229C161.502 57.7428 161.499 57.5843 161.497 57.5042C161.607 56.4521 160.985 55.562 160.622 54.6203C159.265 51.4925 157.899 48.37 156.545 45.2404C155.5 41.89 154.39 38.561 153.31 35.2214C153.086 34.5004 152.917 33.7527 152.573 33.0744C152.435 32.8003 152.085 32.7665 151.821 32.6881C150.674 32.4638 149.493 32.7202 148.341 32.5404C147.588 32.3748 146.995 31.8336 146.586 31.2212C145.334 29.3609 144.035 27.5309 142.783 25.6723C142.227 24.8517 141.601 24.0612 141.251 23.132Z" fill="#BD9500"/>
<path d="M139.892 24.2249C140.387 23.9133 140.827 23.5288 141.251 23.1318C141.601 24.0611 142.227 24.8515 142.783 25.6722C144.035 27.5307 145.334 29.3608 146.586 31.2211C146.995 31.8335 147.588 32.3747 148.341 32.5402C149.493 32.72 150.674 32.4637 151.821 32.688C152.085 32.7663 152.435 32.8001 152.573 33.0743C152.917 33.7526 153.086 34.5002 153.31 35.2212C154.39 38.5609 155.5 41.8899 156.545 45.2402C157.899 48.3699 159.265 51.4923 160.622 54.6202C160.985 55.5619 161.607 56.452 161.497 57.5041C158.403 58.8392 155.289 60.1335 152.189 61.4562C151.652 61.7178 151.047 61.6965 150.473 61.5968C150.41 61.2354 150.452 60.8616 150.355 60.5073C147.536 53.5894 144.655 46.6947 141.783 39.7964C141.642 39.4083 141.431 38.9632 141.651 38.5645C142.128 37.6388 142.795 36.8216 143.369 35.9529C143.965 35.2284 144.332 34.2688 144.006 33.352C142.882 30.5606 141.649 27.8102 140.545 25.01C140.479 25.0527 140.347 25.1381 140.279 25.1791C140.215 25.1203 140.087 25.0028 140.022 24.9441C139.978 24.7038 139.932 24.4634 139.892 24.2249ZM144.73 35.4954C144.059 36.4674 143.511 37.5159 142.867 38.5057C142.346 39.273 142.208 40.2717 142.59 41.1244C145.062 46.9866 147.553 52.8382 150.027 58.6986C150.238 59.206 150.418 59.8273 150.99 60.0605C151.703 60.4414 152.708 60.0409 152.914 59.2701C153.11 58.8535 152.917 58.4138 152.73 58.0328C149.787 52.329 146.916 46.5914 143.969 40.8894C143.723 40.423 143.454 39.8587 143.733 39.3477C144.275 38.1746 144.938 37.0584 145.473 35.8852C145.57 35.4811 145.029 35.1981 144.73 35.4954ZM145.268 38.9703C145.402 39.4439 145.774 39.7839 146.084 40.1542C146.414 40.1115 146.744 40.0723 147.078 40.0349C147.307 39.6166 147.54 39.1982 147.692 38.7478C146.909 38.422 145.858 38.1871 145.268 38.9703ZM147.769 40.6153C147.203 40.941 146.689 41.516 146.709 42.189C146.827 42.8281 147.206 43.444 147.81 43.7573C148.659 44.2113 149.55 44.5833 150.416 45.0106C149.695 45.6693 149.229 46.7641 149.822 47.6471C150.319 48.4998 151.434 48.3253 152.277 48.4464C152.435 48.7348 152.609 49.0161 152.794 49.292C152.393 49.4504 151.962 49.5768 151.626 49.8545C151.298 50.1643 151.322 50.6574 151.459 51.0491C152.805 51.2128 154.146 50.9155 155.478 50.7571C155.819 50.6912 156.176 50.8158 156.424 51.0508C154.973 51.4051 153.475 51.6526 152.11 52.2721C151.549 52.5907 151.615 53.7016 152.363 53.7034C153.387 53.479 154.44 53.4648 155.485 53.4862C155.672 53.4737 155.846 53.5485 156.01 53.6357C155.142 53.8974 154.245 54.1804 153.534 54.7465C152.85 55.2771 152.938 56.5036 153.803 56.8116C154.515 57.0252 155.28 56.9344 156.01 56.8597C156.283 56.7973 156.646 56.833 156.782 56.525C156.281 56.4182 155.782 56.6211 155.281 56.573C154.759 56.5641 154.264 56.4021 153.789 56.2099C153.823 56.1583 153.893 56.055 153.928 56.0052C155.131 55.5103 156.442 55.2325 157.561 54.5578C158.021 54.2303 157.557 53.682 157.376 53.3242C156.862 52.9895 156.158 53.1159 155.63 52.7901C156.312 52.5854 157.042 52.4074 157.587 51.932C157.845 51.6347 157.568 51.2609 157.425 50.9779C157.057 50.28 156.131 50.4705 155.509 50.1643C156.182 49.9204 156.426 49.1033 156.046 48.5283C155.045 48.5479 154.106 48.9075 153.143 49.1229C152.916 48.8719 152.703 48.612 152.527 48.3289C153.343 48.1651 154.087 47.672 154.526 46.9831C154.812 46.5861 154.535 46.1535 154.364 45.7796C154.551 45.4129 154.731 44.9501 154.467 44.5762C153.31 44.1365 152.052 44.505 150.907 44.797C149.748 44.3252 148.629 43.7502 147.597 43.0613C147.384 42.8957 146.938 42.5112 147.331 42.2958C148.728 41.6229 150.39 41.751 151.826 42.2513C151.733 42.4738 151.342 42.6536 151.564 42.9242C152.197 42.999 152.749 42.4649 152.481 41.8525C151.945 41.1208 151.048 40.6989 150.146 40.5832C149.365 40.4817 148.505 40.2201 147.769 40.6153Z" fill="#C9A200"/>
<path d="M152.62 47.612C152.778 46.7771 153.453 46.0543 154.397 46.1879C154.487 47.0815 153.339 47.45 152.62 47.612Z" fill="#C9A200"/>
<path d="M150.001 47.3572C150.405 46.1983 151.859 46.5721 152.816 46.46C152.648 46.8747 152.472 47.286 152.316 47.7061C151.551 47.7132 150.562 48.0212 150.001 47.3572Z" fill="#C9A200"/>
<path opacity="0.4" d="M113.746 24.6096C113.829 24.161 113.821 23.5984 114.351 23.4204C114.601 23.6127 114.87 23.7836 115.151 23.9367C114.958 24.1734 114.637 24.3906 114.718 24.7378C114.808 25.1828 115.01 25.6047 115.032 26.0622C114.597 25.5834 114.137 25.1223 113.746 24.6096Z" fill="#240D2C"/>
<path opacity="0.4" d="M137.785 26.4466C138.3 26.0122 138.814 25.5707 139.369 25.1826C139.54 25.5315 139.742 25.868 139.949 26.1991C139.973 26.281 140.022 26.4466 140.046 26.5285C140.022 26.8507 140.075 27.3082 140.479 27.3812C140.503 27.4791 140.549 27.6767 140.572 27.7746C140.51 28.0256 140.6 28.2001 140.842 28.298C140.87 28.3692 140.925 28.5116 140.954 28.5828C140.991 28.7466 141.064 29.0724 141.101 29.2344C140.303 28.4707 140.169 27.2477 139.268 26.5605C138.836 26.2436 138.273 26.4181 137.785 26.4466Z" fill="#240D2C"/>
<path d="M109.48 24.259C109.807 24.1202 110.153 24.4121 109.972 24.745C109.638 25.0584 109.146 24.5955 109.48 24.259Z" fill="#685E67"/>
<path opacity="0.31" d="M137.785 26.447C138.273 26.4185 138.836 26.2441 139.269 26.561C140.169 27.2481 140.303 28.4711 141.101 29.2348C141.761 30.6537 142.304 32.1206 142.937 33.5501C143.113 33.9275 143.168 34.3405 143.188 34.7517C142.473 36.0281 141.517 37.1621 140.776 38.4225C140.446 39.0224 140.664 39.7185 140.916 40.3042C141.612 42.4173 142.608 44.4254 143.393 46.5082C143.48 46.7556 143.58 47.0084 143.78 47.1971C143.808 47.2719 143.866 47.4232 143.896 47.498C143.929 47.619 143.997 47.8611 144.032 47.9822C143.863 48.0053 143.524 48.0499 143.355 48.073C142.324 45.2834 140.813 42.6362 140.286 39.6918C140.112 37.6873 141.983 36.2578 142.199 34.3351C142.152 33.0107 141.471 31.8197 141.015 30.6003C140.523 29.5286 140.055 28.3946 139.208 27.5365C138.667 26.9508 137.803 27.0131 137.073 27.0772C137.304 26.8618 137.541 26.6517 137.785 26.447Z" fill="#1C0A23"/>
<path opacity="0.84" d="M140.046 26.5288C140.387 26.6694 140.411 27.0736 140.479 27.3815C140.076 27.3085 140.022 26.851 140.046 26.5288Z" fill="#512132"/>
<path opacity="0.86" d="M140.573 27.7749C140.804 27.8728 140.894 28.0473 140.842 28.2983C140.6 28.2004 140.51 28.0259 140.573 27.7749Z" fill="#57252F"/>
<path d="M152.336 32.2313C151.868 32.3849 151.988 31.8688 152.389 31.9974L152.538 32.0527C152.488 32.0974 152.387 32.1866 152.336 32.2313Z" fill="#FDFA0F"/>
<path opacity="0.31" d="M152.897 32.1919C153.084 32.2934 153.368 32.3147 153.469 32.5337C153.858 33.3116 154.267 34.0843 154.562 34.9014C155.736 37.942 156.595 41.0858 157.658 44.162C158.414 46.4763 159.534 48.6535 160.441 50.9126C161.191 52.5183 161.842 54.165 162.518 55.8028C163.074 57.0115 162.568 58.6458 161.332 59.2617C160.066 59.9738 158.79 60.677 157.424 61.1897C155.744 61.8377 154.15 62.7403 152.352 63.05C151.975 63.1372 151.582 63.1604 151.206 63.0643C154.507 61.8039 157.724 60.3423 160.987 58.9894C161.449 58.7633 162.073 58.628 162.229 58.0726C162.434 57.5901 162.544 57.0329 162.333 56.5345C160.714 52.7729 159.058 49.0255 157.453 45.2586C156.252 41.6288 155.094 37.9865 153.908 34.3531C153.64 33.6072 153.521 32.7562 152.897 32.1919Z" fill="#1C0922"/>
<path d="M145.268 38.9705C145.858 38.1872 146.909 38.4222 147.692 38.748C147.54 39.1984 147.307 39.6168 147.078 40.0351C146.744 40.0725 146.414 40.1116 146.084 40.1544C145.774 39.7841 145.401 39.4441 145.268 38.9705Z" fill="#45244F"/>
<path d="M147.769 40.6155C148.505 40.2203 149.365 40.482 150.146 40.5835C151.049 40.6992 151.945 41.1211 152.481 41.8528C152.749 42.4652 152.197 42.9992 151.564 42.9245C151.342 42.6539 151.733 42.4741 151.826 42.2515C150.39 41.7513 148.728 41.6231 147.331 42.296C146.938 42.5115 147.384 42.896 147.597 43.0615C148.629 43.7505 149.748 44.3255 150.907 44.7972C152.052 44.5053 153.31 44.1368 154.467 44.5765C154.731 44.9503 154.551 45.4132 154.364 45.7799C154.535 46.1538 154.812 46.5863 154.526 46.9833C154.087 47.6723 153.343 48.1654 152.527 48.3292C152.703 48.6122 152.916 48.8721 153.143 49.1231C154.106 48.9077 155.045 48.5481 156.046 48.5286C156.426 49.1036 156.182 49.9207 155.509 50.1646C156.131 50.4708 157.057 50.2803 157.425 50.9781C157.568 51.2612 157.845 51.635 157.587 51.9323C157.042 52.4076 156.312 52.5856 155.63 52.7904C156.158 53.1162 156.862 52.9898 157.376 53.3244C157.557 53.6823 158.021 54.2306 157.561 54.5581C156.442 55.2328 155.131 55.5105 153.928 56.0054C153.893 56.0553 153.823 56.1585 153.789 56.2102C154.264 56.4024 154.759 56.5644 155.281 56.5733C155.782 56.6214 156.281 56.4184 156.782 56.5252C156.646 56.8332 156.283 56.7976 156.01 56.8599C155.28 56.9347 154.515 57.0255 153.803 56.8119C152.938 56.5039 152.85 55.2773 153.534 54.7468C154.245 54.1807 155.142 53.8977 156.01 53.636C155.846 53.5487 155.672 53.474 155.485 53.4864C154.44 53.4651 153.387 53.4793 152.364 53.7036C151.615 53.7018 151.549 52.591 152.11 52.2723C153.475 51.6528 154.973 51.4054 156.424 51.0511C156.176 50.8161 155.819 50.6915 155.478 50.7574C154.146 50.9158 152.806 51.2131 151.459 51.0493C151.322 50.6577 151.298 50.1646 151.626 49.8548C151.962 49.5771 152.393 49.4507 152.794 49.2923C152.609 49.0163 152.435 48.7351 152.277 48.4467C151.434 48.3256 150.319 48.5001 149.822 47.6474C149.229 46.7644 149.695 45.6695 150.416 45.0109C149.55 44.5836 148.659 44.2116 147.81 43.7576C147.206 43.4443 146.827 42.8283 146.709 42.1892C146.689 41.5163 147.203 40.9413 147.769 40.6155ZM152.62 47.6117C153.339 47.4497 154.487 47.0812 154.397 46.1876C153.453 46.0541 152.778 46.7768 152.62 47.6117ZM150.001 47.3572C150.562 48.0212 151.551 47.7132 152.316 47.7061C152.472 47.286 152.648 46.8747 152.817 46.46C151.859 46.5721 150.405 46.1983 150.001 47.3572Z" fill="#45244F"/>
<path opacity="0.31" d="M143.896 47.4976C144.222 48.263 144.595 49.0143 144.831 49.8136C144.851 50.1305 144.855 50.6094 145.264 50.6877C145.279 50.7909 145.31 50.9992 145.324 51.1025C145.288 51.3553 145.392 51.5208 145.638 51.6027C145.653 51.6989 145.682 51.8947 145.697 51.9908C145.653 52.24 145.754 52.4074 145.998 52.491C146.021 52.5854 146.067 52.7741 146.091 52.8684C146.15 53.1711 146.135 53.6339 146.529 53.7212C146.55 53.8173 146.59 54.0131 146.61 54.111C146.553 54.3638 146.647 54.5418 146.891 54.6415C146.915 54.7323 146.964 54.9139 146.99 55.0047C146.92 55.2593 147.012 55.4373 147.261 55.5352C147.285 55.6242 147.331 55.804 147.355 55.893C147.287 56.1565 147.382 56.331 147.641 56.4182C147.657 56.5143 147.689 56.7101 147.705 56.8063C147.665 57.0555 147.766 57.2211 148.006 57.3065C148.022 57.4026 148.053 57.5931 148.07 57.6893C148.031 57.9403 148.134 58.1076 148.376 58.1948C148.391 58.2927 148.422 58.4868 148.437 58.5829C148.398 58.8268 148.497 58.9941 148.73 59.0831C148.758 59.1775 148.811 59.3644 148.838 59.457C148.89 59.5549 148.991 59.749 149.042 59.8469L149.062 59.9056C149.227 60.7512 149.686 61.4989 149.95 62.3142C149.722 62.1825 149.44 62.1184 149.302 61.8852C148.716 61.0859 148.395 60.1442 147.987 59.2558C146.698 56.0977 145.328 52.9717 144.063 49.8047C144.279 49.7549 144.497 49.7086 144.717 49.6641C144.521 49.0891 144.261 48.5408 144.031 47.9818C143.997 47.8607 143.929 47.6186 143.896 47.4976Z" fill="#1D0A24"/>
<path d="M142.276 48.2062C142.335 48.1991 142.456 48.1831 142.517 48.1742C142.794 48.1386 143.072 48.1065 143.355 48.0727C143.523 48.0496 143.863 48.0051 144.032 47.9819C144.261 48.5409 144.521 49.0892 144.717 49.6642C144.497 49.7087 144.279 49.755 144.063 49.8049C143.863 49.8494 143.667 49.8939 143.472 49.9419C143.212 49.4132 143.061 48.8346 142.742 48.3362C142.625 48.3041 142.392 48.2383 142.276 48.2062Z" fill="#DBCDDF"/>
<path d="M141.015 48.4255C141.433 48.3472 141.851 48.2653 142.276 48.2065C142.392 48.2386 142.625 48.3045 142.742 48.3365C143.061 48.835 143.212 49.4135 143.472 49.9422L143.432 49.9529C142.933 50.074 142.438 50.1968 141.944 50.325C141.702 49.6628 141.473 48.9809 141.015 48.4255Z" fill="#F1EDF2"/>
<path opacity="0.84" d="M144.831 49.814C145.187 49.9457 145.2 50.3765 145.264 50.688C144.855 50.6097 144.851 50.1308 144.831 49.814Z" fill="#56282D"/>
<path opacity="0.8" d="M145.325 51.103C145.559 51.1671 145.664 51.3344 145.638 51.6033C145.392 51.5214 145.288 51.3558 145.325 51.103Z" fill="#451A30"/>
<path opacity="0.79" d="M145.697 51.9907C145.932 52.0584 146.032 52.2239 145.998 52.491C145.754 52.4073 145.653 52.24 145.697 51.9907Z" fill="#441931"/>
<path opacity="0.9" d="M146.091 52.8687C146.487 52.9488 146.48 53.4116 146.53 53.7214C146.135 53.6341 146.15 53.1713 146.091 52.8687Z" fill="#673629"/>
<path opacity="0.87" d="M146.61 54.1113C146.839 54.2128 146.933 54.3891 146.891 54.6418C146.647 54.5422 146.553 54.3641 146.61 54.1113Z" fill="#57262F"/>
<path opacity="0.86" d="M146.99 55.0044C147.21 55.1112 147.302 55.2874 147.261 55.5349C147.012 55.437 146.92 55.259 146.99 55.0044Z" fill="#55252F"/>
<path opacity="0.85" d="M147.355 55.8936C147.569 55.9986 147.665 56.1748 147.641 56.4187C147.382 56.3315 147.287 56.157 147.355 55.8936Z" fill="#54252F"/>
<path opacity="0.85" d="M147.705 56.8066C147.942 56.8707 148.043 57.0381 148.006 57.3069C147.766 57.2214 147.665 57.0559 147.705 56.8066Z" fill="#52232F"/>
<path opacity="0.85" d="M148.07 57.6895C148.307 57.7571 148.408 57.9262 148.376 58.195C148.134 58.1078 148.032 57.9405 148.07 57.6895Z" fill="#50222F"/>
<path opacity="0.84" d="M148.437 58.583C148.679 58.6453 148.778 58.8109 148.73 59.0832C148.497 58.9942 148.398 58.8269 148.437 58.583Z" fill="#4F2130"/>
<path opacity="0.95" d="M148.839 59.4575C148.89 59.5554 148.991 59.7495 149.042 59.8474C148.991 59.7495 148.89 59.5554 148.839 59.4575Z" fill="#602B2F"/>
<path opacity="0.09" d="M141.031 61.1719C142.142 61.3891 143.577 61.2591 144.307 62.2685C144.714 62.7224 144.633 63.3615 144.642 63.9187C144.738 64.6219 143.927 65.1649 144.224 65.877C144.576 66.9736 144.628 68.1236 144.804 69.2522C144.927 70.493 144.27 71.7801 143.181 72.4406C142.48 72.8198 141.673 73.053 141.108 73.6333C140.242 74.3775 140.184 75.6183 139.386 76.4104C138.39 77.4661 136.738 78.0108 135.311 77.5551C134.086 77.2543 133.139 76.3125 132.62 75.2248C132.138 74.0054 132.142 72.6774 132.244 71.3956C132.398 70.6016 132.505 69.7738 132.914 69.0564C133.288 68.3176 133.911 67.7141 134.172 66.9202C134.342 66.5107 134.39 66.0051 134.79 65.731C135.162 65.407 135.637 65.2414 136.072 65.0118C136.528 64.5774 136.912 64.054 137.49 63.7532C137.932 63.4594 138.579 63.4221 138.867 62.9343C139.014 62.5533 139.124 62.1492 139.401 61.8323C139.742 61.2947 140.448 61.2395 141.031 61.1719ZM140.103 62.329C140.088 62.4465 140.057 62.6833 140.041 62.8025C140.055 62.8898 140.083 63.0642 140.098 63.1515C141.057 63.6713 142.075 64.0807 143.056 64.5649C143.476 64.168 143.435 63.5271 143.536 63.0073C143.456 62.9645 143.294 62.8791 143.214 62.8364C143.102 62.8399 142.876 62.847 142.764 62.8506C142.693 62.6192 142.229 62.5943 142.018 62.6815L141.845 62.7082L141.844 62.6014C141.704 62.5907 141.425 62.5693 141.286 62.5587C140.928 62.3628 140.503 62.3379 140.103 62.329ZM137.713 65.4408C137.644 65.7025 137.816 65.9321 137.946 66.144C137.921 66.2472 137.869 66.4537 137.842 66.557C138.089 67.3545 138.388 68.1432 138.757 68.8962C139.12 69.4356 139.347 70.1139 139.965 70.4396C140.198 70.5625 140.437 70.8081 140.734 70.6479C140.86 70.7903 140.906 71.0858 141.161 71.0502C141.733 70.6568 142.251 70.1957 142.801 69.7756C142.971 69.6065 143.298 69.4338 143.125 69.1454C143.153 69.0867 143.206 68.9692 143.232 68.9122C141.785 67.6874 140.395 66.3612 138.893 65.2218C138.797 65.1346 138.606 64.9602 138.511 64.8729L138.605 64.832C138.24 64.6718 137.517 65.0207 137.713 65.4408ZM135.7 66.3843C135.63 66.7902 135.575 67.2014 135.527 67.6127C134.966 68.0577 134.929 68.8232 134.775 69.4605C134.606 70.4521 134.318 71.4259 134.273 72.437C134.084 73.2221 134.148 74.1994 134.768 74.7958C134.79 74.8545 134.832 74.972 134.854 75.0308C135.901 75.1287 136.95 75.2889 138.007 75.2782C138.031 75.1999 138.076 75.045 138.1 74.9667C138.361 74.3436 138.612 73.6671 138.452 72.9889C138.256 72.3391 138.333 71.6537 138.168 70.9986C138.054 70.0248 137.631 69.1258 137.269 68.2215C137.119 67.7996 136.765 67.5005 136.385 67.278C136.321 66.9789 136.25 66.6816 136.167 66.3914C136.164 66.1618 135.668 66.1297 135.7 66.3843Z" fill="#080209"/>
<path d="M141.286 62.5581C141.426 62.5688 141.704 62.5901 141.844 62.6008L141.846 62.7076C141.625 62.7628 141.44 62.713 141.286 62.5581Z" fill="#FFC7FF"/>
<path d="M142.018 62.6813C142.229 62.5938 142.693 62.6188 142.764 62.8509C142.52 62.8706 142.124 62.967 142.018 62.6813Z" fill="#FFC7FF"/>
<path d="M138.893 65.2215C138.63 65.266 137.963 65.0524 138.511 64.8726C138.607 64.9598 138.797 65.1343 138.893 65.2215Z" fill="#FFC7FF"/>
<path d="M135.483 74.0756C136.059 73.8798 136.973 73.8335 137.347 74.3978C136.723 74.3604 135.916 74.6524 135.483 74.0756Z" fill="#FFC7FF"/>
<path d="M142.478 63.4087C142.582 63.5048 142.582 63.5048 142.478 63.4087V63.4087Z" fill="#FFE5FF"/>
<path d="M137.713 65.441C137.517 65.0209 138.24 64.672 138.605 64.8322L138.511 64.8731C137.963 65.0529 138.63 65.2666 138.893 65.2221C140.395 66.3614 141.785 67.6876 143.232 68.9124C143.206 68.9694 143.153 69.0869 143.125 69.1456C142.423 69.6761 141.805 70.3348 141.007 70.73C139.892 68.9765 138.847 67.1839 137.713 65.441ZM140.811 69.1243C140.884 69.2809 140.961 69.4412 141.038 69.6014C140.868 69.9325 141.557 70.1283 141.598 69.742L141.667 69.8097C141.842 69.6227 142.007 69.4305 142.12 69.2026C141.678 69.2685 141.189 69.4554 140.811 69.1243Z" fill="#A05399"/>
<path opacity="0.24" d="M137.946 66.1436C138.893 67.6336 139.813 69.1414 140.734 70.6475C140.437 70.8077 140.199 70.562 139.966 70.4392C139.348 70.1134 139.12 69.4352 138.757 68.8958C138.388 68.1427 138.089 67.3541 137.842 66.5566C137.869 66.4533 137.921 66.2468 137.946 66.1436Z" fill="#16071B"/>
<path opacity="0.25" d="M136.385 67.2778C136.765 67.5004 137.119 67.7994 137.269 68.2213C137.631 69.1257 138.054 70.0247 138.168 70.9985C138.333 71.6536 138.256 72.339 138.452 72.9887C138.612 73.667 138.361 74.3435 138.1 74.9666C137.739 72.8962 137.176 70.865 136.721 68.8142C136.598 68.3032 136.494 67.7905 136.385 67.2778Z" fill="#18071E"/>
<path opacity="0.24" d="M134.775 69.4602C134.929 68.8228 134.966 68.0574 135.527 67.6123C135.503 67.9096 135.487 68.2087 135.463 68.5077C135.195 70.5479 134.951 72.5933 134.748 74.6406L134.768 74.7954C134.148 74.1991 134.084 73.2217 134.273 72.4367C134.319 71.4255 134.606 70.4517 134.775 69.4602Z" fill="#17071C"/>
<path d="M134.748 74.6406C134.951 72.5934 135.195 70.5479 135.463 68.5078C135.509 68.7677 135.283 69.1416 135.538 69.3392C135.83 69.2893 135.681 68.8461 135.775 68.6378C136.09 68.4562 136.413 68.7428 136.721 68.814C137.176 70.8648 137.739 72.896 138.1 74.9664C136.978 74.9041 135.859 74.7973 134.748 74.6406ZM135.483 74.0763C135.916 74.6531 136.723 74.3611 137.346 74.3985C136.972 73.8342 136.059 73.8805 135.483 74.0763Z" fill="#9F5297"/>
<path d="M140.811 69.124C141.189 69.4551 141.679 69.2682 142.121 69.2024C142.007 69.4302 141.842 69.6225 141.668 69.8094L141.598 69.7418C141.444 69.5869 141.257 69.5406 141.038 69.6011C140.961 69.4409 140.884 69.2807 140.811 69.124Z" fill="#DB73D2"/>
<path d="M141.038 69.6009C141.257 69.5404 141.444 69.5866 141.598 69.7415C141.557 70.1278 140.868 69.932 141.038 69.6009Z" fill="#FFB9FF"/>
</svg>
