<svg width="51" height="44" viewBox="0 0 51 44" fill="none" xmlns="http://www.w3.org/2000/svg">
<path d="M14.0577 25.1429C16.6731 25.1429 18.7436 26.0251 20.2692 27.7895C21.9038 29.4436 22.7212 31.6491 22.7212 34.406C22.7212 37.3835 21.7404 39.7544 19.7788 41.5188C17.9263 43.1729 15.3654 44 12.0962 44C8.28205 44 5.28526 42.5113 3.10577 39.5338C1.03526 36.5564 0 32.3108 0 26.797C0 21.8346 1.08974 17.2581 3.26923 13.0677C5.44872 8.76691 8.71795 4.46616 13.0769 0.165411C13.1859 0.0551371 13.3494 0 13.5673 0C13.8942 0 14.1667 0.165411 14.3846 0.496234C14.6026 0.827064 14.6026 1.10275 14.3846 1.3233C9.04487 6.83709 6.375 13.3434 6.375 20.8421C6.375 23.9298 6.91987 26.1905 8.00962 27.6241C8.99039 25.9699 11.0064 25.1429 14.0577 25.1429ZM42.3365 25.1429C44.9519 25.1429 47.0224 26.0251 48.5481 27.7895C50.1827 29.4436 51 31.6491 51 34.406C51 37.3835 50.0192 39.7544 48.0577 41.5188C46.2051 43.1729 43.6442 44 40.375 44C36.5609 44 33.5641 42.5113 31.3846 39.5338C29.3141 36.5564 28.2788 32.3108 28.2788 26.797C28.2788 21.8346 29.3686 17.2581 31.5481 13.0677C33.7276 8.76691 36.9968 4.46616 41.3558 0.165411C41.4647 0.0551371 41.6282 0 41.8462 0C42.1731 0 42.4455 0.165411 42.6635 0.496234C42.8814 0.827064 42.8814 1.10275 42.6635 1.3233C37.3237 6.83709 34.6539 13.3434 34.6539 20.8421C34.6539 23.9298 35.1987 26.1905 36.2885 27.6241C37.2692 25.9699 39.2853 25.1429 42.3365 25.1429Z" fill="#434449"/>
</svg>
