<svg width="40" height="40" viewBox="0 0 40 40" fill="none" xmlns="http://www.w3.org/2000/svg">
<circle cx="20" cy="20" r="20" fill="white"/>
<mask id="path-2-outside-1_947_1163" maskUnits="userSpaceOnUse" x="11.125" y="10" width="17" height="20" fill="black">
<rect fill="white" x="11.125" y="10" width="17" height="20"/>
<path fill-rule="evenodd" clip-rule="evenodd" d="M20.0005 11C19.7022 11 19.4161 11.1185 19.2051 11.3295C18.9942 11.5404 18.8757 11.8265 18.8757 12.1249L18.8757 25.1577L14.0477 20.3275C13.9431 20.2229 13.819 20.1399 13.6823 20.0833C13.5457 20.0267 13.3992 19.9976 13.2513 19.9976C13.1034 19.9976 12.9569 20.0267 12.8203 20.0833C12.6836 20.1399 12.5595 20.2229 12.4549 20.3275C12.3503 20.432 12.2673 20.5562 12.2107 20.6929C12.1541 20.8295 12.125 20.976 12.125 21.1239C12.125 21.2718 12.1541 21.4182 12.2107 21.5549C12.2673 21.6915 12.3503 21.8157 12.4549 21.9203L19.2041 28.6695C19.3086 28.7743 19.4328 28.8574 19.5694 28.9141C19.7061 28.9708 19.8526 29 20.0005 29C20.1485 29 20.295 28.9708 20.4317 28.9141C20.5683 28.8574 20.6925 28.7743 20.797 28.6695L27.5462 21.9203C27.7574 21.7091 27.8761 21.4226 27.8761 21.1239C27.8761 20.8252 27.7574 20.5387 27.5462 20.3275C27.335 20.1162 27.0485 19.9976 26.7498 19.9976C26.4511 19.9976 26.1646 20.1162 25.9534 20.3275L21.1254 25.1577L21.1254 12.1249C21.1254 11.8265 21.0069 11.5404 20.7959 11.3295C20.585 11.1185 20.2989 11 20.0005 11Z"/>
</mask>
<path fill-rule="evenodd" clip-rule="evenodd" d="M20.0005 11C19.7022 11 19.4161 11.1185 19.2051 11.3295C18.9942 11.5404 18.8757 11.8265 18.8757 12.1249L18.8757 25.1577L14.0477 20.3275C13.9431 20.2229 13.819 20.1399 13.6823 20.0833C13.5457 20.0267 13.3992 19.9976 13.2513 19.9976C13.1034 19.9976 12.9569 20.0267 12.8203 20.0833C12.6836 20.1399 12.5595 20.2229 12.4549 20.3275C12.3503 20.432 12.2673 20.5562 12.2107 20.6929C12.1541 20.8295 12.125 20.976 12.125 21.1239C12.125 21.2718 12.1541 21.4182 12.2107 21.5549C12.2673 21.6915 12.3503 21.8157 12.4549 21.9203L19.2041 28.6695C19.3086 28.7743 19.4328 28.8574 19.5694 28.9141C19.7061 28.9708 19.8526 29 20.0005 29C20.1485 29 20.295 28.9708 20.4317 28.9141C20.5683 28.8574 20.6925 28.7743 20.797 28.6695L27.5462 21.9203C27.7574 21.7091 27.8761 21.4226 27.8761 21.1239C27.8761 20.8252 27.7574 20.5387 27.5462 20.3275C27.335 20.1162 27.0485 19.9976 26.7498 19.9976C26.4511 19.9976 26.1646 20.1162 25.9534 20.3275L21.1254 25.1577L21.1254 12.1249C21.1254 11.8265 21.0069 11.5404 20.7959 11.3295C20.585 11.1185 20.2989 11 20.0005 11Z" fill="#5B2222"/>
<path d="M18.8757 12.1249H18.6757H18.8757ZM18.8757 25.1577L18.7342 25.2991L19.0757 25.6407V25.1577H18.8757ZM14.0477 20.3275L14.1892 20.1861L14.1891 20.186L14.0477 20.3275ZM12.125 21.1239H12.325H12.125ZM12.4549 21.9203L12.3135 22.0617L12.4549 21.9203ZM19.2041 28.6695L19.3457 28.5283L19.3456 28.5281L19.2041 28.6695ZM20.0005 29L20.0005 28.8L20.0005 29ZM20.797 28.6695L20.6555 28.5281L20.6554 28.5283L20.797 28.6695ZM27.5462 21.9203L27.4048 21.7789L27.5462 21.9203ZM25.9534 20.3275L25.812 20.186L25.8119 20.1861L25.9534 20.3275ZM21.1254 25.1577H20.9254L20.9254 25.6407L21.2669 25.2991L21.1254 25.1577ZM21.1254 12.1249H20.9254H21.1254ZM20.0005 10.8C19.6492 10.8 19.3122 10.9396 19.0637 11.188L19.3466 11.4709C19.52 11.2974 19.7552 11.2 20.0005 11.2V10.8ZM19.0637 11.188C18.8152 11.4365 18.6757 11.7735 18.6757 12.1249L19.0757 12.1249C19.0757 11.8796 19.1731 11.6443 19.3466 11.4709L19.0637 11.188ZM18.6757 12.1249L18.6757 25.1577H19.0757L19.0757 12.1249L18.6757 12.1249ZM19.0171 25.0163L14.1892 20.1861L13.9063 20.4688L18.7342 25.2991L19.0171 25.0163ZM14.1891 20.186C14.066 20.0629 13.9198 19.9652 13.7588 19.8985L13.6058 20.2681C13.7182 20.3146 13.8203 20.3829 13.9063 20.4689L14.1891 20.186ZM13.7588 19.8985C13.5979 19.8319 13.4255 19.7976 13.2513 19.7976L13.2513 20.1976C13.3729 20.1976 13.4934 20.2215 13.6058 20.2681L13.7588 19.8985ZM13.2513 19.7976C13.0771 19.7976 12.9047 19.8319 12.7437 19.8985L12.8968 20.2681C13.0092 20.2215 13.1296 20.1976 13.2513 20.1976L13.2513 19.7976ZM12.7437 19.8985C12.5828 19.9652 12.4366 20.0629 12.3135 20.186L12.5963 20.4689C12.6823 20.3829 12.7844 20.3146 12.8968 20.2681L12.7437 19.8985ZM12.3135 20.186C12.1903 20.3092 12.0926 20.4554 12.026 20.6163L12.3955 20.7694C12.4421 20.657 12.5103 20.5549 12.5963 20.4689L12.3135 20.186ZM12.026 20.6163C11.9593 20.7772 11.925 20.9497 11.925 21.1239H12.325C12.325 21.0022 12.349 20.8818 12.3955 20.7694L12.026 20.6163ZM11.925 21.1239C11.925 21.298 11.9593 21.4705 12.026 21.6314L12.3955 21.4783C12.349 21.366 12.325 21.2455 12.325 21.1239H11.925ZM12.026 21.6314C12.0926 21.7923 12.1903 21.9385 12.3135 22.0617L12.5963 21.7789C12.5103 21.6928 12.4421 21.5907 12.3955 21.4783L12.026 21.6314ZM12.3135 22.0617L19.0627 28.8109L19.3456 28.5281L12.5963 21.7789L12.3135 22.0617ZM19.0625 28.8108C19.1856 28.9342 19.3318 29.032 19.4928 29.0988L19.6461 28.7294C19.5337 28.6827 19.4316 28.6144 19.3457 28.5283L19.0625 28.8108ZM19.4928 29.0988C19.6537 29.1656 19.8263 29.2 20.0005 29.2L20.0005 28.8C19.8789 28.8 19.7584 28.776 19.6461 28.7294L19.4928 29.0988ZM20.0005 29.2C20.1748 29.2 20.3474 29.1656 20.5083 29.0988L20.355 28.7294C20.2427 28.776 20.1222 28.8 20.0005 28.8L20.0005 29.2ZM20.5083 29.0988C20.6693 29.032 20.8155 28.9341 20.9386 28.8108L20.6554 28.5283C20.5694 28.6144 20.4674 28.6827 20.355 28.7294L20.5083 29.0988ZM20.9384 28.8109L27.6876 22.0617L27.4048 21.7789L20.6555 28.5281L20.9384 28.8109ZM27.6876 22.0617C27.9363 21.813 28.0761 21.4756 28.0761 21.1239H27.6761C27.6761 21.3695 27.5785 21.6051 27.4048 21.7789L27.6876 22.0617ZM28.0761 21.1239C28.0761 20.7721 27.9363 20.4348 27.6876 20.186L27.4048 20.4689C27.5785 20.6426 27.6761 20.8782 27.6761 21.1239H28.0761ZM27.6876 20.186C27.4389 19.9373 27.1015 19.7976 26.7498 19.7976L26.7498 20.1976C26.9955 20.1976 27.2311 20.2952 27.4048 20.4689L27.6876 20.186ZM26.7498 19.7976C26.398 19.7976 26.0607 19.9373 25.812 20.186L26.0948 20.4689C26.2685 20.2952 26.5041 20.1976 26.7498 20.1976L26.7498 19.7976ZM25.8119 20.1861L20.984 25.0163L21.2669 25.2991L26.0948 20.4688L25.8119 20.1861ZM21.3254 25.1577L21.3254 12.1249H20.9254L20.9254 25.1577H21.3254ZM21.3254 12.1249C21.3254 11.7735 21.1858 11.4365 20.9374 11.188L20.6545 11.4709C20.828 11.6443 20.9254 11.8796 20.9254 12.1249H21.3254ZM20.9374 11.188C20.6889 10.9396 20.3519 10.8 20.0005 10.8V11.2C20.2458 11.2 20.4811 11.2974 20.6545 11.4709L20.9374 11.188Z" fill="#5B2222" mask="url(#path-2-outside-1_947_1163)"/>
</svg>
