<svg width="45" height="46" viewBox="0 0 45 46" fill="none" xmlns="http://www.w3.org/2000/svg">
<ellipse cx="22.5" cy="22.5015" rx="22.5" ry="22.5015" fill="#FDF6D6"/>
<path d="M22.3619 14.6479C21.9349 16.2196 21.1036 17.626 19.9635 18.6925L19.9462 18.7086L19.9421 18.7109L19.917 18.7332C19.8931 18.7548 19.8616 18.7833 19.8302 18.8119L19.7443 18.8902L19.7162 18.9159L19.7084 18.923L19.7063 18.9249L19.7062 18.9251L19.7058 18.9254L19.7057 18.9255L19.7056 18.9256L19.7056 18.9256L22.3619 14.6479ZM22.3619 14.6479C23.1151 15.5174 23.6202 16.6207 23.8056 17.8184C24.0097 19.1369 23.8143 20.4924 23.2512 21.6736L23.2509 21.6742C23.1592 21.8683 23.122 22.0868 23.1429 22.3026C23.1639 22.5183 23.2423 22.7243 23.3704 22.8941C23.4988 23.0641 23.672 23.1911 23.8701 23.2557C24.0685 23.3203 24.2802 23.3184 24.4775 23.2503L24.4778 23.2502C25.7125 22.8218 26.8059 22.0137 27.633 20.9266M20.9266 24.4975L20.9268 24.3068C20.9266 24.3068 20.9263 24.3068 20.9261 24.3068C20.926 24.3068 20.9259 24.3068 20.9258 24.3068L20.9266 24.4975Z" fill="#5B2222" stroke="#5B2222" stroke-width="0.381356"/>
</svg>
