<svg width="14" height="13" viewBox="0 0 14 13" fill="none" xmlns="http://www.w3.org/2000/svg">
<path fill-rule="evenodd" clip-rule="evenodd" d="M0 6.00063C0 5.77332 0.0902992 5.55532 0.251033 5.39459C0.411766 5.23385 0.629767 5.14355 0.857078 5.14355H10.7872L7.10689 1.46497C6.94596 1.30404 6.85554 1.08576 6.85554 0.858161C6.85554 0.630563 6.94596 0.412286 7.10689 0.25135C7.26783 0.0904133 7.48611 0 7.71371 0C7.9413 0 8.15958 0.0904133 8.32052 0.25135L13.463 5.39382C13.5428 5.47344 13.6061 5.56801 13.6493 5.67214C13.6925 5.77627 13.7148 5.8879 13.7148 6.00063C13.7148 6.11337 13.6925 6.22499 13.6493 6.32912C13.6061 6.43325 13.5428 6.52783 13.463 6.60744L8.32052 11.7499C8.15958 11.9108 7.9413 12.0013 7.71371 12.0013C7.48611 12.0013 7.26783 11.9108 7.10689 11.7499C6.94596 11.589 6.85554 11.3707 6.85554 11.1431C6.85554 10.9155 6.94596 10.6972 7.10689 10.5363L10.7872 6.85771H0.857078C0.629767 6.85771 0.411766 6.76741 0.251033 6.60668C0.0902992 6.44594 0 6.22794 0 6.00063Z" fill="#5B2222"/>
</svg>
