<svg width="14" height="13" viewBox="0 0 14 13" fill="none" xmlns="http://www.w3.org/2000/svg">
<path fill-rule="evenodd" clip-rule="evenodd" d="M13.7148 6.00063C13.7148 5.77332 13.6245 5.55532 13.4638 5.39459C13.3031 5.23385 13.0851 5.14355 12.8578 5.14355H2.92765L6.60795 1.46497C6.76889 1.30404 6.8593 1.08576 6.8593 0.858161C6.8593 0.630563 6.76889 0.412286 6.60795 0.25135C6.44701 0.0904133 6.22874 0 6.00114 0C5.77354 0 5.55526 0.0904133 5.39433 0.25135L0.251856 5.39382C0.172039 5.47344 0.108714 5.56801 0.0655058 5.67214C0.022298 5.77627 5.70631e-05 5.8879 5.70631e-05 6.00063C5.70631e-05 6.11337 0.022298 6.22499 0.0655058 6.32912C0.108714 6.43325 0.172039 6.52783 0.251856 6.60744L5.39433 11.7499C5.55526 11.9108 5.77354 12.0013 6.00114 12.0013C6.22874 12.0013 6.44701 11.9108 6.60795 11.7499C6.76889 11.589 6.8593 11.3707 6.8593 11.1431C6.8593 10.9155 6.76889 10.6972 6.60795 10.5363L2.92765 6.85771H12.8578C13.0851 6.85771 13.3031 6.76741 13.4638 6.60668C13.6245 6.44594 13.7148 6.22794 13.7148 6.00063Z" fill="#5B2222"/>
</svg>
