<svg width="72" height="48" viewBox="0 0 72 48" fill="none" xmlns="http://www.w3.org/2000/svg">
<path d="M21.6355 1.95636L21.4304 1.57182L21.0215 1.72248C14.9891 3.94494 10.0588 7.52127 6.2427 12.4492C2.41519 17.235 0.5 22.7453 0.5 28.9609C0.5 33.9252 2.02487 38.1919 5.08313 41.7331L5.09108 41.7423L5.09947 41.7511C8.31681 45.1293 12.1957 46.9104 16.7143 47.0719C21.0791 47.2336 24.8147 45.7724 27.888 42.6991C31.1116 39.4755 32.7308 35.5916 32.7308 31.0743C32.7308 27.5649 31.9345 24.7764 30.273 22.7779C28.6687 20.6944 26.8115 19.155 24.6985 18.1782C22.7949 17.2272 21.0239 16.6574 19.3902 16.4902L17.7524 16.1626L17.8104 16.063L19.0356 13.9628C20.2109 12.2072 22.217 10.7765 25.1243 9.70535L25.6626 9.50704L25.3926 9.00089L21.6355 1.95636ZM60.3805 1.95636L60.1754 1.57182L59.7665 1.72248C53.7341 3.94494 48.8038 7.52128 44.9876 12.4493C41.1601 17.235 39.245 22.7453 39.245 28.9609C39.245 33.9252 40.7698 38.1919 43.8281 41.7331L43.836 41.7423L43.8444 41.7511C47.0618 45.1293 50.9407 46.9104 55.4593 47.0719C59.8241 47.2336 63.5597 45.7724 66.6329 42.6991C69.8566 39.4755 71.4757 35.5916 71.4757 31.0743C71.4757 27.5648 70.6795 24.7763 69.018 22.7779C67.4136 20.6944 65.5564 19.155 63.4434 18.1782C61.5398 17.2272 59.7688 16.6574 58.1351 16.4902L56.4973 16.1626L56.5554 16.063L57.7805 13.9628C58.9559 12.2071 60.962 10.7764 63.8692 9.70535L64.4075 9.50704L64.1376 9.00089L60.3805 1.95636Z" stroke="black"/>
</svg>
