<svg width="41" height="42" viewBox="0 0 41 42" fill="none" xmlns="http://www.w3.org/2000/svg">
<rect y="0.09375" width="41" height="41.6406" rx="20.5" fill="#3EC200"/>
<path d="M21.1767 11.6251C16.2551 11.6251 12.244 15.6161 12.244 20.5131C12.244 22.0826 12.6586 23.6073 13.4338 24.9526L12.1719 29.5625L16.9041 28.3248C18.2111 29.0333 19.6804 29.41 21.1767 29.41C26.0982 29.41 30.1094 25.4189 30.1094 20.522C30.1094 18.1453 29.1809 15.9121 27.4954 14.235C26.669 13.4044 25.6847 12.7458 24.5998 12.2978C23.5149 11.8497 22.3513 11.621 21.1767 11.6251ZM21.1857 13.1228C23.1687 13.1228 25.0256 13.8941 26.4317 15.2933C27.1218 15.9797 27.669 16.7949 28.0417 17.6922C28.4145 18.5895 28.6056 19.5511 28.6041 20.522C28.6041 24.5938 25.269 27.9033 21.1767 27.9033C19.8426 27.9033 18.5356 27.5535 17.3999 26.8719L17.1295 26.7194L14.3172 27.4548L15.0653 24.7284L14.885 24.4414C14.1404 23.2653 13.7466 21.9031 13.7493 20.5131C13.7583 16.4413 17.0844 13.1228 21.1857 13.1228ZM18.0128 16.4054C17.8686 16.4054 17.6252 16.4592 17.4179 16.6834C17.2196 16.9076 16.6337 17.4547 16.6337 18.5399C16.6337 19.6341 17.4359 20.6835 17.5351 20.8359C17.6613 20.9884 19.1215 23.2306 21.366 24.1813C21.8978 24.4234 22.3124 24.558 22.6369 24.6566C23.1687 24.827 23.6555 24.8001 24.0431 24.7463C24.4757 24.6835 25.3591 24.2082 25.5484 23.688C25.7377 23.1678 25.7377 22.7283 25.6836 22.6297C25.6205 22.54 25.4763 22.4862 25.2509 22.3875C25.0256 22.262 23.9259 21.7238 23.7276 21.6521C23.5203 21.5803 23.3941 21.5445 23.2228 21.7597C23.0786 21.9839 22.6459 22.4862 22.5197 22.6297C22.3845 22.7821 22.2583 22.8001 22.042 22.6925C21.8076 22.5759 21.0865 22.3427 20.2392 21.5893C19.5722 20.9974 19.1305 20.2709 18.9953 20.0467C18.8872 19.8314 18.9863 19.6969 19.0945 19.5982C19.1936 19.4996 19.3379 19.3382 19.428 19.2036C19.5452 19.0781 19.5812 18.9794 19.6533 18.8359C19.7255 18.6834 19.6894 18.5579 19.6353 18.4503C19.5812 18.3516 19.1305 17.2395 18.9413 16.8C18.761 16.3695 18.5807 16.4233 18.4365 16.4144C18.3103 16.4144 18.1661 16.4054 18.0128 16.4054Z" fill="white"/>
</svg>
