<svg width="165" height="81" viewBox="0 0 165 81" fill="none" xmlns="http://www.w3.org/2000/svg">
<path opacity="0.09" d="M9.08198 1.25082C9.88528 0.386997 11.1141 0.187088 12.2255 0.0238593C13.7001 -0.0825143 15.204 0.163246 16.5263 0.832666C17.2049 1.19947 17.5313 1.92575 17.9495 2.53464C18.6097 3.44982 18.6281 4.6181 18.7986 5.68917C18.7785 7.51953 18.9252 9.36823 18.6263 11.1821C18.6501 13.1115 18.6648 15.1051 17.9623 16.9318C17.7533 17.5755 17.1975 17.9937 16.8032 18.5164C16.4346 19.0409 15.7138 19.1014 15.2957 19.5746C14.8427 20.0734 14.1806 20.3596 13.8083 20.9299C13.8174 21.0088 13.8394 21.1628 13.8486 21.2399C13.7111 21.3738 13.579 21.5131 13.447 21.6544C12.5978 22.1459 12.4052 23.1876 12.2824 24.0771C12.1008 25.0565 11.226 25.5719 10.7179 26.3531C10.2888 26.6796 9.78808 26.9327 9.27088 27.0849C8.32819 27.1363 7.37266 27.162 6.43364 27.0574C5.54414 26.7786 4.59044 26.4082 4.05491 25.5957C3.55789 24.8602 3.04069 24.0331 3.07187 23.1106C3.19108 21.9937 3.5854 20.9281 3.89351 19.8552C3.82382 19.448 3.67343 19.039 3.38182 18.7383C2.60969 17.924 1.75137 17.1885 1.01593 16.3412C0.221792 15.1124 -0.291736 13.5626 0.181443 12.1174C0.63995 9.76071 2.95816 8.19812 5.25986 8.08257C6.076 8.13393 6.80778 8.59794 7.63126 8.64195C7.95772 8.55759 8.07143 8.19078 8.04392 7.89183C8.03841 6.8446 8.11361 5.78637 7.86968 4.75932C7.99623 4.24396 8.01274 3.71026 8.0916 3.19123C8.40705 2.53831 8.63814 1.83038 9.08198 1.25082ZM10.1842 2.01011L10.0687 2.27421L10.0247 2.11832L10.0027 2.35124C9.7514 2.74005 9.63218 3.20039 9.69821 3.66257C9.88711 5.14996 10.076 6.64837 10.5474 8.07891C11.3745 10.7914 12.187 13.5186 13.3388 16.1138C13.5515 16.6677 13.9311 17.2509 14.5474 17.3939C14.6538 17.6947 14.7051 18.2284 15.1581 18.1459C15.4405 18.0909 15.4314 17.7901 15.4956 17.5718C15.4956 17.4985 15.4937 17.3499 15.4937 17.2766C15.8018 17.1225 15.9889 16.8199 16.0458 16.4861C16.4823 14.4338 16.6198 12.3357 16.8344 10.2541C16.7812 8.82535 17.0985 7.40398 16.9041 5.97894C16.8124 4.65294 16.9096 3.15087 16.0366 2.04679C15.2351 1.40305 14.1347 1.39938 13.1553 1.41222C12.1503 1.42873 10.9839 1.25266 10.1842 2.01011ZM4.87288 9.49661C4.01456 10.3183 3.15807 11.1436 2.30341 11.9707C2.06866 12.2275 1.62299 12.4787 1.78071 12.8951C1.79722 12.9978 1.83023 13.2068 1.84674 13.3095C2.13652 14.3476 3.00218 15.0904 3.73395 15.8332C5.37357 17.1537 7.04987 18.4393 8.84722 19.5397C9.32774 19.8295 9.92013 20.244 10.485 19.9139C11.0114 20.4989 11.5946 19.7378 12.0494 19.4444C12.5024 18.94 12.308 18.1495 12.1155 17.5645C11.5304 16.2678 10.6684 15.1197 9.76607 14.0267C8.75919 12.719 7.81283 11.349 6.61704 10.2027C6.30709 9.93127 6.03749 9.4691 5.57165 9.50578C5.44327 9.23434 5.03795 9.29119 4.87288 9.49661ZM5.53864 21.0913C4.82887 21.062 5.01594 22.0835 4.8307 22.542C4.70966 22.918 4.7445 23.3123 4.81236 23.6956C5.1865 23.835 5.58082 23.8919 5.97697 23.9249C7.45153 24.1065 8.92608 24.2825 10.4025 24.4458C10.6849 24.5411 10.9875 24.3009 10.9527 24.0056C10.9325 23.7268 11.1141 23.2848 10.7693 23.1454C10.5675 22.7328 10.2484 22.3825 9.8486 22.1569C8.86556 21.6048 7.82934 21.128 6.72892 20.8602C6.32543 20.8071 5.83758 20.7465 5.53864 21.0913Z" fill="#08030A"/>
<path opacity="0.25" d="M10.1843 2.01017C10.9839 1.25272 12.1503 1.42879 13.1554 1.41228C14.1348 1.39944 15.2352 1.40311 16.0366 2.04685C16.9096 3.15094 16.8124 4.653 16.9041 5.97901C17.0985 7.40404 16.7813 8.82541 16.8344 10.2541C16.6199 12.3357 16.4823 14.4339 16.0458 16.4861C15.989 16.8199 15.8019 17.1226 15.4938 17.2766C15.6277 12.3724 15.8624 7.4719 16.0091 2.56955C16.0623 2.27611 15.7615 2.09087 15.5084 2.0982C13.7349 2.01567 11.9578 2.01017 10.1843 2.01017Z" fill="#17071D"/>
<path d="M10.1843 2.01001C11.9578 2.01001 13.7349 2.01551 15.5084 2.09804C15.7615 2.0907 16.0623 2.27594 16.0091 2.56939C15.8624 7.47174 15.6277 12.3723 15.4938 17.2764C15.4938 17.3498 15.4956 17.4984 15.4956 17.5717C15.2994 17.7111 15.0756 17.8688 14.828 17.7368C14.4704 17.0509 14.3438 16.2714 14.0889 15.5451C13.2636 12.9536 12.5502 10.3237 11.6515 7.75785C11.6442 7.73401 11.6295 7.68815 11.6221 7.66431C11.2278 5.83579 10.5162 4.09163 10.0687 2.27411L10.1843 2.01001ZM14.8023 16.7171L14.9876 16.662C15.0866 16.044 14.9051 15.4296 14.685 14.8592C14.5144 15.4828 14.8207 16.088 14.8023 16.7171Z" fill="#E0D600"/>
<path opacity="0.72" d="M10.0247 2.11816L10.0687 2.27406C10.5162 4.09158 11.2278 5.83573 11.6221 7.66426C11.2333 6.98567 11.1068 6.20437 10.861 5.4726C10.5731 4.4327 10.1824 3.41849 10.0027 2.35108L10.0247 2.11816Z" fill="#5A2F23"/>
<path opacity="0.24" d="M9.69814 3.66277C9.63211 3.20059 9.75133 2.74025 10.0026 2.35144C10.1823 3.41884 10.573 4.43306 10.8609 5.47295C11.1067 6.20473 11.2332 6.98603 11.622 7.66462C11.6294 7.68846 11.644 7.73431 11.6514 7.75815C11.6991 8.01492 11.7541 8.27168 11.8164 8.52661C12.7206 11.4831 13.6505 14.434 14.5473 17.3941C13.9311 17.2511 13.5514 16.6679 13.3387 16.114C12.1869 13.5188 11.3744 10.7916 10.5473 8.07911C10.0759 6.64857 9.88704 5.15016 9.69814 3.66277Z" fill="#16071C"/>
<path opacity="0.07" d="M117.935 5.36623C118.867 4.83436 119.964 4.77568 120.998 4.59961C122.368 4.65646 123.672 5.15165 125.025 5.32772C126.715 5.06178 128.428 4.81603 130.141 4.99026C131.668 5.37724 132.976 6.41163 134.57 6.57485C135.182 6.50516 135.767 6.27224 136.387 6.2484C137.845 6.26124 139.186 7.1269 140.088 8.22548C141.143 9.79724 141.359 11.7431 141.519 13.5827C141.495 14.7693 141.363 16.1301 142.227 17.082C143.014 17.7661 144.136 17.8963 144.851 18.6904C145.777 19.8037 146.194 21.3058 146.093 22.7418C146.194 24.3081 146.546 25.9312 147.544 27.1893C148.16 28.3429 148.976 29.4268 150.117 30.1073C151.256 30.7345 152.602 30.8372 153.752 31.4388C154.262 31.7744 154.757 32.1412 155.23 32.5282C155.854 33.2783 156.455 34.0743 156.782 35.0041C157.543 36.8455 158.005 38.7859 158.662 40.6621C159.39 43.2481 160.279 45.7882 161.244 48.2953C162.176 50.4448 163.05 52.6163 163.984 54.7657C164.677 56.3925 165.154 58.1624 164.954 59.945C164.631 61.8286 163.285 63.4187 161.589 64.244C160.839 64.598 160.121 65.0216 159.342 65.3114C156.835 66.3274 154.392 67.7855 151.617 67.8405C150.781 67.7286 149.921 67.5984 149.174 67.1803C148.153 66.6594 147.423 65.7497 146.638 64.9446C146.021 63.9964 145.614 62.9217 145.343 61.8267C145.044 60.6731 144.523 59.5966 144.099 58.4888C143.25 56.3082 142.333 54.1532 141.51 51.9633C141.618 51.934 141.834 51.8753 141.944 51.846C142.438 51.7139 142.933 51.5874 143.432 51.4627C143.971 52.3852 144.261 53.4251 144.697 54.3989C145.317 56.0147 145.959 57.6213 146.649 59.2096C147.237 60.7392 147.872 62.2541 148.631 63.7085C149.207 64.697 150.199 65.6012 151.413 65.5737C153.477 65.6727 155.346 64.6713 157.192 63.8955C158.957 63.0299 160.862 62.3293 162.298 60.9391C162.981 60.1339 163.456 59.0262 163.175 57.9643C162.704 56.222 161.888 54.6043 161.235 52.928C160.402 51.1014 159.722 49.2123 158.907 47.3783C157.526 43.7011 156.569 39.8844 155.243 36.1889C154.737 34.9491 154.284 33.5552 153.147 32.7391C151.995 32.0238 150.584 32.0733 149.301 31.7854C148.479 31.5616 147.931 30.8537 147.47 30.1843C146.271 28.3686 144.875 26.6428 144.105 24.585C143.749 23.6625 144.136 22.7161 144.36 21.8175C144.433 20.4713 143.426 19.2608 142.289 18.6556C141.387 18.1549 140.396 18.6611 139.452 18.6116C139.149 17.5607 139.456 16.4731 139.423 15.4039C139.703 13.7312 139.54 12.0017 139.074 10.3786C138.665 9.34973 138.267 8.08242 137.123 7.66243C136.569 7.37816 135.91 7.45335 135.395 7.78531C134.364 8.50058 133.933 9.72021 133.359 10.7784C132.888 9.74039 132.418 8.68949 131.769 7.75047C131.118 6.80044 129.999 6.22089 128.862 6.15486C127.679 6.2594 126.568 6.72158 125.502 7.21676C124.987 7.44602 124.308 7.63676 123.833 7.22227C123.103 6.65372 122.377 5.87059 121.365 5.95862C119.808 5.81557 118.485 6.80411 117.343 7.72662C115.652 9.32773 114.511 11.3983 113.552 13.4946C113.324 14.0082 113.055 14.54 112.583 14.8702C111.82 15.1673 110.946 15.0352 110.205 15.4112C108.723 16.0824 107.798 17.5295 107.155 18.9655C106.584 20.4639 106.408 22.0687 106.3 23.657C106.324 24.2714 106.438 24.8803 106.449 25.4983C106.568 28.0311 107.665 30.4759 109.376 32.3338C110.595 33.4727 112.299 34.2705 113.994 33.8964C115.821 33.3957 117.123 31.5708 117.174 29.7038C117.145 28.5923 116.716 27.5359 116.657 26.43C116.829 25.491 117.706 24.9261 118.157 24.1283C118.828 23.1875 119.048 21.9183 120.05 21.2342C121.115 20.4291 122.529 20.6785 123.767 20.4456C124.514 20.3539 125.198 20.0348 125.891 19.7633C126.188 19.679 126.617 19.4974 126.834 19.8202C127.558 20.7042 128.45 21.4506 129.477 21.9587C130.577 22.5364 131.854 22.7656 132.862 23.5176C133.233 24.2237 133.345 25.0453 133.763 25.7368C134.291 26.6336 134.872 27.5488 135.731 28.1687C136.626 28.8069 137.842 28.7207 138.705 29.4177C139.419 29.9514 139.817 30.784 140.197 31.569C140.76 32.9592 141.501 34.3897 141.299 35.9413C140.915 37.6506 139.527 39.0738 139.654 40.9078C139.991 43.989 141.59 46.718 142.517 49.6305C142.456 49.6396 142.335 49.6561 142.276 49.6635C141.851 49.724 141.433 49.8084 141.015 49.8891C140.805 49.9276 140.598 49.9698 140.393 50.0138C139.547 47.4315 138.108 45.0216 137.772 42.2907C137.548 40.6804 137.926 39.0445 138.583 37.5754C139.192 36.2127 139.144 34.6061 138.572 33.2398C138.298 32.5777 138.001 31.8697 137.424 31.4186C136.521 30.8335 135.474 30.5511 134.498 30.1201C134.241 30.0045 133.955 29.9734 133.684 29.9385C133.449 29.5919 133.202 29.2581 132.928 28.9463C132.963 28.8601 133.035 28.6896 133.07 28.6034C132.497 27.8331 132.347 26.8408 131.734 26.0999C131.113 25.17 129.979 24.8528 128.992 24.4676C128.035 24.1723 127.3 23.4626 126.482 22.9215C125.875 22.5602 125.154 22.5052 124.464 22.5309C123.571 22.5602 122.628 22.4172 121.788 22.8023C120.921 23.1875 120.36 24.0183 120.011 24.8693C119.336 25.933 118.704 27.127 118.768 28.4255C118.762 29.9605 118.955 31.5891 118.223 33.0068C117.244 34.7473 115.34 36.1064 113.275 35.9303C111.898 36.0642 110.491 35.7194 109.357 34.9216C107.523 33.5112 106.034 31.5928 105.378 29.3516C104.914 28.0605 104.715 26.6923 104.629 25.3314C104.439 24.4786 104.461 23.5965 104.644 22.7455C104.793 20.1632 105.499 17.4231 107.366 15.5341C108.389 14.4538 109.933 14.2356 111.125 13.4176C112.607 12.2145 112.974 10.2062 114.205 8.79586C115.157 7.37633 116.457 6.21539 117.935 5.36623Z" fill="#060207"/>
<path opacity="0.19" d="M117.343 7.72658C118.485 6.80407 119.808 5.81553 121.365 5.95858C122.377 5.87055 123.103 6.65368 123.833 7.22223C124.308 7.63672 124.987 7.44598 125.502 7.21672C126.568 6.72154 127.679 6.25936 128.862 6.15482C129.999 6.22085 131.118 6.8004 131.769 7.75043C132.418 8.68945 132.888 9.74035 133.359 10.7784C133.933 9.72017 134.364 8.50054 135.395 7.78527C135.91 7.45331 136.569 7.37812 137.123 7.66239C138.267 8.08238 138.665 9.3497 139.074 10.3786C139.54 12.0017 139.703 13.7312 139.423 15.4038C139.456 16.4731 139.149 17.5606 139.452 18.6115C140.397 18.6611 141.387 18.1549 142.289 18.6555C143.426 19.2608 144.433 20.4712 144.36 21.8174C144.136 22.7161 143.749 23.6624 144.105 24.585C144.875 26.6427 146.271 28.3686 147.47 30.1842C147.931 30.8537 148.479 31.5616 149.301 31.7853C150.585 32.0733 151.995 32.0238 153.147 32.739C154.284 33.5552 154.737 34.949 155.243 36.1888C156.569 39.8844 157.526 43.701 158.907 47.3782C159.722 49.2123 160.402 51.1013 161.235 52.928C161.888 54.6043 162.704 56.2219 163.175 57.9642C163.456 59.0261 162.981 60.1339 162.298 60.939C160.862 62.3292 158.957 63.0298 157.193 63.8955C155.346 64.6713 153.477 65.6727 151.414 65.5736C150.199 65.6011 149.207 64.697 148.631 63.7084C147.872 62.254 147.237 60.7391 146.649 59.2095C145.959 57.6213 145.317 56.0147 144.697 54.3989C144.261 53.425 143.971 52.3851 143.432 51.4626L143.472 51.4516C143.667 51.4021 143.863 51.3562 144.063 51.3104C145.328 54.5731 146.698 57.7937 147.988 61.0472C148.395 61.9624 148.716 62.9326 149.303 63.7561C149.44 63.9964 149.723 64.0624 149.95 64.1981C150.251 64.6199 150.706 64.862 151.206 64.9702C151.582 65.0693 151.975 65.0454 152.353 64.9555C154.15 64.6364 155.744 63.7066 157.424 63.039C158.79 62.5108 160.066 61.7863 161.332 61.0527C162.568 60.4182 163.074 58.7345 162.519 57.4892C161.842 55.8019 161.191 54.1054 160.441 52.4512C159.535 50.1238 158.414 47.8808 157.658 45.4965C156.595 42.3273 155.736 39.0884 154.563 35.9559C154.267 35.1141 153.858 34.3181 153.469 33.5167C153.369 33.2911 153.084 33.2691 152.897 33.1645C152.807 33.1279 152.628 33.0563 152.538 33.0215L152.389 32.9646C152.165 32.9298 151.942 32.9023 151.722 32.8748C150.858 32.4969 149.882 32.6308 149 32.3227C148.072 31.9944 147.463 31.1618 146.905 30.3988C145.552 28.3997 144.107 26.43 143.188 24.1833C142.993 23.6258 143.256 23.0499 143.314 22.4923C143.784 22.1971 143.995 21.612 143.793 21.0911C143.223 20.4125 142.696 19.6991 142.111 19.0352C141.955 18.8224 141.673 18.8903 141.455 18.8995C140.466 18.894 139.63 19.6533 138.621 19.413C138.555 18.3768 138.817 17.3552 138.808 16.3172C139.074 13.999 139.177 11.5065 138.124 9.3552L138.001 9.53677C137.811 8.94621 137.55 8.34649 137.051 7.95217C136.624 7.7651 136.142 7.78344 135.725 7.98335C135.476 8.2016 135.307 8.4877 135.14 8.76831C134.352 9.7972 134.287 11.2039 134.421 12.4437C134.614 14.1182 135.248 15.6899 135.795 17.269C135.967 17.7367 136.022 18.2356 136 18.7326C135.487 18.551 135.129 18.131 134.819 17.7055C133.867 16.385 133.071 14.9013 132.837 13.2727C132.609 11.4937 132.402 9.62847 131.437 8.07138C131.364 7.88614 131.19 7.81278 131.017 7.75959C130.777 7.53034 130.599 7.21306 130.284 7.08467C129.699 6.7949 129.035 6.74538 128.402 6.87193C126.999 6.69586 125.838 7.69174 124.595 8.16308C123.899 8.42902 123.478 7.63672 122.968 7.3176C122.755 7.07551 122.537 6.82241 122.263 6.65735C121.64 6.43176 120.95 6.4446 120.338 6.69219C120.318 6.6977 120.277 6.7087 120.255 6.7142C120.132 6.74721 119.883 6.81507 119.76 6.84808C118.823 6.90127 118.144 7.63672 117.468 8.20343C115.905 9.86873 114.731 11.8751 113.882 13.9898C113.629 14.551 113.403 15.2021 112.848 15.534C112.132 15.7706 111.311 15.4185 110.632 15.8073C110.581 15.8348 110.478 15.8917 110.427 15.9192L110.333 15.9687C109.942 16.1503 109.629 16.451 109.339 16.761C108.837 16.783 108.609 17.291 108.389 17.6652C107.131 19.9247 106.898 22.5932 107.07 25.1297C107.312 27.4295 108.015 29.8083 109.664 31.5029C110.399 32.275 111.276 33.027 112.371 33.1774C112.947 33.2306 113.638 33.3644 114.08 32.8876C114.131 32.8601 114.232 32.8032 114.284 32.7757C115.527 32.7134 116.215 31.369 116.457 30.2924C116.871 28.6803 115.767 27.2553 115.536 25.7257C115.866 25.093 116.653 24.8912 117.099 24.3502C118.328 23.1342 118.405 21.2525 119.465 19.9339C119.861 19.424 120.562 19.6294 121.106 19.6899C122.352 19.9119 123.712 19.8825 124.84 19.2534C126.262 18.2576 127.166 16.706 127.753 15.1049C128.176 14.3181 128.661 13.5386 129.29 12.8985C129.702 12.4602 130.396 12.838 130.561 13.3314C130.744 13.568 130.781 14.0485 131.17 14.0136C131.375 14.9563 131.679 15.8715 132.019 16.7738C131.958 17.4378 132.301 18.032 132.374 18.6776C132.275 19.0058 131.901 18.916 131.657 18.8555C130.882 18.6665 130.124 18.2942 129.304 18.4336C128.912 18.3493 128.494 18.2704 128.116 18.4483C127.949 18.562 127.813 18.7051 127.707 18.8756C127.597 19.446 127.722 20.0989 128.242 20.4327C129.581 21.3736 131.223 21.7239 132.785 22.109L132.903 22.142C132.881 22.1805 132.838 22.2576 132.816 22.2961C133.225 22.4722 133.735 22.5437 134.025 22.9197C134.153 23.7743 133.833 24.7409 134.396 25.491C134.893 26.2282 135.294 27.1214 136.143 27.5176C136.373 27.8128 136.694 27.9907 137.073 27.8954C137.803 27.8293 138.667 27.7652 139.208 28.3686C140.055 29.2526 140.523 30.4208 141.015 31.5249C141.471 32.7812 142.152 34.0082 142.199 35.3727C141.983 37.3535 140.112 38.8262 140.286 40.8913C140.813 43.9248 142.324 46.652 143.355 49.5259C143.072 49.5607 142.794 49.5937 142.517 49.6304C141.59 46.718 139.991 43.989 139.654 40.9078C139.527 39.0738 140.916 37.6506 141.299 35.9412C141.501 34.3897 140.76 32.9591 140.197 31.5689C139.817 30.784 139.419 29.9513 138.706 29.4176C137.842 28.7207 136.626 28.8069 135.731 28.1686C134.872 27.5487 134.291 26.6336 133.763 25.7367C133.345 25.0453 133.233 24.2237 132.862 23.5176C131.854 22.7656 130.577 22.5363 129.477 21.9586C128.45 21.4506 127.558 20.7042 126.834 19.8202C126.617 19.4974 126.188 19.6789 125.891 19.7633C125.198 20.0347 124.514 20.3539 123.767 20.4456C122.529 20.6785 121.115 20.429 120.05 21.2342C119.048 21.9183 118.828 23.1874 118.157 24.1283C117.706 24.9261 116.829 25.491 116.657 26.43C116.716 27.5359 117.145 28.5923 117.174 29.7037C117.123 31.5708 115.821 33.3956 113.994 33.8963C112.299 34.2705 110.595 33.4727 109.376 32.3337C107.665 30.4759 106.568 28.0311 106.449 25.4983C106.438 24.8802 106.324 24.2713 106.3 23.6569C106.408 22.0687 106.584 20.4639 107.155 18.9655C107.799 17.5295 108.723 16.0824 110.205 15.4112C110.946 15.0352 111.821 15.1672 112.583 14.8701C113.055 14.54 113.324 14.0081 113.552 13.4946C114.511 11.3983 115.652 9.32769 117.343 7.72658Z" fill="#100614"/>
<path d="M120.338 6.69178C120.95 6.44418 121.64 6.43134 122.263 6.65693C121.943 6.88802 121.552 6.65326 121.2 6.71378C120.91 6.74863 120.622 6.74313 120.338 6.69178Z" fill="#FFA5FF"/>
<path d="M128.402 6.87128C129.035 6.74474 129.699 6.79425 130.284 7.08403C129.856 7.16473 129.471 6.96115 129.062 6.90063C128.644 6.90063 128.266 7.22342 127.843 7.05836C127.982 7.01067 128.263 6.91713 128.402 6.87128Z" fill="#FFA5FF"/>
<path d="M126.487 7.68776C126.911 7.45117 127.346 7.23109 127.808 7.07336L127.701 7.26227C127.311 7.44384 126.889 7.53921 126.487 7.68776Z" fill="#FFA5FF"/>
<path d="M110.632 15.8069C111.19 15.6877 111.753 15.8087 112.215 16.1407C111.679 16.0692 111.157 15.928 110.632 15.8069Z" fill="#FFA5FF"/>
<path d="M114.654 23.1649C115.215 23.3923 115.815 23.5005 116.413 23.3428C116.417 23.9444 115.742 23.849 115.327 23.8453C115.072 23.6509 114.783 23.473 114.654 23.1649Z" fill="#FFA5FF"/>
<path d="M120.255 6.71481C120.277 6.70931 120.318 6.69831 120.338 6.69281C120.622 6.74416 120.91 6.74966 121.2 6.71481C121.552 6.65429 121.942 6.88905 122.263 6.65796C122.537 6.82302 122.755 7.07612 122.968 7.31821C123.076 7.80973 123.147 8.31408 123.085 8.81844C122.99 9.22376 122.9 9.63092 122.777 10.0289C122.504 10.5351 122.238 11.0486 122.069 11.5988C122.271 11.3879 122.473 11.1715 122.661 10.9441C123.298 10.1518 124.079 9.49336 124.86 8.84962C125.376 8.42779 125.895 8.0023 126.487 7.68868C126.889 7.54012 127.311 7.44475 127.701 7.26319L127.808 7.07428C127.817 7.07061 127.833 7.06328 127.843 7.05961C128.266 7.22467 128.644 6.90188 129.062 6.90188C129.471 6.9624 129.856 7.16598 130.284 7.08528C130.599 7.21367 130.777 7.53095 131.017 7.76021C131.182 8.12701 131.335 8.50116 131.435 8.89364C131.129 9.61074 131.674 10.425 131.169 11.0963C131.03 10.7955 130.878 10.5057 130.709 10.2251C130.581 9.48602 130.676 8.66438 130.205 8.02798C129.842 7.51812 129.136 7.44476 128.572 7.59148C127.213 7.95278 126.084 8.82578 125.025 9.71161C124.057 10.4526 123.316 11.4374 122.39 12.2206C121.836 12.7543 120.86 12.0793 121.163 11.3622C121.535 10.2215 122.282 9.13023 122.122 7.87392C122.12 7.44292 121.64 7.15131 121.246 7.22651C120.103 7.37873 119.144 8.12151 118.373 8.93399C116.384 11.2027 115.017 14.0436 114.616 17.0422C114.518 17.6126 114.63 18.271 114.254 18.757C113.919 18.9771 113.387 18.9991 113.071 18.746C112.598 18.0528 112.371 17.1559 111.643 16.6662C111.281 16.426 110.777 16.47 110.526 16.8423C110.471 16.8955 110.362 17.0019 110.309 17.0551C109.513 17.6291 109.198 18.5993 108.958 19.5071C108.402 21.8749 108.373 24.3747 108.925 26.7442C109.229 27.5237 109.449 28.3343 109.396 29.1798C108.081 27.1862 107.879 24.6901 107.943 22.3627C107.932 21.5961 108.308 20.802 107.969 20.0629C108.185 18.8836 108.629 17.7355 109.339 16.7616C109.629 16.4517 109.942 16.1509 110.333 15.9693L110.364 16.0757L110.449 16.0372L110.427 15.9198C110.478 15.8923 110.581 15.8354 110.632 15.8079C111.157 15.929 111.679 16.0702 112.215 16.1417L112.323 16.1967C112.915 16.7249 113.302 17.4274 113.627 18.1408C113.598 17.2109 113.862 16.3141 114.036 15.4099C114.748 12.7396 116.096 10.2105 118.021 8.21688C118.46 7.78222 118.929 7.37323 119.474 7.07428C119.769 7.1293 120.281 7.14764 120.255 6.71481Z" fill="#9B4E93"/>
<path d="M112.417 22.5754C112.919 22.9221 112.89 23.5475 113.123 24.0537C113.143 24.0995 113.18 24.1912 113.2 24.2352C113.357 24.6185 113.523 25.0019 113.746 25.354C114.137 25.8822 114.597 26.3572 115.032 26.8506C115.333 27.2614 115.612 27.6905 115.815 28.1601C115.692 28.6076 115.802 29.0642 115.835 29.5154C115.844 30.0674 115.54 30.5571 115.241 31.001C115.171 30.7002 115.039 30.3866 115.129 30.0748C115.514 28.7579 114.619 27.498 113.766 26.5773C113.686 26.3792 113.609 26.1811 113.537 25.9831C113.343 25.9005 113.15 25.8198 112.958 25.7391C112.585 24.7323 111.929 23.6667 112.417 22.5754Z" fill="#9B4E93"/>
<path opacity="0.3" d="M117.468 8.20398C118.144 7.63727 118.823 6.90182 119.76 6.84863C119.689 6.90549 119.546 7.0192 119.474 7.07422C118.929 7.37317 118.46 7.78216 118.021 8.21682C116.096 10.2104 114.748 12.7395 114.036 15.4099C114.012 15.3255 113.963 15.1531 113.939 15.0669C113.706 15.7748 113.147 16.4076 112.323 16.1967L112.215 16.1416C111.753 15.8097 111.19 15.6886 110.632 15.8079C111.311 15.419 112.132 15.7712 112.848 15.5346C113.403 15.2026 113.629 14.5515 113.882 13.9903C114.731 11.8757 115.905 9.86928 117.468 8.20398Z" fill="#1C0923"/>
<path opacity="0.3" d="M108.389 17.6656C108.609 17.2915 108.837 16.7835 109.339 16.7615C108.629 17.7353 108.186 18.8834 107.969 20.0627C107.872 20.5157 107.793 20.9724 107.738 21.4327C107.325 24.6955 107.696 28.3195 109.818 30.9697C110.808 32.2388 112.395 33.3411 114.08 32.8881C113.638 33.3649 112.947 33.231 112.371 33.1779C111.276 33.0275 110.399 32.2755 109.664 31.5034C108.015 29.8087 107.313 27.43 107.07 25.1301C106.898 22.5937 107.131 19.9252 108.389 17.6656Z" fill="#1C0923"/>
<path d="M119.76 6.84872C119.883 6.81571 120.132 6.74786 120.255 6.71484C120.281 7.14767 119.769 7.12933 119.474 7.07431C119.545 7.01929 119.688 6.90558 119.76 6.84872Z" fill="#FFA1FF"/>
<path d="M128.116 18.449C128.494 18.2711 128.912 18.35 129.304 18.4344C129.424 18.4747 129.666 18.5536 129.785 18.5939C129.559 18.6966 129.346 18.6819 129.147 18.5481C128.827 18.3848 128.455 18.4564 128.116 18.449Z" fill="#FFA1FF"/>
<path d="M128.628 19.5571C129.31 19.713 129.979 20.001 130.586 20.3513C130.109 20.2486 129.642 20.1165 129.163 20.0248C128.882 20.0266 128.75 19.7607 128.628 19.5571Z" fill="#FFA1FF"/>
<path d="M109.997 29.7485C110.614 30.3629 111.157 31.1204 112.008 31.4267C112.391 31.5716 112.8 31.6413 113.211 31.6596C113.699 31.733 114.144 31.4799 114.599 31.3533C114.23 32.1805 113.211 32.2006 112.453 32.0466C111.366 31.6321 110.639 30.6711 109.997 29.7485Z" fill="#FFA1FF"/>
<path opacity="0.29" d="M124.595 8.1631C125.838 7.69175 126.999 6.69588 128.402 6.87194C128.263 6.91779 127.982 7.01133 127.843 7.05902C127.833 7.06268 127.817 7.07002 127.808 7.07369C127.346 7.23141 126.911 7.4515 126.487 7.68809C125.895 8.0017 125.376 8.4272 124.86 8.84902C124.281 9.03426 123.643 9.02693 123.223 8.5299C123.19 8.60143 123.12 8.74632 123.085 8.81785C123.148 8.31349 123.076 7.80913 122.968 7.31761C123.478 7.63674 123.899 8.42903 124.595 8.1631Z" fill="#1B0922"/>
<path d="M121.246 7.22642C121.64 7.15122 122.12 7.44283 122.122 7.87383C122.282 9.13014 121.535 10.2214 121.163 11.3621C120.86 12.0793 121.836 12.7542 122.39 12.2205C123.316 11.4373 124.057 10.4525 125.025 9.71152C126.084 8.82569 127.213 7.95269 128.572 7.59139C129.136 7.44467 129.842 7.51803 130.205 8.02789C130.676 8.66429 130.581 9.48593 130.709 10.225C130.036 9.73903 129.088 9.99029 128.688 10.7001C129.251 10.4745 129.858 10.4085 130.462 10.458C130.689 10.6781 130.924 10.8908 131.169 11.0962C131.674 10.425 131.129 9.61065 131.435 8.89355C131.951 11.0192 132.035 13.2475 132.813 15.3108C133.523 17.3723 134.865 19.1696 136.514 20.58C136.903 20.9229 137.339 21.2072 137.783 21.4805C137.488 21.7061 137.185 21.9188 136.875 22.1242C135.734 21.2971 134.685 20.3544 133.697 19.353C133.123 18.7551 132.82 17.9665 132.303 17.3282C132.208 17.143 132.108 16.9596 132.019 16.7744C131.679 15.872 131.375 14.9568 131.169 14.0141C131.058 13.5061 130.951 12.9981 130.863 12.4864C130.988 12.2278 130.929 12.0334 130.685 11.9069C130.652 11.74 130.617 11.5731 130.583 11.408C130.522 11.043 130.295 10.7698 130.001 10.5643C129.112 11.0247 128.505 11.8518 127.998 12.6882C127.622 13.3502 127.232 14.0197 127.048 14.7661C126.537 15.8867 126.075 17.0421 125.343 18.0435C124.662 18.4782 124.017 19.0486 123.175 19.1127C122.113 19.3383 121.068 18.8523 120.349 18.0894C120.329 18.0453 120.292 17.9536 120.274 17.9096C120.178 17.64 120.094 17.3668 120.013 17.0953C120.039 16.8697 120.072 16.646 120.11 16.4222C120.173 16.3415 120.299 16.1801 120.362 16.1013C120.184 15.9087 120.024 15.5015 119.694 15.6666C119.393 15.7858 119.215 16.0664 119.015 16.3012C119.191 16.3085 119.542 16.325 119.718 16.3324C119.615 16.4919 119.518 16.6551 119.43 16.822C119.322 17.0201 119.223 17.22 119.127 17.4236C117.977 19.2925 117.937 21.5355 117.242 23.5658L117.231 23.5878C116.831 23.9289 116.439 24.4112 115.859 24.3819C114.823 24.4644 114.063 23.5969 113.601 22.779C113.792 22.7753 114.177 22.7661 114.37 22.7625C114.085 22.1536 113.071 21.9683 112.822 22.7001C112.932 22.7129 113.152 22.7386 113.264 22.7515C113.187 23.1825 113.13 23.6153 113.123 24.0536C112.89 23.5474 112.919 22.922 112.417 22.5754C111.929 23.6666 112.585 24.7322 112.958 25.7391C112.545 25.9573 112.2 26.4965 112.611 26.8927C113.002 27.287 113.528 26.966 113.766 26.5772C114.619 27.4979 115.514 28.7579 115.129 30.0747C115.039 30.3865 115.171 30.7001 115.241 31.0009C115.54 30.5571 115.844 30.0674 115.835 29.5153C115.802 29.0642 115.692 28.6075 115.815 28.16C116.29 29.1339 116.273 30.2875 115.749 31.2375C115.03 31.8409 114.311 32.6442 113.291 32.6277C111.584 32.6424 110.241 31.3017 109.348 29.9775C107.654 27.4906 107.474 24.3397 107.738 21.4328C107.793 20.9724 107.872 20.5158 107.969 20.0628C108.308 20.8019 107.932 21.596 107.943 22.3626C107.879 24.69 108.081 27.1861 109.396 29.1797C109.449 28.3342 109.229 27.5236 108.925 26.7441C108.372 24.3746 108.402 21.8748 108.958 19.5071C109.198 18.5992 109.513 17.629 110.309 17.055C110.355 17.2787 110.405 17.5025 110.458 17.7262C110.916 17.8143 111.246 17.5373 111.158 17.0568C110.947 16.9834 110.735 16.9119 110.526 16.8422C110.777 16.4699 111.281 16.4259 111.643 16.6662C112.371 17.1558 112.598 18.0527 113.071 18.7459C113.387 18.999 113.919 18.977 114.254 18.7569C114.63 18.2709 114.518 17.6125 114.616 17.0421C115.017 14.0435 116.384 11.2026 118.373 8.9339C119.144 8.12142 120.103 7.37864 121.246 7.22642ZM119.221 8.69364C118.502 9.08062 118.707 10.3186 119.505 10.4671C120.094 10.6579 120.772 10.1554 120.727 9.52812C120.796 8.76516 119.828 8.26448 119.221 8.69364ZM125.981 9.94444C125.554 10.2434 125.772 11.0008 126.298 11.0247C126.72 11.0742 127.069 10.6157 126.918 10.2269C126.817 9.83257 126.285 9.70052 125.981 9.94444ZM124.123 12.8385C123.844 13.2145 124.255 13.64 124.644 13.3832C124.86 13.0054 124.508 12.6203 124.123 12.8385ZM121.247 13.2714C120.934 13.3099 120.743 13.7244 120.923 13.9793C121.106 14.3608 121.832 14.2067 121.785 13.75C121.842 13.4456 121.526 13.1998 121.247 13.2714ZM116.638 14.027C115.905 14.3498 115.798 15.4447 116.422 15.9307C117.057 16.5158 118.214 16.0609 118.287 15.2008C118.45 14.3278 117.411 13.596 116.638 14.027ZM122.889 17.5465C123.045 17.9225 123.474 17.9628 123.819 18.0417C123.146 18.359 122.392 18.2526 121.684 18.1554C121.689 17.928 121.372 17.7996 121.187 17.8656C121.136 18.049 121.202 18.1939 121.387 18.3021H121.495C121.889 18.5589 122.331 18.7826 122.819 18.7111C123.808 18.6836 124.539 17.9151 125.016 17.121C124.864 17.2622 124.714 17.4053 124.561 17.5447C124.534 17.0788 124.47 16.4534 123.931 16.3085C123.221 16.0151 122.48 16.8991 122.889 17.5465ZM115.127 18.3131C115.058 18.5717 115.114 18.7698 115.298 18.9055C115.754 19.0834 115.776 18.6029 115.716 18.2911C115.569 18.2966 115.274 18.3076 115.127 18.3131ZM133.856 18.7551C133.787 19.0339 134.087 19.2503 134.291 19.386C134.555 19.5676 134.601 19.1953 134.39 19.0962C134.229 18.9807 134.087 18.6671 133.856 18.7551ZM112.393 19.8537C112.079 19.9124 112.229 20.4002 112.521 20.303C112.816 20.237 112.679 19.7602 112.393 19.8537ZM109.134 20.602C108.732 20.9229 108.91 21.6987 109.431 21.7941C109.924 21.9537 110.449 21.453 110.296 20.9559C110.218 20.4332 109.499 20.259 109.134 20.602ZM135.692 20.5433C135.626 20.7945 135.945 21.1357 136.204 21.088C136.253 20.8367 135.938 20.5158 135.692 20.5433ZM114.981 20.7414C114.256 21.121 114.262 22.3333 115.05 22.6341C115.795 23.0559 116.804 22.2764 116.561 21.453C116.451 20.7469 115.578 20.3984 114.981 20.7414ZM114.654 23.1659C114.782 23.4741 115.072 23.652 115.327 23.8464C115.742 23.85 116.417 23.9454 116.413 23.3438C115.815 23.5016 115.215 23.3934 114.654 23.1659ZM109.48 24.9926C109.146 25.3393 109.638 25.8161 109.972 25.4933C110.153 25.1504 109.807 24.8496 109.48 24.9926ZM111.483 30.2545C111.43 30.7203 111.764 31.0743 112.008 31.4264C111.157 31.1201 110.614 30.3627 109.997 29.7483C110.639 30.6708 111.366 31.6318 112.453 32.0463C113.211 32.2004 114.23 32.1802 114.599 31.353C114.144 31.4796 113.699 31.7327 113.211 31.6593C113.44 31.3916 113.695 31.144 113.889 30.8487C114.26 30.1628 113.816 29.2091 113.051 29.0568C112.301 28.8459 111.468 29.4732 111.483 30.2545Z" fill="#A95DA2"/>
<path d="M136.259 8.669C136.627 8.54428 136.873 9.00279 137.007 9.28156C137.601 11.2055 137.475 13.2431 137.484 15.2293C137.462 15.4604 137.511 15.8859 137.178 15.8914C136.692 14.4792 136.294 13.023 136.066 11.5447C136.046 10.6057 135.624 9.46863 136.259 8.669Z" fill="#A95DA2"/>
<path d="M140.103 64.2128C140.503 64.2219 140.928 64.2476 141.286 64.4494C141.44 64.6089 141.625 64.6603 141.845 64.6034L142.018 64.5759C142.124 64.8693 142.52 64.7703 142.764 64.7501C142.876 64.7465 143.102 64.7391 143.214 64.7355C143.289 64.8088 143.441 64.9556 143.516 65.0289C143.399 65.4159 143.324 65.8304 143.076 66.1623C142.071 65.6617 141.059 65.172 140.041 64.7006C140.057 64.5777 140.088 64.3338 140.103 64.2128ZM142.478 65.326C142.584 65.4269 142.584 65.4269 142.478 65.326V65.326Z" fill="#A95DA2"/>
<path d="M135.699 68.3905C135.668 68.1282 136.163 68.1612 136.167 68.3978C136.25 68.6968 136.321 69.0031 136.385 69.3112C136.494 69.8394 136.598 70.3676 136.721 70.8939C136.413 70.8206 136.09 70.5253 135.775 70.7124C135.681 70.927 135.83 71.3836 135.538 71.435C135.283 71.2314 135.509 70.8463 135.463 70.5785C135.487 70.2704 135.503 69.9623 135.527 69.656C135.575 69.2323 135.63 68.8086 135.699 68.3905Z" fill="#A95DA2"/>
<path opacity="0.27" d="M131.017 7.75989C131.19 7.81307 131.364 7.88644 131.437 8.07167C132.402 9.62876 132.609 11.494 132.837 13.273C133.071 14.9016 133.867 16.3853 134.819 17.7058C135.129 18.1313 135.487 18.5513 136 18.7329C136.022 18.2359 135.967 17.737 135.795 17.2693C135.248 15.6902 134.614 14.1185 134.421 12.444C134.287 11.2042 134.351 9.79749 135.14 8.7686C134.671 11.3656 135.558 13.9534 136.268 16.4238C136.532 17.671 137.027 18.8539 137.499 20.035C137.739 19.9745 138.08 19.991 138.045 19.6444C138.383 16.2955 138.733 12.8603 138.001 9.53706L138.124 9.35549C139.177 11.5068 139.074 13.9992 138.808 16.3175C138.817 17.3555 138.555 18.3771 138.621 19.4133C139.63 19.6536 140.466 18.8943 141.455 18.8998C141.189 19.085 140.928 19.2739 140.661 19.45C139.832 19.6444 139.195 20.2551 138.397 20.5247C137.799 20.787 137.137 20.5944 136.514 20.5797C134.865 19.1694 133.522 17.372 132.813 15.3106C132.035 13.2473 131.951 11.019 131.435 8.89332C131.335 8.50084 131.182 8.12669 131.017 7.75989Z" fill="#1A0820"/>
<path d="M135.725 7.98405C136.141 7.78414 136.624 7.76581 137.051 7.95288C136.624 8.12894 136.161 8.06475 135.725 7.98405Z" fill="#FFC4FF"/>
<path d="M124.561 17.5449C124.714 17.4055 124.864 17.2624 125.016 17.1212C124.539 17.9153 123.808 18.6838 122.819 18.7113C122.331 18.7828 121.889 18.5591 121.495 18.3023C121.543 18.2656 121.636 18.1923 121.684 18.1556C122.392 18.2528 123.145 18.3592 123.819 18.0419C124.083 17.9043 124.334 17.7393 124.561 17.5449Z" fill="#FFC4FF"/>
<path d="M137.374 17.2516C137.532 17.6973 137.981 18.4162 137.506 18.7592C137.455 18.2566 137.379 17.7559 137.374 17.2516Z" fill="#FFC4FF"/>
<path d="M131.074 19.1978C131.567 19.4325 132.041 19.7076 132.506 19.9956C131.985 19.8158 131.457 19.6086 131.074 19.1978Z" fill="#FFC4FF"/>
<path d="M129.163 20.0247C129.642 20.1164 130.109 20.2484 130.586 20.3511C131.556 20.595 132.503 20.9527 133.431 21.3231L133.524 21.4882C133.04 21.4735 132.602 21.2516 132.134 21.1599C131.123 20.8536 130.049 20.6244 129.163 20.0247Z" fill="#FFC4FF"/>
<path d="M135.692 20.543C135.938 20.5155 136.253 20.8365 136.204 21.0877C135.945 21.1354 135.626 20.7943 135.692 20.543Z" fill="#FFC4FF"/>
<path d="M11.6516 7.7583C12.5502 10.3241 13.2637 12.9541 14.089 15.5456C14.3439 16.2719 14.4705 17.0513 14.8281 17.7372C15.0757 17.8693 15.2994 17.7116 15.4957 17.5722C15.4315 17.7904 15.4407 18.0912 15.1582 18.1462C14.7052 18.2288 14.6539 17.6951 14.5475 17.3943C13.6506 14.4342 12.7208 11.4832 11.8166 8.52676C11.7543 8.27183 11.6992 8.01506 11.6516 7.7583Z" fill="#2A0636"/>
<path d="M127.998 12.6884C128.505 11.8521 129.112 11.0249 130.001 10.5646C130.295 10.77 130.522 11.0433 130.583 11.4082C130.33 11.2322 130.04 10.8562 129.708 11.1074C128.396 11.9566 127.833 13.4898 127.048 14.7663C127.232 14.0199 127.623 13.3505 127.998 12.6884Z" fill="#2A0636"/>
<path d="M1.78076 12.8953C4.7042 15.1493 7.64781 17.3813 10.5804 19.6243C11.1141 20.0938 11.613 19.3144 12.0623 19.0613C12.0586 19.1566 12.0531 19.3492 12.0495 19.4446C11.5946 19.738 11.0114 20.4991 10.4851 19.9141C7.61113 17.7041 4.71704 15.5234 1.84679 13.3098C1.83028 13.2071 1.79727 12.998 1.78076 12.8953Z" fill="#2A0636"/>
<path d="M120.349 18.0897C121.068 18.8526 122.113 19.3386 123.175 19.1131C124.017 19.0489 124.662 18.4785 125.343 18.0438C124.516 19.6119 122.188 19.9402 120.816 18.8985C120.618 18.6546 120.466 18.3776 120.349 18.0897Z" fill="#2A0636"/>
<path d="M128.242 20.4331C127.722 20.0993 127.597 19.4464 127.707 18.876C127.54 19.6279 128.206 20.1451 128.794 20.4496C130.313 21.2254 131.998 21.5885 133.656 21.9498C134.113 22.0305 134.581 22.1882 135.052 22.0892C135.03 22.1956 134.99 22.4101 134.97 22.5165C134.276 22.4101 133.594 22.2524 132.903 22.1424L132.785 22.1094C131.223 21.7242 129.581 21.3739 128.242 20.4331Z" fill="#2A0636"/>
<path d="M109.818 30.9697C107.696 28.3195 107.325 24.6955 107.738 21.4327C107.474 24.3397 107.654 27.4905 109.348 29.9775C110.241 31.3016 111.584 32.6423 113.291 32.6276C114.311 32.6441 115.03 31.8408 115.749 31.2374C115.509 31.9435 114.856 32.358 114.284 32.7762C114.232 32.8037 114.131 32.8606 114.08 32.8881C112.395 33.3411 110.808 32.2388 109.818 30.9697Z" fill="#2A0636"/>
<path d="M113.264 22.752C113.348 22.7593 113.517 22.7721 113.601 22.7795C114.064 23.5974 114.823 24.4649 115.859 24.3824C116.439 24.4117 116.831 23.9294 117.231 23.5883C117.003 24.4869 116.013 24.9711 115.151 24.6612C114.871 24.5034 114.601 24.3274 114.351 24.1293C114.034 23.7607 113.754 23.3645 113.46 22.9794C113.211 23.3535 113.126 23.7937 113.2 24.2357C113.18 24.1917 113.143 24.1 113.123 24.0541C113.13 23.6158 113.187 23.1829 113.264 22.752Z" fill="#2A0636"/>
<path d="M134.496 25.0291C134.289 24.7375 134.298 24.3725 134.289 24.0332C134.443 24.9942 135.272 25.6747 135.729 26.5073C136.063 26.8998 136.294 27.6921 136.939 27.549C137.823 26.9787 138.553 26.1919 139.36 25.5169L139.432 25.5096C139.606 26.0011 139.791 26.4908 139.949 26.9915C139.742 26.6504 139.54 26.3037 139.369 25.9443C138.814 26.3441 138.3 26.7989 137.785 27.2464C137.541 27.4573 137.304 27.6737 137.073 27.8957C136.694 27.991 136.373 27.8131 136.143 27.5179C135.657 26.6485 135.026 25.8709 134.496 25.0291Z" fill="#2A0636"/>
<path d="M140.954 29.4473C141.613 30.8613 142.141 32.3322 142.748 33.7682C142.994 34.4138 143.417 35.0851 143.188 35.8022C143.168 35.3785 143.113 34.953 142.937 34.5642C142.304 33.0915 141.761 31.5802 141.101 30.1185C141.064 29.9516 140.991 29.616 140.954 29.4473Z" fill="#2A0636"/>
<path d="M140.916 41.5229C141.455 42.5537 141.809 43.6651 142.267 44.7307C142.761 46.0328 143.362 47.2946 143.78 48.6243C143.58 48.4299 143.479 48.1695 143.393 47.9145C142.608 45.7687 141.612 43.6999 140.916 41.5229Z" fill="#2A0636"/>
<path d="M151.973 64.349C155.384 62.8268 158.85 61.4219 162.229 59.8281C162.073 60.4003 161.449 60.5397 160.987 60.7727C157.724 62.1665 154.507 63.6723 151.206 64.9707C150.706 64.8625 150.251 64.6204 149.95 64.1986C149.686 63.3586 149.227 62.5883 149.062 61.7172C149.449 62.4288 149.647 63.2247 150.04 63.9327C150.436 64.5783 151.336 64.703 151.973 64.349Z" fill="#2A0636"/>
<path d="M140.041 64.701C141.059 65.1724 142.071 65.6621 143.076 66.1628C143.324 65.8308 143.399 65.4163 143.516 65.0293C143.441 64.956 143.289 64.8093 143.214 64.7359C143.294 64.7799 143.456 64.868 143.536 64.912C143.436 65.4475 143.476 66.1078 143.056 66.5167C142.075 66.0179 141.057 65.5961 140.098 65.0605C140.083 64.9707 140.055 64.7909 140.041 64.701Z" fill="#2A0636"/>
<path d="M137.713 67.4191C138.847 69.2146 139.892 71.0614 141.007 72.868C141.805 72.4608 142.423 71.7822 143.126 71.2357C143.298 71.5328 142.972 71.7107 142.801 71.8849C142.251 72.3177 141.734 72.7928 141.161 73.1981C140.906 73.2348 140.861 72.9303 140.734 72.7836C139.813 71.232 138.893 69.6786 137.946 68.1435C137.816 67.9253 137.644 67.6887 137.713 67.4191Z" fill="#2A0636"/>
<path d="M134.748 76.8972C135.859 77.0586 136.978 77.1687 138.1 77.2328C138.076 77.3135 138.031 77.4731 138.007 77.5538C136.95 77.5648 135.901 77.3997 134.854 77.2989C134.832 77.2383 134.79 77.1173 134.768 77.0568L134.748 76.8972Z" fill="#2A0636"/>
<path d="M137.051 7.95215C137.55 8.34646 137.81 8.94619 138.001 9.53674C138.733 12.86 138.383 16.2951 138.045 19.6441C137.9 19.6386 137.612 19.6294 137.468 19.6239C137.031 18.5693 136.747 17.4597 136.268 16.4235C135.558 13.9531 134.671 11.3653 135.14 8.76829C135.307 8.48768 135.476 8.20157 135.725 7.98332C136.162 8.06402 136.624 8.12822 137.051 7.95215ZM136.259 8.66925C135.624 9.46889 136.046 10.606 136.066 11.545C136.294 13.0232 136.692 14.4795 137.178 15.8917C137.512 15.8861 137.462 15.4607 137.484 15.2296C137.475 13.2433 137.601 11.2057 137.007 9.28182C136.873 9.00305 136.628 8.54454 136.259 8.66925ZM137.374 17.2507C137.379 17.755 137.455 18.2557 137.506 18.7582C137.981 18.4153 137.532 17.6963 137.374 17.2507Z" fill="#9D5095"/>
<path opacity="0.42" d="M123.223 8.53003C123.643 9.02705 124.281 9.03438 124.86 8.84915C124.079 9.49289 123.298 10.1513 122.661 10.9436C122.689 10.6373 122.722 10.331 122.777 10.0284C122.9 9.63045 122.99 9.22329 123.085 8.81797C123.12 8.74645 123.19 8.60156 123.223 8.53003Z" fill="#270C30"/>
<path opacity="0.42" d="M113.939 15.0669C113.963 15.1531 114.012 15.3255 114.036 15.4099C113.862 16.314 113.598 17.2109 113.627 18.1407C113.302 17.4273 112.915 16.7248 112.323 16.1967C113.146 16.4076 113.706 15.7748 113.939 15.0669Z" fill="#270C30"/>
<path d="M119.221 8.69364C119.828 8.26447 120.796 8.76516 120.726 9.52812C120.772 10.1554 120.094 10.6579 119.505 10.4671C118.707 10.3186 118.502 9.08062 119.221 8.69364Z" fill="#5E5E5E"/>
<path d="M125.981 9.94442C126.285 9.7005 126.817 9.83255 126.918 10.2269C127.069 10.6157 126.72 11.0742 126.298 11.0247C125.772 11.0008 125.554 10.2434 125.981 9.94442Z" fill="#5E5E5E"/>
<path d="M121.247 13.2709C121.526 13.1994 121.841 13.4451 121.785 13.7496C121.832 14.2063 121.106 14.3603 120.923 13.9788C120.743 13.7239 120.934 13.3094 121.247 13.2709Z" fill="#5E5E5E"/>
<path d="M116.638 14.0266C117.41 13.5956 118.45 14.3273 118.287 15.2003C118.214 16.0605 117.056 16.5153 116.422 15.9303C115.798 15.4443 115.905 14.3494 116.638 14.0266Z" fill="#5E5E5E"/>
<path d="M122.889 17.5466C122.48 16.8992 123.221 16.0152 123.93 16.3087C124.47 16.4536 124.534 17.079 124.561 17.5448C124.334 17.7392 124.083 17.9043 123.819 18.0418C123.474 17.963 123.045 17.9226 122.889 17.5466Z" fill="#5E5E5E"/>
<path d="M109.134 20.602C109.499 20.259 110.217 20.4332 110.296 20.9559C110.449 21.453 109.924 21.9536 109.431 21.7941C108.91 21.6987 108.732 20.9229 109.134 20.602Z" fill="#5E5E5E"/>
<path d="M114.98 20.7409C115.578 20.3979 116.451 20.7464 116.561 21.4525C116.803 22.2759 115.795 23.0554 115.05 22.6336C114.261 22.3328 114.256 21.1205 114.98 20.7409Z" fill="#5E5E5E"/>
<path d="M112.611 26.8925C112.2 26.4963 112.545 25.9571 112.957 25.7389C113.15 25.8196 113.343 25.9003 113.537 25.9828C113.609 26.1809 113.686 26.379 113.766 26.577C113.528 26.9659 113.001 27.2868 112.611 26.8925Z" fill="#5E5E5E"/>
<path d="M111.483 30.2545C111.468 29.4732 112.301 28.846 113.051 29.0569C113.816 29.2091 114.26 30.1628 113.889 30.8488C113.695 31.144 113.44 31.3916 113.211 31.6594C112.8 31.6411 112.391 31.5714 112.007 31.4265C111.764 31.0743 111.43 30.7204 111.483 30.2545Z" fill="#5E5E5E"/>
<path d="M4.87288 9.49645C5.03794 9.29104 5.44326 9.23419 5.57164 9.50563C7.60008 12.3667 9.62301 15.2315 11.6551 18.0889C11.5561 18.3823 11.4772 18.6941 11.281 18.9454C11.0719 18.8005 10.8646 18.6593 10.6556 18.518C10.6629 18.2796 10.7344 18.0137 10.5474 17.8229C8.74634 15.3672 7.05353 12.8381 5.24335 10.3896C4.48957 10.7766 4.01272 11.5212 3.33963 12.0237C3.04252 12.2035 3.13239 12.5501 3.17824 12.8307C3.04068 12.8381 2.76925 12.8546 2.63353 12.8619C2.51432 12.5684 2.40978 12.2677 2.30341 11.9706C3.15806 11.1434 4.01455 10.3181 4.87288 9.49645Z" fill="#D7CD00"/>
<path opacity="0.27" d="M5.57172 9.50572C6.03756 9.46904 6.30716 9.93121 6.61711 10.2026C7.8129 11.3489 8.75925 12.7189 9.76613 14.0266C10.6685 15.1197 11.5305 16.2678 12.1155 17.5644C12.3081 18.1495 12.5025 18.94 12.0495 19.4443C12.0532 19.3489 12.0587 19.1564 12.0623 19.061C12.0605 18.9711 12.0568 18.7914 12.055 18.7015C11.9285 18.4924 11.7946 18.2889 11.6552 18.089C9.62308 15.2316 7.60015 12.3668 5.57172 9.50572Z" fill="#19081F"/>
<path opacity="0.88" d="M122.069 11.5986C122.238 11.0484 122.504 10.5349 122.777 10.0287C122.722 10.3313 122.689 10.6376 122.661 10.9439C122.473 11.1713 122.271 11.3877 122.069 11.5986Z" fill="#5C2457"/>
<path d="M128.688 10.7C129.088 9.99022 130.036 9.73896 130.709 10.225C130.878 10.5056 131.03 10.7954 131.17 11.0961C130.924 10.8907 130.689 10.678 130.462 10.4579C129.858 10.4084 129.251 10.4744 128.688 10.7Z" fill="#FEAEFB"/>
<path d="M3.33974 12.024C4.01283 11.5215 4.48968 10.7769 5.24346 10.3899C7.05365 12.8383 8.74645 15.3674 10.5475 17.8232C10.7345 18.0139 10.663 18.2799 10.6557 18.5183C8.14123 16.6531 5.69463 14.6925 3.17835 12.831C3.1325 12.5504 3.04263 12.2037 3.33974 12.024Z" fill="#E5DB00"/>
<path d="M141.455 18.8995C141.673 18.8903 141.955 18.8224 142.111 19.0352C142.696 19.6991 143.223 20.4125 143.793 21.0911C143.894 21.4249 143.747 21.7514 143.476 21.9513C142.933 22.4355 142.379 22.9031 141.812 23.3561C141.62 23.5084 141.431 23.6661 141.251 23.8311C140.827 24.2401 140.387 24.6363 139.892 24.9572C139.446 24.9151 138.944 24.794 138.555 25.0856C137.928 25.4341 137.512 26.1567 136.802 26.3328C136.11 26.0338 135.98 25.0856 135.32 24.7023C135.709 25.4634 136.22 26.1567 136.668 26.8848C136.734 26.905 136.866 26.949 136.932 26.9692C137.658 26.3694 138.308 25.4836 139.36 25.5166C138.553 26.1915 137.823 26.9783 136.939 27.5487C136.294 27.6918 136.063 26.8995 135.729 26.507C135.272 25.6743 134.443 24.9939 134.289 24.0329C134.944 23.3048 135.852 22.8646 136.629 22.2796L136.875 22.1237C137.185 21.9183 137.488 21.7055 137.783 21.4799C138.728 20.783 139.716 20.1484 140.661 19.4497C140.928 19.2736 141.189 19.0847 141.455 18.8995ZM141.473 22.938C141.924 22.6262 142.33 22.252 142.788 21.9458C142.757 21.8449 142.693 21.6395 142.66 21.5386C142.197 21.9146 141.436 22.2392 141.473 22.938Z" fill="#E5DB00"/>
<path d="M144.73 36.5684C145.029 36.2622 145.57 36.5538 145.473 36.9701C144.938 38.1787 144.275 39.3286 143.733 40.5373C143.454 41.0636 143.723 41.645 143.969 42.1255C146.916 47.9999 149.787 53.911 152.73 59.7872C152.917 60.1797 153.11 60.6327 152.914 61.0619C152.708 61.856 151.703 62.2687 150.99 61.8762C150.418 61.6359 150.238 60.9958 150.027 60.4731C147.553 54.4355 145.062 48.4071 142.59 42.3676C142.209 41.4891 142.346 40.4602 142.867 39.6698C143.511 38.6501 144.059 37.5698 144.73 36.5684Z" fill="#E5DB00"/>
<path opacity="0.31" d="M129.708 11.1065C130.04 10.8553 130.33 11.2313 130.583 11.4073C130.617 11.5724 130.652 11.7393 130.685 11.9062C130.617 12.1391 130.676 12.3317 130.863 12.4857C130.951 12.9974 131.058 13.5055 131.17 14.0135C130.781 14.0483 130.744 13.5678 130.561 13.3312C130.396 12.8379 129.702 12.4601 129.29 12.8984C128.661 13.5385 128.176 14.3179 127.753 15.1047C127.166 16.7058 126.262 18.2574 124.84 19.2533C123.712 19.8824 122.352 19.9117 121.106 19.6898C120.562 19.6293 119.861 19.4239 119.465 19.9337C118.405 21.2524 118.328 23.1341 117.099 24.3501C116.653 24.8911 115.866 25.0928 115.536 25.7256C115.767 27.2552 116.871 28.6802 116.457 30.2923C116.215 31.3689 115.527 32.7132 114.284 32.7756C114.856 32.3574 115.509 31.9429 115.749 31.2368C116.274 30.2868 116.29 29.1332 115.815 28.1593C115.611 27.6898 115.333 27.2607 115.032 26.8498C115.01 26.3785 114.808 25.9438 114.718 25.4853C114.638 25.1277 114.959 24.9039 115.151 24.66C116.013 24.97 117.003 24.4858 117.231 23.5871L117.242 23.5651C118.082 22.085 118.142 20.185 119.364 18.9085C119.749 18.4848 120.351 18.8205 120.816 18.8975C122.188 19.9392 124.516 19.6109 125.343 18.0428C126.075 17.0415 126.537 15.886 127.048 14.7654C127.833 13.489 128.396 11.9557 129.708 11.1065Z" fill="#1C0A22"/>
<path opacity="0.91" d="M130.685 11.9066C130.929 12.0332 130.988 12.2276 130.863 12.4862C130.676 12.3321 130.617 12.1395 130.685 11.9066Z" fill="#732554"/>
<path d="M1.78072 12.8949C1.62299 12.4786 2.06866 12.2273 2.30341 11.9706C2.40979 12.2677 2.51433 12.5685 2.63354 12.8619C3.05536 13.3149 3.56706 13.6652 4.06041 14.032C6.37128 15.7597 8.62163 17.568 10.9545 19.2627C11.037 19.1838 11.2003 19.0242 11.281 18.9454C11.4772 18.6941 11.5561 18.3823 11.6551 18.0889C11.7945 18.2888 11.9284 18.4924 12.0549 18.7015C12.0568 18.7913 12.0604 18.9711 12.0623 19.0609C11.6129 19.314 11.1141 20.0935 10.5804 19.624C7.64777 17.381 4.70415 15.1489 1.78072 12.8949Z" fill="#E3D900"/>
<path d="M2.63354 12.862C2.76926 12.8546 3.0407 12.8381 3.17825 12.8308C5.69454 14.6923 8.14113 16.6529 10.6556 18.5181C10.8647 18.6593 11.0719 18.8006 11.281 18.9455C11.2003 19.0243 11.0371 19.1839 10.9545 19.2627C8.62164 17.5681 6.37129 15.7597 4.06042 14.0321C3.56706 13.6653 3.05537 13.315 2.63354 12.862Z" fill="#FEFD00"/>
<path d="M124.123 12.8381C124.508 12.6198 124.86 13.005 124.644 13.3828C124.255 13.6396 123.844 13.2141 124.123 12.8381Z" fill="#615E61"/>
<path opacity="0.25" d="M1.8468 13.3096C4.71705 15.5232 7.61115 17.7039 10.4851 19.9139C9.92019 20.244 9.3278 19.8295 8.84728 19.5398C7.04994 18.4393 5.37363 17.1537 3.73401 15.8332C3.00224 15.0904 2.13658 14.3476 1.8468 13.3096Z" fill="#17081C"/>
<path d="M14.8023 16.7175C14.8206 16.0884 14.5144 15.4832 14.6849 14.8596C14.905 15.43 15.0866 16.0444 14.9875 16.6625L14.8023 16.7175Z" fill="#FDFB07"/>
<path d="M119.016 16.3009C119.215 16.0661 119.393 15.7855 119.694 15.6663C120.024 15.5013 120.184 15.9084 120.362 16.101C120.299 16.1798 120.173 16.3412 120.11 16.4219C120.098 16.2936 120.072 16.0331 120.059 15.9047C119.942 16.0441 119.828 16.1854 119.718 16.3321C119.542 16.3247 119.192 16.3082 119.016 16.3009Z" fill="#FBADF5"/>
<path d="M110.333 15.9689L110.427 15.9194L110.449 16.0367L110.364 16.0752L110.333 15.9689Z" fill="#FEB9F5"/>
<path opacity="0.91" d="M119.718 16.3322C119.828 16.1855 119.942 16.0443 120.059 15.9049C120.072 16.0333 120.098 16.2937 120.11 16.4221C120.072 16.6459 120.039 16.8696 120.013 17.0952C119.98 16.9962 119.918 16.7999 119.885 16.7009C119.771 16.7302 119.544 16.7926 119.43 16.8219C119.518 16.655 119.615 16.4918 119.718 16.3322Z" fill="#612C5C"/>
<path opacity="0.78" d="M137.499 20.0348C137.027 18.8537 136.532 17.6707 136.268 16.4236C136.747 17.4598 137.031 18.5694 137.468 19.624C137.612 19.6295 137.9 19.6386 138.045 19.6441C138.08 19.9908 137.739 19.9743 137.499 20.0348Z" fill="#461641"/>
<path opacity="0.51" d="M119.43 16.8217C119.544 16.7924 119.771 16.73 119.885 16.7007C119.918 16.7997 119.98 16.996 120.013 17.095C120.094 17.3664 120.178 17.6397 120.273 17.9093C119.914 17.858 119.555 17.8103 119.201 17.7479C119.182 17.6672 119.146 17.504 119.127 17.4233C119.223 17.2197 119.322 17.0198 119.43 16.8217Z" fill="#2E1039"/>
<path opacity="0.51" d="M113.2 24.2349C113.126 23.7929 113.211 23.3528 113.46 22.9786C113.754 23.3638 114.034 23.7599 114.351 24.1286C113.821 24.312 113.829 24.8915 113.746 25.3537C113.522 25.0016 113.357 24.6183 113.2 24.2349Z" fill="#2E1039"/>
<path d="M110.526 16.842C110.735 16.9117 110.948 16.9833 111.158 17.0566C111.246 17.5371 110.916 17.8141 110.458 17.726C110.405 17.5023 110.355 17.2785 110.309 17.0548C110.362 17.0016 110.471 16.8952 110.526 16.842Z" fill="#695E68"/>
<path opacity="0.32" d="M132.019 16.7739C132.108 16.9592 132.207 17.1426 132.303 17.3278C132.512 18.1604 133.049 18.8537 133.57 19.5176C134.465 20.563 135.503 21.4892 136.629 22.2797C135.852 22.8647 134.944 23.3049 134.289 24.033C134.298 24.3723 134.289 24.7373 134.496 25.0289C135.026 25.8707 135.657 26.6483 136.143 27.5177C135.294 27.1215 134.892 26.2283 134.395 25.4911C133.832 24.7409 134.153 23.7744 134.025 22.9197C133.735 22.5438 133.225 22.4722 132.816 22.2962C132.838 22.2577 132.881 22.1806 132.903 22.1421C133.594 22.2522 134.276 22.4099 134.97 22.5163C134.99 22.4099 135.03 22.1953 135.052 22.0889L135.076 21.8689C134.311 21.1407 133.387 20.5777 132.506 19.9945C132.041 19.7065 131.567 19.4314 131.074 19.1967C131.032 19.1747 130.949 19.1306 130.907 19.1086L130.812 19.0591C130.744 19.0261 130.61 18.9583 130.542 18.9234L130.445 18.8739C130.23 18.7638 130.012 18.6648 129.785 18.5933C129.666 18.5529 129.423 18.4741 129.304 18.4337C130.124 18.2943 130.881 18.6666 131.657 18.8555C131.901 18.9161 132.275 19.0059 132.374 18.6776C132.301 18.0321 131.958 17.4378 132.019 16.7739Z" fill="#1D0925"/>
<path opacity="0.4" d="M117.242 23.5653C117.937 21.535 117.977 19.292 119.127 17.4231C119.146 17.5038 119.182 17.667 119.201 17.7477C119.555 17.8101 119.914 17.8578 120.274 17.9091C120.292 17.9531 120.329 18.0448 120.349 18.0888C120.466 18.3768 120.618 18.6537 120.816 18.8977C120.351 18.8206 119.749 18.485 119.364 18.9087C118.142 20.1851 118.082 22.0852 117.242 23.5653Z" fill="#240D2D"/>
<path opacity="0.9" d="M132.303 17.328C132.82 17.9662 133.123 18.7549 133.697 19.3528C134.685 20.3541 135.734 21.2968 136.875 22.124L136.629 22.2799C135.503 21.4894 134.465 20.5632 133.57 19.5178C133.049 18.8539 132.512 18.1607 132.303 17.328Z" fill="#3A113F"/>
<path d="M121.187 17.8651C121.372 17.7991 121.689 17.9275 121.684 18.1549C121.636 18.1916 121.543 18.2649 121.495 18.3016H121.387C121.202 18.1934 121.136 18.0485 121.187 17.8651Z" fill="#F282EC"/>
<path d="M115.127 18.3127C115.274 18.3072 115.569 18.2962 115.716 18.2906C115.776 18.6024 115.754 19.083 115.298 18.905C115.114 18.7693 115.058 18.5713 115.127 18.3127Z" fill="#635E62"/>
<path d="M127.707 18.8756C127.813 18.705 127.949 18.562 128.116 18.4483C128.455 18.4556 128.827 18.3841 129.147 18.5473C129.346 18.6812 129.559 18.6959 129.785 18.5932C130.012 18.6647 130.23 18.7637 130.445 18.8738L130.418 18.9911C130.449 18.9746 130.511 18.9398 130.542 18.9233C130.61 18.9581 130.744 19.026 130.812 19.059L130.792 19.1672C130.821 19.1525 130.88 19.1232 130.907 19.1085C130.949 19.1305 131.032 19.1745 131.074 19.1966C131.457 19.6074 131.986 19.8146 132.507 19.9944C133.387 20.5776 134.311 21.1406 135.076 21.8687L135.052 22.0888C134.581 22.1879 134.113 22.0301 133.656 21.9494C131.998 21.5881 130.313 21.225 128.794 20.4492C128.206 20.1447 127.54 19.6276 127.707 18.8756ZM128.628 19.556C128.75 19.7596 128.882 20.0255 129.163 20.0237C130.049 20.6234 131.124 20.8527 132.134 21.159C132.602 21.2507 133.04 21.4726 133.524 21.4873L133.431 21.3222C132.503 20.9517 131.557 20.5941 130.586 20.3502C129.979 19.9999 129.31 19.7119 128.628 19.556Z" fill="#9E5196"/>
<path d="M133.856 18.7546C134.087 18.6666 134.229 18.9802 134.39 19.0958C134.601 19.1948 134.555 19.5671 134.291 19.3855C134.087 19.2498 133.787 19.0334 133.856 18.7546Z" fill="#D376CC"/>
<path d="M130.445 18.8739L130.542 18.9234C130.511 18.9399 130.449 18.9747 130.417 18.9912L130.445 18.8739Z" fill="#FE99EE"/>
<path d="M130.812 19.0588L130.907 19.1083C130.88 19.123 130.821 19.1523 130.792 19.167L130.812 19.0588Z" fill="#E577D3"/>
<path opacity="0.38" d="M138.397 20.5251C139.195 20.2555 139.832 19.6447 140.661 19.4503C139.716 20.1491 138.728 20.7837 137.783 21.4806C137.339 21.2073 136.903 20.923 136.514 20.5801C137.137 20.5948 137.8 20.7873 138.397 20.5251Z" fill="#230B2C"/>
<path d="M112.393 19.8533C112.679 19.7598 112.816 20.2366 112.521 20.3026C112.229 20.3998 112.079 19.912 112.393 19.8533Z" fill="#6B5E69"/>
<path d="M89.6178 20.1614C90.423 20.4383 91.2428 20.6749 92.0259 21.0069C93.3647 21.5754 94.1405 23.127 93.9131 24.5465C93.7609 25.5241 93.6563 26.5108 93.5573 27.4956C96.3725 28 99.1859 28.5117 101.992 29.0582C101.18 29.9459 100.085 30.4961 99.019 31.0206C97.1905 31.7579 95.1676 30.9565 93.3006 31.503C92.7118 31.7451 92.7815 32.4677 92.6348 32.9812C90.7091 41.1481 88.5302 49.2564 86.6192 57.427C86.3019 59.2702 85.4436 61.1574 85.9809 63.0354C86.7219 63.1344 87.5344 63.0354 88.0956 62.4962C90.0653 60.7301 92.0809 58.9235 93.4014 56.5943C94.1442 55.2261 94.9567 53.8965 95.815 52.598C96.0644 52.1963 96.3707 51.8075 96.4496 51.3288C96.8586 49.3994 97.3703 47.4939 97.7774 45.5663C96.2808 45.669 94.7861 45.8341 93.284 45.8304C92.5908 45.8322 91.9159 45.6232 91.3253 45.2674C91.0429 44.1156 91.0025 42.9271 91.0502 41.7479C93.6417 41.5094 96.224 41.9606 98.8118 42.0101C99.4922 39.6534 100.211 37.3077 100.941 34.9656C102.042 35.4003 103.325 35.5617 104.2 36.4255C104.914 37.1536 105.258 38.2284 105.095 39.2371C104.947 40.1761 104.849 41.1206 104.752 42.067C107.479 42.553 110.203 43.0537 112.923 43.5764C112.156 44.4127 111.131 44.9336 110.133 45.4361C108.33 46.2357 106.295 45.3792 104.45 45.968C103.938 46.2284 104.006 46.8831 103.863 47.3527C102.885 51.2646 101.537 55.0812 100.695 59.0281C100.338 60.3266 100.046 61.7076 100.323 63.0501C101.069 63.239 101.906 63.0794 102.469 62.5347C104.396 60.7997 106.37 59.0207 107.637 56.7227C108.29 55.4884 109.068 54.3275 109.737 53.1042C110.742 51.2848 112.147 49.7387 113.328 48.0404C113.671 47.5526 114.075 46.9088 114.768 46.995C115.859 47.1711 116.95 47.371 118.045 47.5416C119.171 47.7158 120.231 48.145 121.317 48.4732C121.299 48.8896 121.277 49.3114 121.154 49.7149C120.631 51.6828 120.688 53.7351 120.644 55.7543C120.607 58.1587 120.418 60.5815 120.761 62.9749C120.903 63.6847 121.015 64.5412 121.689 64.9575C122.06 65.2216 122.533 64.9997 122.832 64.7301C123.756 63.9304 124.53 62.9566 125.11 61.8818C125.567 61.1977 125.224 60.3192 125.574 59.5874C126.669 56.7282 129.035 54.4907 131.711 53.0803C132.039 52.8841 132.406 52.3467 132.054 52.0202C130.742 50.7016 129.744 49.0693 128.189 48.0056C127.419 47.4444 126.557 47.0225 125.664 46.7052C123.164 45.7772 121.079 43.7671 120.134 41.2655C119.608 39.6186 119.683 37.79 120.352 36.1944C120.941 34.7657 121.902 33.5241 122.975 32.4273C124.596 30.8281 126.638 29.7643 128.655 28.7575C129.559 28.3228 130.539 28.0844 131.489 27.7763C132.019 28.0972 132.514 28.4805 132.928 28.9464C133.202 29.2581 133.449 29.5919 133.684 29.9386C134.054 30.564 134.408 31.2114 134.632 31.9065C134.638 32.3503 134.139 32.5887 133.845 32.8547C131.72 34.3421 129.475 35.802 127.984 37.9789C126.973 39.404 126.386 41.1243 126.357 42.874C129.202 45.4288 132.807 47.0996 135.256 50.0982C135.745 50.7126 136.598 50.8666 137.336 50.7034C138.359 50.4925 139.366 50.2119 140.393 50.0138C140.598 49.9698 140.806 49.9276 141.015 49.8891C141.473 50.4613 141.702 51.1638 141.944 51.846C141.834 51.8754 141.618 51.934 141.51 51.9634C140.446 52.31 139.259 52.4091 138.348 53.1115C138.113 53.2912 137.82 53.5828 137.996 53.9056C138.764 56.2257 139.289 58.7603 138.669 61.1776C137.827 63.4426 135.745 65.0877 133.46 65.7461C132.263 66.0762 130.999 66.2872 129.757 66.1624C128.131 65.6984 127.063 64.244 126.06 62.9786C125.638 63.9066 124.98 64.7759 124.107 65.3151C122.942 65.8066 121.567 66.0817 120.362 65.5645C118.438 64.8639 117.383 62.9309 116.917 61.0473C115.998 61.9112 115.05 62.8245 113.86 63.294C111.901 63.9689 109.629 62.8025 108.855 60.9226C108.492 60.1615 108.523 59.2958 108.297 58.5017C107.003 60.167 105.642 61.8048 104.019 63.162C103.124 63.8937 102.131 64.5888 100.978 64.8199C99.263 64.9942 97.4656 64.2679 96.3597 62.9419C95.4555 61.8653 95.2795 60.3963 95.2244 59.0427C95.2263 58.1973 95.2226 57.3316 95.4537 56.5118C94.9732 57.4361 94.2377 58.1826 93.6087 59.0024C91.9929 60.9758 90.2982 62.9896 88.0571 64.2752C86.0873 65.4673 83.4555 64.6494 81.9736 63.0464C80.9759 61.9864 80.743 60.4751 80.6604 59.0794C80.024 60.6163 79.1382 62.0249 78.1827 63.3802C77.6435 64.3284 76.4972 64.6365 75.4921 64.7888C74.6081 64.8933 73.6435 64.9153 72.8365 64.4843C72.0809 64.0111 71.582 63.2005 71.3784 62.3422C70.9658 60.7264 70.7989 59.0482 70.8649 57.3829C69.5096 59.0574 67.958 60.5613 66.4174 62.0615C64.5632 63.7855 61.8507 64.6347 59.3674 63.9854C58.1478 63.7158 57.04 62.8392 56.6824 61.6177C56.0936 59.5049 56.2385 57.183 57.139 55.1784C58.0542 53.2234 59.305 51.4444 60.2697 49.5186C59.7379 49.2105 59.2042 48.9079 58.676 48.598C56.73 51.3288 55.4242 54.4577 53.4563 57.1757C52.8474 58.0249 52.0753 58.7346 51.382 59.5123C50.5732 60.4935 49.183 60.5907 48.0056 60.5595C46.8667 60.4824 45.5407 60.2642 44.8419 59.2555C43.9872 58.1606 44.0184 56.7007 44.0037 55.3839C43.9909 52.7704 44.6365 50.2156 45.4086 47.7378C44.0147 47.956 42.6154 48.1431 41.2234 48.3614C40.7979 48.4439 40.2898 48.5503 40.0771 48.9758C39.8148 49.5792 40.2458 50.1807 40.2568 50.7933C40.3045 51.9047 40.1413 53.0143 39.9652 54.1092C39.5342 56.5448 38.8575 58.9529 37.7735 61.1812C37.106 62.4284 35.846 63.2207 34.5915 63.791C32.3063 64.7888 29.7075 65.0583 27.2664 64.5613C25.9184 64.255 24.5099 63.4261 24.1101 62.0194C23.7487 60.6824 24.2183 59.2812 24.8363 58.0964C26.5585 55.4389 28.4512 52.7942 31.039 50.9088C31.6626 50.432 32.3705 50.045 32.8749 49.4343C33.2912 48.9428 33.1591 48.2532 32.9739 47.6975C32.5594 46.4338 32.011 45.2234 31.4663 44.0147C31.2261 43.3655 30.4209 43.2958 29.8322 43.3141C27.9854 43.4388 26.2595 44.321 24.8693 45.5076C24.4365 47.9872 24.2311 50.4998 23.9853 53.0033C23.6277 56.255 23.6901 59.5324 23.459 62.7915C23.3819 63.1565 23.4278 63.6223 23.1582 63.9048C21.9807 64.1065 20.7318 64.3284 19.5727 63.9212C18.4484 63.5013 17.6488 62.5017 17.1976 61.4196C16.0257 58.6356 15.646 55.6076 15.3306 52.6273C14.9986 50.1312 14.8684 47.6131 14.74 45.1005C14.6923 40.022 14.2888 34.9565 13.9055 29.8946C13.7258 27.5727 13.4103 25.2581 13.3351 22.9271C13.3296 22.5016 13.2875 22.0596 13.447 21.6543C13.5791 21.5131 13.7111 21.3737 13.8487 21.2398C14.5511 20.7428 15.3599 21.2214 16.0678 21.4342C17.1041 21.8358 18.2118 22.1513 19.1013 22.8446C19.9578 23.5231 20.5392 24.5319 20.7299 25.6048C21.315 25.2398 21.9514 24.9702 22.5383 24.6089C24.2769 23.5378 26.3256 23.0243 28.3595 22.9858C30.0908 22.9821 31.7048 24.0367 32.6016 25.4837C33.1977 26.4136 33.3701 27.5323 33.5296 28.6052C33.7992 30.762 33.7809 32.9537 33.5369 35.1124C33.3205 36.8914 32.9556 38.6795 32.1871 40.31C33.8689 40.2972 35.426 41.2545 36.332 42.6447C37.1848 43.9707 38.0963 45.2564 39.1326 46.4485C41.3994 46.0945 43.6699 45.7552 45.9423 45.4343C46.3036 43.9377 46.5659 42.2834 47.6975 41.1463C48.3339 40.4659 49.3353 40.5723 50.1789 40.4897C51.1234 40.4549 51.4811 41.4966 51.8002 42.2027C52.3706 43.4132 52.1065 44.774 51.8717 46.0322C51.1693 49.5737 50.1551 53.0455 49.4123 56.5778C49.2601 57.3958 49.0602 58.2229 49.1042 59.0611C49.1005 59.4132 49.537 59.5508 49.8286 59.5067C50.5549 59.0702 51.0978 58.3953 51.6571 57.7699C53.6049 55.4315 55.2537 52.8529 56.6952 50.1771C57.0455 49.4673 57.4857 48.8107 57.9772 48.1926C57.2784 47.8112 56.6915 47.2298 56.3357 46.5145C55.7874 45.2454 56.6769 43.5287 58.1019 43.4113C59.162 43.1949 60.0551 44.0276 60.4311 44.9354C60.5907 46.034 59.9744 47.1142 59.1858 47.8368C60.0001 48.0918 60.9153 48.4017 61.7406 48.0147C62.7292 47.6369 63.1657 46.5952 63.9635 45.9716C65.3628 46.4393 66.7567 46.9235 68.1597 47.3802C67.9616 48.4127 67.4004 49.3261 66.9658 50.2706C64.963 54.1257 63.1033 58.0707 60.7411 61.7241C60.6145 61.9533 60.5448 62.2486 60.7062 62.4834C61.1189 62.8502 61.7186 62.6741 62.2046 62.5971C63.1583 62.432 63.9139 61.7974 64.6916 61.2729C67.0575 59.5746 69.2088 57.5535 70.9749 55.2371C71.4243 53.2839 71.206 51.2206 71.6077 49.2527C71.8241 48.3394 72.2698 47.2408 73.3023 47.0427C73.9185 46.9015 74.687 46.509 75.2354 47.0152C76.0864 47.868 76.6934 49.0253 76.6531 50.2559C76.7008 54.355 75.9782 58.421 76.0038 62.5182C76.0644 62.8832 75.9415 63.5049 76.4128 63.6186C76.8493 63.7819 77.1006 63.316 77.3317 63.0409C78.2689 61.7149 78.9603 60.2349 79.6701 58.7805C80.2203 57.5517 80.9557 56.3687 81.0566 54.9914C82.7054 47.006 84.5981 39.0739 86.3496 31.1123C84.7558 31.2187 83.162 31.4058 81.5628 31.3764C80.8934 31.3636 80.2496 31.1435 79.6829 30.7969C79.3931 29.6103 79.3601 28.3852 79.3913 27.171C82.0726 26.9179 84.7448 27.3856 87.4207 27.4406C88.1176 25.0032 88.8677 22.5823 89.6178 20.1614ZM26.5805 25.3553C25.315 26.0449 24.1852 26.9638 23.1013 27.9083C22.5841 28.3485 22.4649 29.0729 22.52 29.7167C22.6135 30.7767 22.4851 31.846 22.6373 32.9024C22.9271 34.9491 23.1068 37.0106 23.3948 39.0574C23.5819 40.3265 23.8881 41.5736 24.1046 42.8373C24.376 42.63 24.6676 42.4485 24.9115 42.21C27.0555 39.4682 28.3173 36.0991 28.7171 32.6529C29.1151 30.4558 28.9042 28.1706 28.2586 26.0413C28.0771 25.3168 27.2206 24.9537 26.5805 25.3553ZM57.4178 45.1353C57.4086 45.8176 57.5572 46.5622 58.0579 47.0647C59.36 46.9382 59.8882 44.7337 58.6613 44.1266C58.0505 44.0037 57.427 44.5154 57.4178 45.1353ZM115.441 54.1954C114.273 56.4843 113.143 58.797 112.125 61.1574C111.927 61.6049 111.832 62.2413 112.175 62.6374C113.099 62.94 113.785 61.979 114.403 61.4398C115.969 59.3013 117.249 56.8896 117.785 54.2743C118.067 52.9171 118.456 51.5838 118.794 50.2394C117.207 51.0757 116.186 52.6145 115.441 54.1954ZM32.697 52.7502C31.1619 53.6764 29.9826 55.0501 28.6474 56.2257C27.3489 57.3463 26.265 58.7401 25.6231 60.3394C25.4159 60.8328 25.315 61.4178 25.5461 61.924C25.8194 62.5329 26.4796 62.8373 27.0977 62.9786C28.2971 63.2225 29.5461 62.9401 30.6465 62.4485C31.5819 61.9992 32.5833 61.3334 32.8382 60.2605C33.304 58.6062 33.6525 56.9153 33.8322 55.2078C33.9734 54.1917 33.7295 53.183 33.5736 52.1853C33.282 52.3724 32.9886 52.5613 32.697 52.7502ZM129.178 58.9841C128.319 59.9432 127.802 61.2656 128.024 62.5586C128.204 63.4554 128.747 64.3559 129.638 64.6879C130.816 65.1262 132.253 64.4531 132.679 63.2738C133.389 61.1024 133.238 58.753 132.756 56.5503C131.415 57.1023 130.15 57.8965 129.178 58.9841Z" fill="white"/>
<path d="M51.0206 33.4934C51.4956 33.3559 52.1889 33.3742 52.354 33.9483C52.5355 34.6874 52.6346 35.487 52.3411 36.2151C51.8991 37.3137 50.4172 37.7521 49.4452 37.0771C48.8656 36.604 47.9963 35.9272 48.2806 35.089C48.9115 34.2032 49.9991 33.7594 51.0206 33.4934Z" fill="white"/>
<path d="M74.1386 40.4604C74.5347 40.2733 75.1326 40.2348 75.3417 40.708C75.5545 41.2289 75.747 41.7919 75.6884 42.366C75.6737 43.2316 74.9034 43.9927 74.0414 44.0202C73.2656 44.0716 72.598 43.5654 72.0973 43.0262C71.8241 42.7566 71.7947 42.3109 72.0405 42.0138C72.565 41.3022 73.3261 40.7887 74.1386 40.4604Z" fill="white"/>
<path opacity="0.23" d="M5.53864 21.0917C5.83758 20.7469 6.32543 20.8074 6.72892 20.8606C7.82933 21.1284 8.86556 21.6052 9.8486 22.1573C10.2484 22.3829 10.5675 22.7332 10.7693 23.1458C9.03246 22.4434 7.28463 21.7721 5.53864 21.0917Z" fill="#16061C"/>
<path d="M4.83081 22.542C5.01605 22.0835 4.82898 21.062 5.53875 21.0913C7.28474 21.7717 9.03257 22.443 10.7694 23.1454C11.1142 23.2848 10.9326 23.7268 10.9528 24.0056C10.3971 24.145 9.82853 24.0203 9.27099 23.9561C7.86062 23.7708 6.43925 23.6516 5.03622 23.4242C4.62356 23.3252 4.8033 22.8318 4.83081 22.542ZM5.61027 22.5604C5.60844 22.6888 5.60477 22.9474 5.60294 23.0776C6.16598 23.1509 6.70885 23.3582 7.2829 23.3252C7.72307 23.3068 8.12105 23.5654 8.56672 23.5067C9.08025 23.4389 9.54426 23.7452 10.056 23.692C9.87805 23.228 9.24348 23.3252 8.84549 23.1876C7.76159 23.006 6.71252 22.5989 5.61027 22.5604Z" fill="#DAD000"/>
<path opacity="0.86" d="M143.793 21.0912C143.995 21.6121 143.784 22.1971 143.314 22.4924C142.838 22.8757 142.383 23.2847 141.928 23.6955C141.899 23.6093 141.84 23.4406 141.812 23.3562C142.379 22.9032 142.933 22.4355 143.476 21.9513C143.747 21.7514 143.894 21.425 143.793 21.0912Z" fill="#3E1630"/>
<path d="M141.473 22.9382C141.436 22.2394 142.198 21.9148 142.66 21.5388C142.693 21.6397 142.757 21.8451 142.788 21.946C142.33 22.2523 141.924 22.6264 141.473 22.9382Z" fill="#FEFC00"/>
<path d="M112.822 22.6997C113.071 21.9679 114.085 22.1532 114.37 22.762C114.177 22.7657 113.792 22.7749 113.601 22.7786C113.517 22.7712 113.348 22.7584 113.264 22.751C113.152 22.7382 112.932 22.7125 112.822 22.6997Z" fill="#FCC0F8"/>
<path d="M4.81241 23.6956C4.74455 23.3123 4.70971 22.918 4.83075 22.542C4.80324 22.8318 4.62351 23.3251 5.03616 23.4242C6.43919 23.6516 7.86057 23.7708 9.27093 23.956C9.82848 24.0202 10.397 24.1449 10.9527 24.0055C10.9876 24.3008 10.685 24.5411 10.4025 24.4457C8.92614 24.2825 7.45158 24.1064 5.97702 23.9248C5.58087 23.8918 5.18656 23.835 4.81241 23.6956Z" fill="#290636"/>
<path d="M5.61018 22.5602C6.71243 22.5987 7.76149 23.0059 8.8454 23.1874C9.24339 23.325 9.87796 23.2278 10.0559 23.6918C9.54417 23.745 9.08016 23.4387 8.56663 23.5065C8.12096 23.5652 7.72298 23.3066 7.28281 23.325C6.70876 23.358 6.16589 23.1507 5.60284 23.0774C5.60468 22.9472 5.60835 22.6886 5.61018 22.5602Z" fill="#FFFF00"/>
<path d="M135.32 24.7023C135.98 25.0856 136.111 26.0338 136.802 26.3327C137.512 26.1567 137.928 25.434 138.555 25.0856C138.944 24.794 139.447 24.915 139.892 24.9572C139.933 25.203 139.978 25.4506 140.023 25.6982C139.826 25.6266 139.63 25.5624 139.432 25.5092L139.36 25.5166C138.308 25.4836 137.658 26.3694 136.932 26.9691C136.866 26.949 136.734 26.9049 136.668 26.8848C136.221 26.1567 135.709 25.4634 135.32 24.7023Z" fill="#FFFF00"/>
<path d="M152.189 63.3145C155.289 61.9518 158.403 60.6184 161.497 59.2429C161.499 59.3255 161.502 59.4887 161.504 59.5712C160.947 59.9949 160.281 60.226 159.652 60.5102C157.104 61.6217 154.553 62.7221 152.01 63.8427C151.764 63.938 151.509 64.0481 151.243 64.0297C150.863 64.0774 150.696 63.6849 150.473 63.4594C151.047 63.5621 151.652 63.5841 152.189 63.3145Z" fill="#FFFF00"/>
<path opacity="0.33" d="M141.928 23.6962C142.383 23.2853 142.838 22.8764 143.314 22.493C143.256 23.0506 142.993 23.6265 143.188 24.184C144.107 26.4307 145.552 28.4004 146.905 30.3995C147.463 31.1625 148.072 31.9951 149 32.3234C149.882 32.6315 150.858 32.4977 151.722 32.8755C150.711 32.9176 149.697 32.936 148.688 32.8755C148.195 32.8645 147.786 32.5398 147.534 32.1382C145.662 29.3266 143.799 26.5077 141.928 23.6962Z" fill="#1F0A26"/>
<path d="M141.251 23.8315C141.431 23.6664 141.62 23.5087 141.812 23.3564C141.84 23.4408 141.899 23.6095 141.928 23.6957C143.799 26.5073 145.662 29.3262 147.534 32.1378C147.786 32.5394 148.195 32.864 148.688 32.875C149.697 32.9356 150.711 32.9172 151.722 32.875C151.942 32.9026 152.165 32.9301 152.389 32.9649C151.988 32.8329 151.868 33.3629 152.336 33.2052C152.387 33.1593 152.488 33.0676 152.538 33.0218C152.628 33.0566 152.807 33.1281 152.897 33.1648C153.521 33.7462 153.64 34.6229 153.908 35.3913C155.094 39.1346 156.252 42.887 157.453 46.6266C159.058 50.5074 160.714 54.368 162.333 58.2433C162.544 58.7568 162.434 59.3309 162.229 59.8279C158.85 61.4217 155.384 62.8265 151.973 64.3488C151.336 64.7027 150.436 64.578 150.04 63.9324C149.647 63.2245 149.449 62.4286 149.062 61.717L149.042 61.6564C148.991 61.5556 148.89 61.3556 148.838 61.2548C148.811 61.1594 148.758 60.9668 148.73 60.8696C148.778 60.589 148.679 60.4185 148.437 60.3543C148.422 60.2552 148.391 60.0553 148.376 59.9544C148.407 59.6775 148.307 59.5033 148.07 59.4336C148.054 59.3346 148.022 59.1383 148.006 59.0393C148.043 58.7623 147.942 58.5899 147.705 58.5239C147.689 58.4249 147.657 58.2231 147.641 58.1241C147.665 57.8728 147.569 57.6913 147.355 57.583C147.331 57.4913 147.285 57.3061 147.261 57.2144C147.302 56.9595 147.21 56.7779 146.99 56.6679C146.964 56.5743 146.915 56.3873 146.891 56.2937C146.933 56.0333 146.839 55.8517 146.61 55.7472C146.59 55.6463 146.55 55.4446 146.529 55.3455C146.48 55.0264 146.487 54.5496 146.091 54.467C146.067 54.3698 146.021 54.1754 145.998 54.0782C146.032 53.8031 145.932 53.6326 145.697 53.5629C145.682 53.4638 145.653 53.2621 145.638 53.1631C145.664 52.8861 145.559 52.7137 145.324 52.6477C145.31 52.5413 145.279 52.3267 145.264 52.2204C145.2 51.8994 145.187 51.4556 144.831 51.3199C144.595 50.4964 144.222 49.7224 143.896 48.9338C143.866 48.8568 143.808 48.7009 143.78 48.6238C143.362 47.2942 142.761 46.0323 142.267 44.7302C141.809 43.6646 141.455 42.5532 140.915 41.5225C140.664 40.9191 140.446 40.202 140.776 39.5839C141.517 38.2854 142.473 37.1172 143.188 35.8022C143.417 35.085 142.993 34.4138 142.748 33.7682C142.141 32.3322 141.612 30.8613 140.954 29.4472C140.925 29.3739 140.87 29.2272 140.842 29.1538C140.893 28.8952 140.804 28.7155 140.573 28.6146C140.549 28.5137 140.503 28.3102 140.479 28.2093C140.411 27.892 140.387 27.4757 140.046 27.3308C140.022 27.2464 139.973 27.0759 139.949 26.9915C139.791 26.4908 139.606 26.0011 139.432 25.5096C139.63 25.5628 139.826 25.627 140.022 25.6985C140.087 25.759 140.215 25.8801 140.279 25.9406C140.347 25.8984 140.479 25.8104 140.545 25.7664C141.649 28.6513 142.882 31.4849 144.006 34.3606C144.332 35.3051 143.965 36.2937 143.369 37.0401C142.795 37.9351 142.128 38.7769 141.651 39.7306C141.431 40.1415 141.642 40.6 141.783 40.9998C144.655 48.1066 147.536 55.2098 150.355 62.3368C150.452 62.7018 150.41 63.087 150.473 63.4593C150.696 63.6849 150.863 64.0773 151.243 64.0297C151.509 64.048 151.764 63.938 152.01 63.8426C154.553 62.722 157.104 61.6216 159.652 60.5102C160.281 60.2259 160.947 59.9948 161.504 59.5711C161.502 59.4886 161.499 59.3254 161.497 59.2428C161.607 58.1589 160.985 57.2419 160.622 56.2717C159.265 53.0493 157.899 49.8325 156.545 46.6082C155.5 43.1566 154.39 39.727 153.31 36.2863C153.086 35.5436 152.917 34.7733 152.573 34.0745C152.435 33.7921 152.085 33.7572 151.821 33.6765C150.674 33.4454 149.493 33.7095 148.341 33.5243C147.588 33.3537 146.995 32.7962 146.586 32.1653C145.334 30.2487 144.035 28.3633 142.783 26.4486C142.227 25.6031 141.601 24.7888 141.251 23.8315Z" fill="#BD9500"/>
<path d="M139.892 24.9571C140.387 24.6362 140.828 24.24 141.251 23.8311C141.602 24.7884 142.227 25.6027 142.783 26.4482C144.035 28.3629 145.334 30.2483 146.586 32.1649C146.995 32.7958 147.588 33.3533 148.342 33.5239C149.493 33.7091 150.674 33.445 151.821 33.6761C152.085 33.7568 152.435 33.7917 152.573 34.0741C152.917 34.7729 153.086 35.5431 153.31 36.2859C154.39 39.7266 155.5 43.1562 156.545 46.6078C157.899 49.8321 159.265 53.0489 160.622 56.2713C160.985 57.2415 161.607 58.1585 161.497 59.2424C158.403 60.618 155.289 61.9513 152.189 63.314C151.652 63.5836 151.047 63.5616 150.473 63.4589C150.41 63.0866 150.453 62.7014 150.355 62.3364C147.536 55.2094 144.655 48.1062 141.783 40.9994C141.642 40.5996 141.431 40.1411 141.651 39.7302C142.128 38.7765 142.795 37.9347 143.37 37.0397C143.966 36.2933 144.332 35.3047 144.006 34.3602C142.882 31.4844 141.649 28.6509 140.545 25.766C140.479 25.81 140.347 25.898 140.279 25.9402C140.215 25.8797 140.087 25.7586 140.022 25.6981C139.978 25.4505 139.933 25.2029 139.892 24.9571ZM144.73 36.5684C144.059 37.5698 143.511 38.65 142.867 39.6697C142.346 40.4602 142.209 41.4891 142.59 42.3676C145.062 48.407 147.553 54.4355 150.027 60.4731C150.238 60.9958 150.418 61.6359 150.99 61.8761C151.703 62.2686 152.708 61.8559 152.914 61.0618C153.11 60.6326 152.917 60.1796 152.73 59.7872C149.787 53.9109 146.917 47.9999 143.969 42.1255C143.723 41.645 143.454 41.0636 143.733 40.5372C144.276 39.3286 144.938 38.1786 145.473 36.97C145.57 36.5537 145.029 36.2621 144.73 36.5684ZM145.268 40.1484C145.402 40.6362 145.774 40.9865 146.084 41.368C146.414 41.324 146.744 41.2837 147.078 41.2451C147.307 40.8141 147.54 40.3831 147.692 39.9191C146.909 39.5835 145.858 39.3414 145.268 40.1484ZM147.769 41.843C147.203 42.1787 146.689 42.7711 146.709 43.4643C146.827 44.1227 147.206 44.7573 147.81 45.0801C148.659 45.5478 149.55 45.9311 150.416 46.3712C149.695 47.0498 149.229 48.1778 149.822 49.0874C150.319 49.9659 151.434 49.7862 152.277 49.9109C152.435 50.208 152.609 50.4978 152.795 50.7821C152.393 50.9453 151.962 51.0755 151.626 51.3616C151.298 51.6808 151.322 52.1888 151.459 52.5923C152.806 52.761 154.146 52.4547 155.478 52.2915C155.819 52.2236 156.177 52.352 156.424 52.5941C154.973 52.9591 153.475 53.214 152.11 53.8522C151.549 54.1805 151.615 55.325 152.364 55.3268C153.387 55.0957 154.44 55.081 155.485 55.103C155.672 55.0902 155.846 55.1672 156.01 55.2571C155.142 55.5267 154.245 55.8183 153.534 56.4015C152.85 56.9481 152.938 58.2117 153.803 58.529C154.515 58.7491 155.28 58.6556 156.01 58.5785C156.283 58.5143 156.646 58.551 156.782 58.2337C156.281 58.1237 155.782 58.3328 155.282 58.2832C154.759 58.2741 154.264 58.1072 153.789 57.9091C153.823 57.8559 153.893 57.7495 153.928 57.6982C155.131 57.1883 156.442 56.9022 157.561 56.2071C158.022 55.8697 157.558 55.3048 157.376 54.9361C156.862 54.5914 156.158 54.7216 155.63 54.3859C156.312 54.175 157.042 53.9916 157.587 53.5019C157.845 53.1957 157.569 52.8105 157.426 52.5189C157.057 51.8 156.131 51.9962 155.509 51.6808C156.182 51.4295 156.426 50.5877 156.046 49.9953C155.045 50.0155 154.106 50.3859 153.143 50.6079C152.916 50.3493 152.703 50.0815 152.527 49.7899C153.343 49.6211 154.088 49.1131 154.526 48.4033C154.812 47.9944 154.535 47.5487 154.365 47.1635C154.552 46.7857 154.731 46.3089 154.467 45.9237C153.31 45.4707 152.052 45.8504 150.907 46.1512C149.748 45.6651 148.63 45.0727 147.597 44.363C147.384 44.1924 146.939 43.7963 147.331 43.5744C148.729 42.8811 150.39 43.0131 151.826 43.5285C151.733 43.7578 151.342 43.943 151.564 44.2218C152.197 44.2988 152.749 43.7486 152.481 43.1177C151.945 42.3639 151.049 41.9292 150.146 41.81C149.365 41.7055 148.505 41.4359 147.769 41.843Z" fill="#C9A200"/>
<path d="M152.62 49.0512C152.778 48.191 153.453 47.4464 154.398 47.584C154.487 48.5047 153.339 48.8843 152.62 49.0512Z" fill="#C9A200"/>
<path d="M150.001 48.7886C150.405 47.5947 151.859 47.9798 152.817 47.8643C152.648 48.2916 152.472 48.7152 152.316 49.1481C151.551 49.1554 150.563 49.4727 150.001 48.7886Z" fill="#C9A200"/>
<path opacity="0.4" d="M113.746 25.3534C113.829 24.8913 113.821 24.3117 114.351 24.1283C114.601 24.3264 114.87 24.5024 115.151 24.6602C114.958 24.9041 114.637 25.1278 114.718 25.4855C114.808 25.944 115.01 26.3787 115.032 26.85C114.597 26.3566 114.137 25.8816 113.746 25.3534Z" fill="#240D2C"/>
<path opacity="0.4" d="M137.785 27.246C138.3 26.7985 138.814 26.3437 139.369 25.9438C139.54 26.3033 139.742 26.6499 139.949 26.9911C139.973 27.0754 140.022 27.246 140.046 27.3304C140.022 27.6623 140.075 28.1337 140.479 28.2089C140.503 28.3097 140.549 28.5133 140.572 28.6142C140.51 28.8728 140.6 29.0525 140.842 29.1534C140.869 29.2268 140.925 29.3735 140.954 29.4468C140.991 29.6156 141.064 29.9512 141.101 30.1181C140.303 29.3313 140.169 28.0713 139.268 27.3634C138.836 27.0369 138.273 27.2167 137.785 27.246Z" fill="#240D2C"/>
<path d="M109.48 24.9923C109.807 24.8492 110.153 25.15 109.972 25.493C109.638 25.8158 109.146 25.3389 109.48 24.9923Z" fill="#685E67"/>
<path opacity="0.31" d="M137.785 27.2464C138.273 27.217 138.836 27.0373 139.269 27.3637C140.169 28.0717 140.303 29.3317 141.101 30.1185C141.761 31.5802 142.304 33.0914 142.937 34.5641C143.113 34.9529 143.168 35.3784 143.188 35.8021C142.473 37.1171 141.517 38.2854 140.776 39.5839C140.446 40.2019 140.664 40.919 140.916 41.5224C141.612 43.6994 142.608 45.7682 143.393 47.914C143.479 48.1689 143.58 48.4294 143.78 48.6238C143.808 48.7008 143.866 48.8567 143.896 48.9337C143.929 49.0585 143.997 49.3079 144.032 49.4326C143.863 49.4564 143.524 49.5023 143.355 49.5261C142.324 46.6522 140.813 43.925 140.286 40.8915C140.112 38.8264 141.983 37.3537 142.199 35.3729C142.152 34.0084 141.471 32.7815 141.015 31.5252C140.523 30.4211 140.055 29.2528 139.208 28.3688C138.667 27.7654 137.803 27.8296 137.073 27.8956C137.304 27.6737 137.541 27.4573 137.785 27.2464Z" fill="#1C0A23"/>
<path opacity="0.84" d="M140.046 27.3307C140.387 27.4756 140.411 27.8919 140.479 28.2092C140.076 28.134 140.022 27.6626 140.046 27.3307Z" fill="#512132"/>
<path opacity="0.86" d="M140.573 28.6146C140.804 28.7155 140.894 28.8952 140.842 29.1538C140.6 29.053 140.51 28.8732 140.573 28.6146Z" fill="#57252F"/>
<path d="M152.336 33.205C151.868 33.3627 151.988 32.8327 152.389 32.9647L152.538 33.0216C152.488 33.0674 152.387 33.1591 152.336 33.205Z" fill="#FDFA0F"/>
<path opacity="0.31" d="M152.897 33.1653C153.084 33.2698 153.368 33.2918 153.469 33.5174C153.858 34.3189 154.267 35.1149 154.562 35.9567C155.736 39.0892 156.595 42.3281 157.658 45.4973C158.414 47.8815 159.534 50.1245 160.44 52.4519C161.191 54.1062 161.842 55.8027 162.518 57.49C163.074 58.7353 162.568 60.4189 161.332 61.0535C160.066 61.7871 158.79 62.5115 157.424 63.0397C155.744 63.7073 154.15 64.6372 152.352 64.9563C151.975 65.0462 151.582 65.07 151.206 64.971C154.507 63.6725 157.724 62.1667 160.987 60.7729C161.449 60.54 162.073 60.4006 162.229 59.8284C162.434 59.3313 162.544 58.7573 162.333 58.2438C160.714 54.3685 159.058 50.5078 157.453 46.627C156.252 42.8875 155.094 39.135 153.908 35.3918C153.64 34.6233 153.521 33.7467 152.897 33.1653Z" fill="#1C0922"/>
<path d="M145.268 40.1485C145.858 39.3415 146.909 39.5836 147.692 39.9192C147.54 40.3832 147.307 40.8142 147.078 41.2452C146.744 41.2837 146.414 41.3241 146.084 41.3681C145.774 40.9866 145.401 40.6363 145.268 40.1485Z" fill="#45244F"/>
<path d="M147.769 41.8434C148.505 41.4362 149.365 41.7058 150.146 41.8103C151.048 41.9296 151.945 42.3642 152.481 43.118C152.749 43.7489 152.197 44.2991 151.564 44.2221C151.342 43.9433 151.733 43.7581 151.826 43.5288C150.39 43.0135 148.728 42.8814 147.331 43.5747C146.938 43.7966 147.384 44.1927 147.597 44.3633C148.629 45.0731 149.748 45.6655 150.907 46.1515C152.052 45.8507 153.31 45.4711 154.467 45.9241C154.731 46.3092 154.551 46.7861 154.364 47.1639C154.535 47.549 154.812 47.9947 154.526 48.4037C154.087 49.1134 153.343 49.6215 152.527 49.7902C152.703 50.0818 152.916 50.3496 153.143 50.6082C154.106 50.3863 155.045 50.0158 156.046 49.9956C156.426 50.588 156.182 51.4298 155.509 51.6811C156.131 51.9965 157.057 51.8003 157.425 52.5192C157.568 52.8108 157.845 53.196 157.587 53.5023C157.042 53.9919 156.312 54.1753 155.63 54.3863C156.158 54.7219 156.862 54.5917 157.376 54.9365C157.557 55.3051 158.021 55.87 157.561 56.2074C156.442 56.9025 155.131 57.1887 153.928 57.6985C153.893 57.7499 153.823 57.8562 153.789 57.9094C154.264 58.1075 154.759 58.2744 155.281 58.2836C155.782 58.3331 156.281 58.124 156.782 58.234C156.646 58.5513 156.283 58.5147 156.01 58.5788C155.28 58.6559 154.515 58.7494 153.803 58.5293C152.938 58.212 152.85 56.9484 153.534 56.4019C154.245 55.8186 155.142 55.527 156.01 55.2574C155.846 55.1676 155.672 55.0905 155.485 55.1034C154.44 55.0814 153.387 55.096 152.364 55.3271C151.615 55.3253 151.549 54.1809 152.11 53.8526C153.475 53.2143 154.973 52.9594 156.424 52.5944C156.176 52.3523 155.819 52.2239 155.478 52.2918C154.146 52.455 152.806 52.7613 151.459 52.5926C151.322 52.1891 151.298 51.6811 151.626 51.362C151.962 51.0758 152.393 50.9456 152.794 50.7824C152.609 50.4981 152.435 50.2083 152.277 49.9112C151.434 49.7865 150.319 49.9663 149.822 49.0878C149.229 48.1781 149.695 47.0502 150.416 46.3716C149.55 45.9314 148.659 45.5481 147.81 45.0804C147.206 44.7576 146.827 44.1231 146.709 43.4646C146.689 42.7714 147.203 42.179 147.769 41.8434ZM152.62 49.0511C153.339 48.8842 154.487 48.5045 154.397 47.5839C153.453 47.4463 152.778 48.1909 152.62 49.0511ZM150.001 48.7888C150.562 49.4729 151.551 49.1556 152.316 49.1483C152.472 48.7155 152.648 48.2918 152.817 47.8645C151.859 47.98 150.405 47.5949 150.001 48.7888Z" fill="#45244F"/>
<path opacity="0.31" d="M143.896 48.9335C144.222 49.7221 144.595 50.4961 144.831 51.3195C144.851 51.646 144.855 52.1393 145.264 52.22C145.279 52.3264 145.31 52.541 145.325 52.6474C145.288 52.9078 145.392 53.0784 145.638 53.1627C145.653 53.2618 145.682 53.4635 145.697 53.5626C145.653 53.8193 145.754 53.9917 145.998 54.0779C146.022 54.1751 146.067 54.3695 146.091 54.4667C146.15 54.7785 146.135 55.2554 146.53 55.3452C146.55 55.4443 146.59 55.646 146.61 55.7469C146.553 56.0073 146.647 56.1907 146.891 56.2934C146.915 56.387 146.964 56.574 146.99 56.6676C146.92 56.9298 147.012 57.1132 147.261 57.2141C147.285 57.3058 147.331 57.491 147.355 57.5827C147.287 57.8542 147.382 58.0339 147.641 58.1238C147.657 58.2228 147.689 58.4246 147.705 58.5236C147.665 58.7804 147.766 58.9509 148.006 59.039C148.022 59.138 148.054 59.3342 148.07 59.4333C148.032 59.6919 148.134 59.8643 148.376 59.9541C148.391 60.055 148.422 60.2549 148.437 60.3539C148.398 60.6052 148.497 60.7776 148.73 60.8693C148.758 60.9665 148.811 61.1591 148.839 61.2545C148.89 61.3553 148.991 61.5552 149.042 61.6561L149.062 61.7166C149.227 62.5878 149.686 63.3581 149.95 64.1981C149.723 64.0624 149.44 63.9963 149.303 63.7561C148.716 62.9326 148.395 61.9624 147.988 61.0472C146.698 57.7937 145.328 54.5731 144.063 51.3104C144.279 51.259 144.497 51.2113 144.718 51.1655C144.521 50.5731 144.261 50.0082 144.032 49.4323C143.997 49.3076 143.929 49.0582 143.896 48.9335Z" fill="#1D0A24"/>
<path d="M142.276 49.6635C142.335 49.6561 142.456 49.6396 142.517 49.6305C142.794 49.5938 143.072 49.5608 143.355 49.5259C143.524 49.5021 143.863 49.4562 144.032 49.4324C144.261 50.0083 144.521 50.5731 144.717 51.1655C144.497 51.2114 144.279 51.2591 144.063 51.3104C143.863 51.3563 143.667 51.4021 143.472 51.4516C143.212 50.9069 143.061 50.3109 142.742 49.7973C142.625 49.7643 142.392 49.6965 142.276 49.6635Z" fill="#DBCDDF"/>
<path d="M141.015 49.8893C141.433 49.8086 141.851 49.7242 142.276 49.6637C142.392 49.6967 142.625 49.7646 142.742 49.7976C143.061 50.3111 143.212 50.9072 143.472 51.4519L143.432 51.4629C142.933 51.5876 142.438 51.7141 141.944 51.8462C141.702 51.1639 141.473 50.4615 141.015 49.8893Z" fill="#F1EDF2"/>
<path opacity="0.84" d="M144.831 51.3197C145.187 51.4554 145.2 51.8992 145.264 52.2202C144.855 52.1395 144.851 51.6462 144.831 51.3197Z" fill="#56282D"/>
<path opacity="0.8" d="M145.325 52.6478C145.559 52.7139 145.664 52.8863 145.638 53.1632C145.392 53.0788 145.288 52.9083 145.325 52.6478Z" fill="#451A30"/>
<path opacity="0.79" d="M145.697 53.5626C145.932 53.6323 146.032 53.8029 145.998 54.078C145.754 53.9918 145.653 53.8194 145.697 53.5626Z" fill="#441931"/>
<path opacity="0.9" d="M146.091 54.467C146.487 54.5496 146.48 55.0264 146.53 55.3455C146.135 55.2557 146.15 54.7788 146.091 54.467Z" fill="#673629"/>
<path opacity="0.87" d="M146.61 55.7473C146.839 55.8519 146.933 56.0334 146.891 56.2939C146.647 56.1912 146.553 56.0077 146.61 55.7473Z" fill="#57262F"/>
<path opacity="0.86" d="M146.99 56.6672C147.21 56.7773 147.302 56.9588 147.261 57.2138C147.012 57.1129 146.92 56.9295 146.99 56.6672Z" fill="#55252F"/>
<path opacity="0.85" d="M147.355 57.5831C147.569 57.6913 147.665 57.8729 147.641 58.1242C147.382 58.0343 147.287 57.8546 147.355 57.5831Z" fill="#54252F"/>
<path opacity="0.85" d="M147.705 58.5239C147.942 58.59 148.043 58.7623 148.006 59.0393C147.766 58.9513 147.665 58.7807 147.705 58.5239Z" fill="#52232F"/>
<path opacity="0.85" d="M148.07 59.4336C148.307 59.5033 148.407 59.6775 148.376 59.9545C148.134 59.8646 148.032 59.6922 148.07 59.4336Z" fill="#50222F"/>
<path opacity="0.84" d="M148.437 60.3541C148.679 60.4183 148.778 60.5889 148.73 60.8695C148.497 60.7778 148.398 60.6054 148.437 60.3541Z" fill="#4F2130"/>
<path opacity="0.95" d="M148.839 61.2549C148.89 61.3558 148.991 61.5557 149.042 61.6565C148.991 61.5557 148.89 61.3558 148.839 61.2549Z" fill="#602B2F"/>
<path opacity="0.09" d="M141.031 63.0211C142.142 63.2449 143.577 63.111 144.307 64.1509C144.714 64.6186 144.633 65.277 144.642 65.851C144.738 66.5755 143.927 67.1348 144.224 67.8684C144.576 68.9982 144.628 70.183 144.804 71.3458C144.927 72.6241 144.27 73.9501 143.181 74.6305C142.48 75.0212 141.673 75.2614 141.108 75.8593C140.242 76.6259 140.184 77.9042 139.386 78.7204C138.39 79.808 136.738 80.3692 135.311 79.8997C134.086 79.5897 133.139 78.6195 132.62 77.4989C132.138 76.2426 132.142 74.8744 132.244 73.5539C132.398 72.736 132.505 71.8831 132.914 71.144C133.288 70.3829 133.911 69.7612 134.172 68.9432C134.342 68.5214 134.39 68.0005 134.79 67.7181C135.162 67.3843 135.637 67.2137 136.072 66.9771C136.528 66.5296 136.912 65.9904 137.49 65.6805C137.932 65.3778 138.579 65.3393 138.867 64.8368C139.014 64.4443 139.124 64.028 139.401 63.7015C139.742 63.1477 140.448 63.0908 141.031 63.0211ZM140.103 64.2132C140.088 64.3343 140.057 64.5782 140.041 64.7011C140.055 64.7909 140.083 64.9707 140.098 65.0606C141.057 65.5961 142.075 66.0179 143.056 66.5168C143.476 66.1078 143.435 65.4475 143.536 64.912C143.456 64.868 143.294 64.7799 143.214 64.7359C143.102 64.7396 142.876 64.7469 142.764 64.7506C142.693 64.5122 142.229 64.4865 142.018 64.5764L141.845 64.6039L141.844 64.4938C141.704 64.4828 141.425 64.4608 141.286 64.4498C140.928 64.2481 140.503 64.2224 140.103 64.2132ZM137.713 67.4191C137.644 67.6887 137.816 67.9253 137.946 68.1436C137.921 68.2499 137.869 68.4627 137.842 68.569C138.089 69.3907 138.388 70.2032 138.757 70.979C139.12 71.5347 139.347 72.2334 139.965 72.5691C140.198 72.6956 140.437 72.9487 140.734 72.7836C140.86 72.9304 140.906 73.2348 141.161 73.1981C141.733 72.7928 142.251 72.3178 142.801 71.885C142.971 71.7107 143.298 71.5328 143.125 71.2357C143.153 71.1752 143.206 71.0542 143.232 70.9955C141.785 69.7337 140.395 68.3673 138.893 67.1935C138.797 67.1037 138.606 66.9239 138.511 66.8341L138.605 66.7919C138.24 66.6268 137.517 66.9863 137.713 67.4191ZM135.7 68.3911C135.63 68.8093 135.575 69.233 135.527 69.6566C134.966 70.1151 134.929 70.9038 134.775 71.5603C134.606 72.5819 134.318 73.5851 134.273 74.6268C134.084 75.4356 134.148 76.4425 134.768 77.0569C134.79 77.1174 134.832 77.2385 134.854 77.299C135.901 77.3999 136.95 77.5649 138.007 77.5539C138.031 77.4732 138.076 77.3137 138.1 77.233C138.361 76.5911 138.612 75.8942 138.452 75.1954C138.256 74.526 138.333 73.8199 138.168 73.1449C138.054 72.1417 137.631 71.2155 137.269 70.2839C137.119 69.8492 136.765 69.5411 136.385 69.3118C136.321 69.0037 136.25 68.6974 136.167 68.3985C136.164 68.1619 135.668 68.1289 135.7 68.3911Z" fill="#080209"/>
<path d="M141.286 64.4493C141.426 64.4603 141.704 64.4824 141.844 64.4934L141.846 64.6034C141.625 64.6603 141.44 64.6089 141.286 64.4493Z" fill="#FFC7FF"/>
<path d="M142.018 64.5761C142.229 64.4862 142.693 64.5119 142.764 64.7503C142.52 64.7705 142.124 64.8695 142.018 64.5761Z" fill="#FFC7FF"/>
<path d="M138.893 67.1931C138.63 67.2389 137.963 67.0189 138.511 66.8336C138.607 66.9235 138.797 67.1032 138.893 67.1931Z" fill="#FFC7FF"/>
<path d="M135.483 76.315C136.059 76.1133 136.973 76.0656 137.347 76.647C136.723 76.6084 135.916 76.9092 135.483 76.315Z" fill="#FFC7FF"/>
<path d="M142.478 65.3258C142.582 65.4248 142.582 65.4248 142.478 65.3258V65.3258Z" fill="#FFE5FF"/>
<path d="M137.713 67.4193C137.517 66.9864 138.24 66.627 138.605 66.792L138.511 66.8342C137.963 67.0194 138.63 67.2395 138.893 67.1937C140.395 68.3674 141.785 69.7338 143.232 70.9956C143.206 71.0543 143.153 71.1753 143.125 71.2359C142.423 71.7824 141.805 72.461 141.007 72.8682C139.892 71.0616 138.847 69.2148 137.713 67.4193ZM140.811 71.2139C140.884 71.3753 140.961 71.5403 141.038 71.7054C140.868 72.0465 141.557 72.2483 141.598 71.8503L141.667 71.92C141.842 71.7274 142.007 71.5293 142.12 71.2946C141.678 71.3624 141.189 71.555 140.811 71.2139Z" fill="#A05399"/>
<path opacity="0.24" d="M137.946 68.1431C138.893 69.6781 139.813 71.2316 140.734 72.7832C140.437 72.9482 140.198 72.6951 139.965 72.5686C139.347 72.2329 139.12 71.5342 138.757 70.9785C138.388 70.2027 138.089 69.3902 137.842 68.5686C137.869 68.4622 137.921 68.2494 137.946 68.1431Z" fill="#16071B"/>
<path opacity="0.25" d="M136.385 69.3115C136.765 69.5408 137.119 69.8489 137.27 70.2836C137.631 71.2152 138.054 72.1414 138.168 73.1446C138.333 73.8196 138.256 74.5257 138.452 75.1951C138.612 75.8938 138.361 76.5908 138.1 77.2327C137.739 75.0997 137.176 73.0071 136.721 70.8943C136.598 70.3679 136.494 69.8397 136.385 69.3115Z" fill="#18071E"/>
<path opacity="0.24" d="M134.775 71.5598C134.929 70.9033 134.966 70.1146 135.527 69.6561C135.503 69.9624 135.487 70.2705 135.463 70.5786C135.195 72.6804 134.951 74.7877 134.748 76.8969L134.768 77.0564C134.148 76.442 134.084 75.4351 134.273 74.6263C134.319 73.5846 134.606 72.5814 134.775 71.5598Z" fill="#17071C"/>
<path d="M134.748 76.897C134.951 74.7878 135.195 72.6805 135.463 70.5787C135.509 70.8465 135.283 71.2317 135.538 71.4352C135.83 71.3839 135.681 70.9272 135.775 70.7126C136.09 70.5256 136.413 70.8208 136.721 70.8942C137.176 73.007 137.739 75.0996 138.1 77.2326C136.978 77.1684 135.859 77.0584 134.748 76.897ZM135.483 76.3156C135.916 76.9098 136.723 76.609 137.346 76.6475C136.972 76.0661 136.059 76.1138 135.483 76.3156Z" fill="#9F5297"/>
<path d="M140.811 71.214C141.189 71.5551 141.679 71.3625 142.121 71.2947C142.007 71.5294 141.842 71.7275 141.668 71.9201L141.598 71.8504C141.444 71.6908 141.257 71.6432 141.038 71.7055C140.961 71.5404 140.884 71.3754 140.811 71.214Z" fill="#DB73D2"/>
<path d="M141.038 71.705C141.257 71.6427 141.444 71.6904 141.598 71.8499C141.557 72.2479 140.868 72.0462 141.038 71.705Z" fill="#FFB9FF"/>
</svg>
