<svg width="13" height="13" viewBox="0 0 13 13" fill="none" xmlns="http://www.w3.org/2000/svg">
<path d="M2.4375 0.813516H0.8125C0.363848 0.813516 0 1.17711 0 1.60316V7.26781C0 7.71646 0.363848 8.05746 0.8125 8.05746H2.4375C2.88615 8.05746 3.25 7.69361 3.25 7.26781V1.62576C3.25 1.17711 2.88691 0.813516 2.4375 0.813516ZM11.865 6.09883C12.0631 5.88301 12.1875 5.59609 12.1875 5.27871C12.1875 4.68279 11.7592 4.18895 11.1937 4.08307C11.3064 3.9 11.375 3.68418 11.375 3.43027C11.375 2.88895 11.0195 2.43547 10.5308 2.27678C10.5498 2.21203 10.5625 2.12291 10.5625 2.03074C10.5625 1.35764 10.0166 0.8125 9.34375 0.8125H7.85357C6.9748 0.8125 6.1199 1.09738 5.41684 1.62449L4.55 2.27424C4.24277 2.50428 4.0625 2.8666 4.0625 3.22715L4.06523 7.28965C4.06523 7.28965 4.06463 7.28905 4.06523 7.28965C4.06701 7.64486 4.22069 7.99906 4.51997 8.23824L4.93384 8.56908C7.01289 10.2553 6.07852 12.1875 7.68066 12.1875C8.46676 12.1875 8.93674 11.5649 8.93674 10.966C8.93674 10.5813 8.63814 9.49025 8.06025 8.52795H11.7812C12.4546 8.52795 13 7.98281 13 7.30971C13 6.66504 12.4973 6.14199 11.865 6.09883Z" fill="#919191"/>
</svg>
