<svg width="61" height="61" viewBox="0 0 61 61" fill="none" xmlns="http://www.w3.org/2000/svg">
<path d="M57.5734 26.7867L6.61835 1.30918C5.93094 0.990699 5.17479 0.849203 4.41874 0.897575C3.66268 0.945947 2.93072 1.18265 2.2895 1.58614C1.64828 1.98963 1.11816 2.54709 0.747403 3.20777C0.376641 3.86845 0.177012 4.61137 0.166688 5.36891V56.302C0.160269 57.0796 0.354555 57.8457 0.730767 58.5263C1.10698 59.2068 1.6524 59.7789 2.3143 60.187C2.97621 60.5952 3.73221 60.8257 4.50925 60.8563C5.28629 60.8869 6.05808 60.7166 6.75002 60.3617L57.5734 34.8842C58.3262 34.5063 58.9591 33.9265 59.4014 33.2095C59.8437 32.4926 60.078 31.6668 60.078 30.8245C60.078 29.9821 59.8437 29.1563 59.4014 28.4394C58.9591 27.7225 58.3262 27.1427 57.5734 26.7647V26.7867Z" fill="white"/>
</svg>
