<svg width="30" height="30" viewBox="0 0 30 30" fill="none" xmlns="http://www.w3.org/2000/svg">
<path d="M19.3083 14.6C19.3083 15.81 18.8277 16.9705 17.972 17.8262C17.1164 18.6818 15.9559 19.1625 14.7458 19.1625C13.5358 19.1625 12.3753 18.6818 11.5197 17.8262C10.664 16.9705 10.1833 15.81 10.1833 14.6C10.1833 14.3399 10.2107 14.086 10.2579 13.8396H8.66251V19.9184C8.66251 20.3411 9.0047 20.6833 9.42749 20.6833H20.0657C20.2683 20.6829 20.4625 20.6022 20.6057 20.4587C20.7488 20.3153 20.8292 20.121 20.8292 19.9184V13.8396H19.2338C19.281 14.086 19.3083 14.3399 19.3083 14.6V14.6ZM14.7458 17.6417C15.1454 17.6416 15.541 17.5628 15.9101 17.4098C16.2792 17.2568 16.6145 17.0326 16.8969 16.75C17.1794 16.4674 17.4034 16.132 17.5562 15.7628C17.709 15.3937 17.7876 14.998 17.7875 14.5985C17.7874 14.1989 17.7086 13.8033 17.5556 13.4342C17.4026 13.0652 17.1785 12.7298 16.8959 12.4474C16.6133 12.1649 16.2778 11.9409 15.9087 11.7881C15.5395 11.6353 15.1439 11.5567 14.7443 11.5568C13.9374 11.557 13.1636 11.8777 12.5932 12.4485C12.0228 13.0192 11.7025 13.7931 11.7027 14.6C11.7029 15.4069 12.0236 16.1807 12.5943 16.7511C13.165 17.3215 13.9389 17.6419 14.7458 17.6417V17.6417ZM18.3958 11.4062H20.2193C20.3405 11.4063 20.4567 11.3582 20.5425 11.2727C20.6283 11.1872 20.6767 11.0711 20.6771 10.95V9.12652C20.6771 9.00511 20.6289 8.88868 20.543 8.80283C20.4572 8.71698 20.3407 8.66875 20.2193 8.66875H18.3958C18.2744 8.66875 18.158 8.71698 18.0721 8.80283C17.9863 8.88868 17.9381 9.00511 17.9381 9.12652V10.95C17.9396 11.2009 18.1449 11.4062 18.3958 11.4062V11.4062ZM14.7458 0C10.8737 0 7.16012 1.53821 4.42208 4.27624C1.68405 7.01427 0.145844 10.7278 0.145844 14.6C0.145844 18.4722 1.68405 22.1857 4.42208 24.9238C7.16012 27.6618 10.8737 29.2 14.7458 29.2C16.6631 29.2 18.5617 28.8224 20.333 28.0886C22.1044 27.3549 23.7139 26.2795 25.0696 24.9238C26.4253 23.568 27.5008 21.9585 28.2345 20.1872C28.9682 18.4158 29.3458 16.5173 29.3458 14.6C29.3458 12.6827 28.9682 10.7842 28.2345 9.01282C27.5008 7.24147 26.4253 5.63198 25.0696 4.27624C23.7139 2.92051 22.1044 1.84508 20.333 1.11136C18.5617 0.37764 16.6631 0 14.7458 0V0ZM22.35 20.5145C22.35 21.4437 21.5896 22.2042 20.6604 22.2042H8.83132C7.90209 22.2042 7.14168 21.4437 7.14168 20.5145V8.68548C7.14168 7.75625 7.90209 6.99583 8.83132 6.99583H20.6604C21.5896 6.99583 22.35 7.75625 22.35 8.68548V20.5145V20.5145Z" fill="#FDF6D6"/>
</svg>
