<svg width="8" height="8" viewBox="0 0 8 8" fill="none" xmlns="http://www.w3.org/2000/svg">
<path d="M6.70994 1.28994C6.61698 1.19621 6.50637 1.12182 6.38452 1.07105C6.26266 1.02028 6.13195 0.994141 5.99994 0.994141C5.86793 0.994141 5.73722 1.02028 5.61536 1.07105C5.4935 1.12182 5.3829 1.19621 5.28994 1.28994L3.99994 2.58994L2.70994 1.28994C2.52164 1.10164 2.26624 0.995848 1.99994 0.995848C1.73364 0.995848 1.47824 1.10164 1.28994 1.28994C1.10164 1.47824 0.995848 1.73364 0.995848 1.99994C0.995848 2.26624 1.10164 2.52164 1.28994 2.70994L2.58994 3.99994L1.28994 5.28994C1.19621 5.3829 1.12182 5.4935 1.07105 5.61536C1.02028 5.73722 0.994141 5.86793 0.994141 5.99994C0.994141 6.13195 1.02028 6.26266 1.07105 6.38452C1.12182 6.50637 1.19621 6.61698 1.28994 6.70994C1.3829 6.80367 1.4935 6.87806 1.61536 6.92883C1.73722 6.9796 1.86793 7.00574 1.99994 7.00574C2.13195 7.00574 2.26266 6.9796 2.38452 6.92883C2.50638 6.87806 2.61698 6.80367 2.70994 6.70994L3.99994 5.40994L5.28994 6.70994C5.3829 6.80367 5.4935 6.87806 5.61536 6.92883C5.73722 6.9796 5.86793 7.00574 5.99994 7.00574C6.13195 7.00574 6.26266 6.9796 6.38452 6.92883C6.50637 6.87806 6.61698 6.80367 6.70994 6.70994C6.80367 6.61698 6.87806 6.50637 6.92883 6.38452C6.9796 6.26266 7.00574 6.13195 7.00574 5.99994C7.00574 5.86793 6.9796 5.73722 6.92883 5.61536C6.87806 5.4935 6.80367 5.3829 6.70994 5.28994L5.40994 3.99994L6.70994 2.70994C6.80367 2.61698 6.87806 2.50638 6.92883 2.38452C6.9796 2.26266 7.00574 2.13195 7.00574 1.99994C7.00574 1.86793 6.9796 1.73722 6.92883 1.61536C6.87806 1.4935 6.80367 1.3829 6.70994 1.28994Z" fill="#5B2222"/>
</svg>
