<svg width="23" height="23" viewBox="0 0 23 23" fill="none" xmlns="http://www.w3.org/2000/svg">
<path d="M22.0589 7.301L12.4334 3.22808C12.1376 3.10365 11.8199 3.03955 11.499 3.03955C11.1781 3.03955 10.8604 3.10365 10.5646 3.22808L0.939149 7.301C0.678981 7.41104 0.457002 7.5953 0.300938 7.83076C0.144875 8.06622 0.0616455 8.34245 0.0616455 8.62493C0.0616455 8.90742 0.144875 9.18364 0.300938 9.4191C0.457002 9.65456 0.678981 9.83883 0.939149 9.94887L4.31248 11.3753V15.9624C4.30989 16.3743 4.41456 16.7798 4.6162 17.1389C4.81783 17.4981 5.10949 17.7986 5.46248 18.0109C7.2943 19.0818 9.37805 19.6463 11.5 19.6463C13.6219 19.6463 15.7057 19.0818 17.5375 18.0109C17.8905 17.7986 18.1821 17.4981 18.3838 17.1389C18.5854 16.7798 18.6901 16.3743 18.6875 15.9624V11.3753L20.125 10.7668V13.039C19.9325 13.1223 19.7654 13.255 19.6406 13.4236C19.5157 13.5921 19.4376 13.7906 19.414 13.9991C19.3904 14.2075 19.4223 14.4185 19.5063 14.6107C19.5903 14.8028 19.7236 14.9695 19.8926 15.0937C19.7422 15.2043 19.6199 15.3486 19.5355 15.515C19.451 15.6815 19.4067 15.8654 19.4062 16.052V17.2499C19.4062 17.377 19.4567 17.4989 19.5466 17.5888C19.6364 17.6786 19.7583 17.7291 19.8854 17.7291H21.3229C21.45 17.7291 21.5719 17.6786 21.6617 17.5888C21.7516 17.4989 21.8021 17.377 21.8021 17.2499V16.052C21.8016 15.8654 21.7573 15.6815 21.6728 15.515C21.5884 15.3486 21.4661 15.2043 21.3157 15.0937C21.4847 14.9695 21.618 14.8028 21.702 14.6107C21.786 14.4185 21.8179 14.2075 21.7943 13.9991C21.7707 13.7906 21.6926 13.5921 21.5677 13.4236C21.4429 13.255 21.2758 13.1223 21.0833 13.039V10.3614L22.0589 9.94887C22.3191 9.83883 22.541 9.65456 22.6971 9.4191C22.8532 9.18364 22.9364 8.90742 22.9364 8.62493C22.9364 8.34245 22.8532 8.06622 22.6971 7.83076C22.541 7.5953 22.3191 7.41104 22.0589 7.301ZM20.8437 14.1354C20.8437 14.1827 20.8297 14.2291 20.8034 14.2685C20.777 14.3079 20.7396 14.3386 20.6958 14.3567C20.6521 14.3748 20.6039 14.3796 20.5574 14.3703C20.5109 14.3611 20.4682 14.3383 20.4347 14.3048C20.4012 14.2713 20.3784 14.2286 20.3692 14.1821C20.3599 14.1356 20.3647 14.0874 20.3828 14.0437C20.4009 13.9999 20.4316 13.9625 20.471 13.9361C20.5104 13.9098 20.5568 13.8958 20.6041 13.8958C20.6677 13.8958 20.7286 13.921 20.7736 13.9659C20.8185 14.0109 20.8437 14.0718 20.8437 14.1354ZM20.8437 16.7708H20.3646V16.052C20.3646 15.9885 20.3898 15.9275 20.4347 15.8826C20.4797 15.8377 20.5406 15.8124 20.6041 15.8124C20.6677 15.8124 20.7286 15.8377 20.7736 15.8826C20.8185 15.9275 20.8437 15.9885 20.8437 16.052V16.7708ZM17.7291 15.9624C17.7319 16.2075 17.6709 16.449 17.552 16.6634C17.4331 16.8777 17.2605 17.0574 17.0511 17.1848C15.3666 18.1688 13.4508 18.6874 11.5 18.6874C9.54912 18.6874 7.63332 18.1688 5.94884 17.1848C5.73946 17.0574 5.56685 16.8777 5.44797 16.6634C5.32909 16.449 5.26804 16.2075 5.27082 15.9624V11.7807L10.5666 14.0213C10.8623 14.1459 11.18 14.21 11.5009 14.21C11.8219 14.21 12.1396 14.1459 12.4353 14.0213L17.7291 11.7807V15.9624ZM21.6856 9.06625L12.0601 13.1392C11.8828 13.2136 11.6923 13.252 11.5 13.252C11.3076 13.252 11.1172 13.2136 10.9398 13.1392L1.31434 9.06625C1.22761 9.02956 1.15362 8.96814 1.1016 8.88966C1.04958 8.81117 1.02184 8.71909 1.02184 8.62493C1.02184 8.53077 1.04958 8.4387 1.1016 8.36021C1.15362 8.28172 1.22761 8.2203 1.31434 8.18362L10.9398 4.1107C11.1172 4.03606 11.3076 3.99761 11.5 3.99761C11.6924 3.99761 11.8828 4.03606 12.0601 4.1107L21.6856 8.18362C21.7724 8.2203 21.8463 8.28172 21.8984 8.36021C21.9504 8.4387 21.9781 8.53077 21.9781 8.62493C21.9781 8.71909 21.9504 8.81117 21.8984 8.88966C21.8463 8.96814 21.7724 9.02956 21.6856 9.06625Z" fill="white"/>
</svg>
