<svg width="25" height="19" viewBox="0 0 25 19" fill="none" xmlns="http://www.w3.org/2000/svg">
<path d="M23.9286 7.64286H1.07143C0.0857141 7.64286 0 8.44107 0 9.42857C0 10.4161 0.0857141 11.2143 1.07143 11.2143H23.9286C24.9143 11.2143 25 10.4161 25 9.42857C25 8.44107 24.9143 7.64286 23.9286 7.64286V7.64286ZM23.9286 14.7857H1.07143C0.0857141 14.7857 0 15.5839 0 16.5714C0 17.5589 0.0857141 18.3571 1.07143 18.3571H23.9286C24.9143 18.3571 25 17.5589 25 16.5714C25 15.5839 24.9143 14.7857 23.9286 14.7857V14.7857ZM1.07143 4.07143H23.9286C24.9143 4.07143 25 3.27321 25 2.28571C25 1.29821 24.9143 0.5 23.9286 0.5H1.07143C0.0857141 0.5 0 1.29821 0 2.28571C0 3.27321 0.0857141 4.07143 1.07143 4.07143Z" fill="#5B2121"/>
</svg>
