<svg width="9" height="9" viewBox="0 0 9 9" fill="none" xmlns="http://www.w3.org/2000/svg">
<path fill-rule="evenodd" clip-rule="evenodd" d="M6.09695 6.14231C6.3768 5.85167 6.75152 5.67092 7.15319 5.63283C7.55486 5.59473 7.95689 5.70182 8.28639 5.93467C8.61589 6.16752 8.85106 6.51072 8.94926 6.90206C9.04745 7.2934 9.00219 7.70697 8.82166 8.0678C8.64113 8.42863 8.33729 8.71284 7.96522 8.8689C7.59315 9.02496 7.17748 9.04254 6.79356 8.91846C6.40964 8.79438 6.08289 8.53684 5.87254 8.19254C5.66218 7.84825 5.58215 7.43997 5.64695 7.04174L2.90593 5.66757C2.6729 5.91078 2.37243 6.07868 2.04317 6.14968C1.71392 6.22068 1.37095 6.19152 1.0584 6.06596C0.74586 5.94039 0.478043 5.72417 0.28942 5.44511C0.100798 5.16606 0 4.83694 0 4.50012C0 4.1633 0.100798 3.83418 0.28942 3.55512C0.478043 3.27607 0.74586 3.05985 1.0584 2.93428C1.37095 2.80872 1.71392 2.77956 2.04317 2.85056C2.37243 2.92156 2.6729 3.08946 2.90593 3.33267L5.64695 1.9585C5.58215 1.56027 5.66218 1.15199 5.87254 0.807696C6.08289 0.463398 6.40964 0.205864 6.79356 0.0817816C7.17748 -0.0423008 7.59315 -0.0247188 7.96522 0.13134C8.33729 0.287399 8.64113 0.571605 8.82166 0.932437C9.00219 1.29327 9.04745 1.70684 8.94926 2.09818C8.85106 2.48952 8.61589 2.83272 8.28639 3.06557C7.95689 3.29842 7.55486 3.40551 7.15319 3.36741C6.75152 3.32932 6.3768 3.14857 6.09695 2.85792L3.35367 4.22928C3.38257 4.4085 3.38257 4.59118 3.35367 4.7704L6.09695 6.14175V6.14231ZM7.31249 2.24987C7.46167 2.24987 7.60475 2.19061 7.71023 2.08512C7.81572 1.97963 7.87498 1.83656 7.87498 1.68738C7.87498 1.5382 7.81572 1.39513 7.71023 1.28964C7.60475 1.18415 7.46167 1.12489 7.31249 1.12489C7.16331 1.12489 7.02024 1.18415 6.91475 1.28964C6.80926 1.39513 6.75 1.5382 6.75 1.68738C6.75 1.83656 6.80926 1.97963 6.91475 2.08512C7.02024 2.19061 7.16331 2.24987 7.31249 2.24987ZM7.31249 7.87479C7.46167 7.87479 7.60475 7.81553 7.71023 7.71004C7.81572 7.60455 7.87498 7.46148 7.87498 7.3123C7.87498 7.16312 7.81572 7.02004 7.71023 6.91456C7.60475 6.80907 7.46167 6.74981 7.31249 6.74981C7.16331 6.74981 7.02024 6.80907 6.91475 6.91456C6.80926 7.02004 6.75 7.16312 6.75 7.3123C6.75 7.46148 6.80926 7.60455 6.91475 7.71004C7.02024 7.81553 7.16331 7.87479 7.31249 7.87479ZM1.68757 5.06233C1.83675 5.06233 1.97983 5.00307 2.08531 4.89758C2.1908 4.79209 2.25006 4.64902 2.25006 4.49984C2.25006 4.35066 2.1908 4.20758 2.08531 4.1021C1.97983 3.99661 1.83675 3.93735 1.68757 3.93735C1.53839 3.93735 1.39532 3.99661 1.28983 4.1021C1.18434 4.20758 1.12508 4.35066 1.12508 4.49984C1.12508 4.64902 1.18434 4.79209 1.28983 4.89758C1.39532 5.00307 1.53839 5.06233 1.68757 5.06233Z" fill="black"/>
</svg>
