<svg width="25" height="26" viewBox="0 0 25 26" fill="none" xmlns="http://www.w3.org/2000/svg">
<path d="M12.5 14.2427C14.2259 14.2427 15.625 12.8436 15.625 11.1177C15.625 9.39179 14.2259 7.99268 12.5 7.99268C10.7741 7.99268 9.375 9.39179 9.375 11.1177C9.375 12.8436 10.7741 14.2427 12.5 14.2427Z" stroke="white" stroke-width="2" stroke-linecap="round" stroke-linejoin="round"/>
<path d="M20.3125 11.1177C20.3125 18.1489 12.5 23.6177 12.5 23.6177C12.5 23.6177 4.6875 18.1489 4.6875 11.1177C4.6875 9.04567 5.5106 7.05853 6.97573 5.5934C8.44086 4.12828 10.428 3.30518 12.5 3.30518C14.572 3.30518 16.5591 4.12828 18.0243 5.5934C19.4894 7.05853 20.3125 9.04567 20.3125 11.1177V11.1177Z" stroke="white" stroke-width="2" stroke-linecap="round" stroke-linejoin="round"/>
</svg>
