<svg width="25" height="26" viewBox="0 0 25 26" fill="none" xmlns="http://www.w3.org/2000/svg">
<path d="M15.5684 4.56201C16.8928 4.9182 18.1003 5.61613 19.0701 6.58591C20.0399 7.55568 20.7378 8.76325 21.094 10.0877" stroke="white" stroke-width="2" stroke-linecap="round" stroke-linejoin="round"/>
<path d="M14.7598 7.58105C15.5544 7.79477 16.279 8.21353 16.8608 8.79539C17.4427 9.37726 17.8614 10.1018 18.0752 10.8964" stroke="white" stroke-width="2" stroke-linecap="round" stroke-linejoin="round"/>
<path d="M9.03089 12.8449C9.84127 14.5017 11.1842 15.8386 12.8447 16.6414C12.9662 16.699 13.1006 16.7239 13.2346 16.7138C13.3687 16.7036 13.4978 16.6587 13.6092 16.5836L16.0541 14.9533C16.1622 14.8811 16.2866 14.8372 16.4161 14.8253C16.5455 14.8134 16.6758 14.834 16.7953 14.8852L21.3692 16.8454C21.5246 16.9114 21.6543 17.0261 21.7388 17.1723C21.8233 17.3184 21.8581 17.488 21.8378 17.6556C21.6932 18.7869 21.1413 19.8267 20.2853 20.5803C19.4293 21.3339 18.328 21.7496 17.1875 21.7497C13.6651 21.7497 10.287 20.3504 7.79624 17.8597C5.30552 15.369 3.90625 11.9908 3.90625 8.46843C3.90631 7.32798 4.32206 6.22665 5.07567 5.37066C5.82927 4.51466 6.86904 3.96271 8.00029 3.81814C8.16788 3.79786 8.33753 3.83259 8.48366 3.91711C8.6298 4.00162 8.74451 4.13134 8.81052 4.28672L10.7725 8.86463C10.8232 8.98305 10.8439 9.11217 10.8327 9.24051C10.8214 9.36884 10.7786 9.49241 10.7081 9.60021L9.08345 12.0826C9.0095 12.1943 8.96579 12.3232 8.95658 12.4568C8.94736 12.5904 8.97297 12.7242 9.03089 12.8449V12.8449Z" stroke="white" stroke-width="2" stroke-linecap="round" stroke-linejoin="round"/>
</svg>
