<svg width="30" height="30" viewBox="0 0 30 30" fill="none" xmlns="http://www.w3.org/2000/svg">
<path d="M17.4754 14.346L14.0596 12.7522C13.7615 12.6138 13.5167 12.7689 13.5167 13.0989V16.1011C13.5167 16.4311 13.7615 16.5862 14.0596 16.4478L17.4739 14.854C17.7735 14.7141 17.7735 14.4859 17.4754 14.346ZM15.0375 0C6.97404 0 0.4375 6.53654 0.4375 14.6C0.4375 22.6635 6.97404 29.2 15.0375 29.2C23.101 29.2 29.6375 22.6635 29.6375 14.6C29.6375 6.53654 23.101 0 15.0375 0ZM15.0375 20.5312C7.56413 20.5312 7.43333 19.8575 7.43333 14.6C7.43333 9.34248 7.56413 8.66875 15.0375 8.66875C22.5109 8.66875 22.6417 9.34248 22.6417 14.6C22.6417 19.8575 22.5109 20.5312 15.0375 20.5312Z" fill="#FDF6D6"/>
</svg>
