<svg width="14" height="11" viewBox="0 0 14 11" fill="none" xmlns="http://www.w3.org/2000/svg">
<path d="M12.7781 4.72135C13.074 5.10834 13.074 5.63077 12.7781 6.01714C11.8462 7.23366 9.61041 9.73848 7.0001 9.73848C4.38979 9.73848 2.15398 7.23366 1.22208 6.01714C1.07814 5.83184 1 5.60388 1 5.36924C1 5.1346 1.07814 4.90664 1.22208 4.72135C2.15398 3.50482 4.38979 1 7.0001 1C9.61041 1 11.8462 3.50482 12.7781 4.72135V4.72135Z" stroke="black" stroke-linecap="round" stroke-linejoin="round"/>
<path d="M6.99949 7.24189C8.03366 7.24189 8.87202 6.40353 8.87202 5.36936C8.87202 4.33519 8.03366 3.49683 6.99949 3.49683C5.96531 3.49683 5.12695 4.33519 5.12695 5.36936C5.12695 6.40353 5.96531 7.24189 6.99949 7.24189Z" stroke="black" stroke-linecap="round" stroke-linejoin="round"/>
</svg>
