<svg width="30" height="30" viewBox="0 0 30 30" fill="none" xmlns="http://www.w3.org/2000/svg">
<path d="M14.8917 0C6.8282 0 0.291656 6.53654 0.291656 14.6C0.291656 22.6635 6.8282 29.2 14.8917 29.2C22.9551 29.2 29.4917 22.6635 29.4917 14.6C29.4917 6.53654 22.9551 0 14.8917 0ZM20.8305 11.9598C20.8366 12.0845 20.8381 12.2093 20.8381 12.3309C20.8381 16.133 17.947 20.5145 12.6576 20.5145C11.0946 20.5171 9.56413 20.0682 8.25018 19.2218C8.47374 19.2492 8.70339 19.2598 8.93607 19.2598C10.2835 19.2598 11.523 18.8021 12.507 18.0295C11.9074 18.0177 11.3263 17.8191 10.8449 17.4615C10.3635 17.1038 10.0056 16.6048 9.8212 16.0341C10.2518 16.116 10.6954 16.0989 11.1185 15.984C10.4676 15.8523 9.88233 15.4997 9.46184 14.9858C9.04134 14.4719 8.81153 13.8283 8.81136 13.1643V13.1294C9.19918 13.3438 9.64326 13.4746 10.1147 13.4898C9.50456 13.0836 9.07262 12.4597 8.90724 11.7456C8.74187 11.0315 8.85555 10.2812 9.22503 9.64817C9.94736 10.5363 10.8482 11.2629 11.8691 11.7808C12.8901 12.2988 14.0084 12.5965 15.1517 12.6549C15.0064 12.0379 15.0689 11.3901 15.3297 10.8124C15.5904 10.2346 16.0347 9.75917 16.5936 9.45998C17.1524 9.1608 17.7944 9.05462 18.4198 9.15796C19.0452 9.2613 19.619 9.56836 20.0518 10.0314C20.6954 9.90409 21.3126 9.66802 21.8768 9.33335C21.6623 9.99968 21.2133 10.5655 20.613 10.9257C21.1831 10.857 21.7398 10.7037 22.2647 10.4709C21.8791 11.0487 21.3934 11.5529 20.8305 11.9598V11.9598Z" fill="#FDF6D6"/>
</svg>
