<svg width="18" height="20" viewBox="0 0 18 20" fill="none" xmlns="http://www.w3.org/2000/svg">
<mask id="path-1-outside-1_570_1275" maskUnits="userSpaceOnUse" x="0.125" y="0" width="17" height="20" fill="black">
<rect fill="white" x="0.125" width="17" height="20"/>
<path fill-rule="evenodd" clip-rule="evenodd" d="M9.00054 1C8.7022 1 8.41609 1.11851 8.20513 1.32947C7.99418 1.54042 7.87567 1.82654 7.87567 2.12487L7.87567 15.1577L3.04771 10.3275C2.94312 10.2229 2.81896 10.1399 2.68231 10.0833C2.54566 10.0267 2.3992 9.99757 2.25129 9.99757C2.10339 9.99757 1.95693 10.0267 1.82028 10.0833C1.68363 10.1399 1.55947 10.2229 1.45488 10.3275C1.3503 10.432 1.26733 10.5562 1.21073 10.6929C1.15413 10.8295 1.125 10.976 1.125 11.1239C1.125 11.2718 1.15413 11.4182 1.21073 11.5549C1.26733 11.6915 1.3503 11.8157 1.45488 11.9203L8.20413 18.6695C8.30862 18.7743 8.43275 18.8574 8.56941 18.9141C8.70608 18.9708 8.85258 19 9.00054 19C9.1485 19 9.29501 18.9708 9.43167 18.9141C9.56833 18.8574 9.69246 18.7743 9.79695 18.6695L16.5462 11.9203C16.7574 11.7091 16.8761 11.4226 16.8761 11.1239C16.8761 10.8252 16.7574 10.5387 16.5462 10.3275C16.335 10.1162 16.0485 9.99757 15.7498 9.99757C15.4511 9.99757 15.1646 10.1162 14.9534 10.3275L10.1254 15.1577L10.1254 2.12487C10.1254 1.82654 10.0069 1.54042 9.79595 1.32947C9.58499 1.11851 9.29887 1 9.00054 1Z"/>
</mask>
<path fill-rule="evenodd" clip-rule="evenodd" d="M9.00054 1C8.7022 1 8.41609 1.11851 8.20513 1.32947C7.99418 1.54042 7.87567 1.82654 7.87567 2.12487L7.87567 15.1577L3.04771 10.3275C2.94312 10.2229 2.81896 10.1399 2.68231 10.0833C2.54566 10.0267 2.3992 9.99757 2.25129 9.99757C2.10339 9.99757 1.95693 10.0267 1.82028 10.0833C1.68363 10.1399 1.55947 10.2229 1.45488 10.3275C1.3503 10.432 1.26733 10.5562 1.21073 10.6929C1.15413 10.8295 1.125 10.976 1.125 11.1239C1.125 11.2718 1.15413 11.4182 1.21073 11.5549C1.26733 11.6915 1.3503 11.8157 1.45488 11.9203L8.20413 18.6695C8.30862 18.7743 8.43275 18.8574 8.56941 18.9141C8.70608 18.9708 8.85258 19 9.00054 19C9.1485 19 9.29501 18.9708 9.43167 18.9141C9.56833 18.8574 9.69246 18.7743 9.79695 18.6695L16.5462 11.9203C16.7574 11.7091 16.8761 11.4226 16.8761 11.1239C16.8761 10.8252 16.7574 10.5387 16.5462 10.3275C16.335 10.1162 16.0485 9.99757 15.7498 9.99757C15.4511 9.99757 15.1646 10.1162 14.9534 10.3275L10.1254 15.1577L10.1254 2.12487C10.1254 1.82654 10.0069 1.54042 9.79595 1.32947C9.58499 1.11851 9.29887 1 9.00054 1Z" fill="#5B2222"/>
<path d="M7.87567 2.12487H7.67567H7.87567ZM7.87567 15.1577L7.73421 15.2991L8.07567 15.6407V15.1577H7.87567ZM3.04771 10.3275L3.18916 10.1861L3.18913 10.186L3.04771 10.3275ZM1.125 11.1239H1.325H1.125ZM1.45488 11.9203L1.31346 12.0617L1.45488 11.9203ZM8.20413 18.6695L8.34573 18.5283L8.34555 18.5281L8.20413 18.6695ZM9.00054 19L9.00054 18.8L9.00054 19ZM9.79695 18.6695L9.65553 18.5281L9.65535 18.5283L9.79695 18.6695ZM16.5462 11.9203L16.4048 11.7789L16.5462 11.9203ZM14.9534 10.3275L14.812 10.186L14.8119 10.1861L14.9534 10.3275ZM10.1254 15.1577H9.92542L9.92542 15.6407L10.2669 15.2991L10.1254 15.1577ZM10.1254 2.12487H9.92541H10.1254ZM9.00054 0.8C8.64916 0.8 8.31217 0.939583 8.06371 1.18805L8.34655 1.47089C8.52 1.29744 8.75525 1.2 9.00054 1.2V0.8ZM8.06371 1.18805C7.81525 1.43651 7.67567 1.7735 7.67567 2.12487L8.07567 2.12487C8.07567 1.87958 8.17311 1.64434 8.34655 1.47089L8.06371 1.18805ZM7.67567 2.12487L7.67567 15.1577H8.07567L8.07567 2.12487L7.67567 2.12487ZM8.01712 15.0163L3.18916 10.1861L2.90625 10.4688L7.73421 15.2991L8.01712 15.0163ZM3.18913 10.186C3.06597 10.0629 2.91976 9.96518 2.75885 9.89853L2.60577 10.2681C2.71816 10.3146 2.82027 10.3829 2.90628 10.4689L3.18913 10.186ZM2.75885 9.89853C2.59793 9.83188 2.42546 9.79757 2.25129 9.79757L2.25129 10.1976C2.37294 10.1976 2.49339 10.2215 2.60577 10.2681L2.75885 9.89853ZM2.25129 9.79757C2.07712 9.79757 1.90466 9.83188 1.74374 9.89853L1.89682 10.2681C2.0092 10.2215 2.12965 10.1976 2.25129 10.1976L2.25129 9.79757ZM1.74374 9.89853C1.58283 9.96518 1.43662 10.0629 1.31346 10.186L1.5963 10.4689C1.68232 10.3829 1.78443 10.3146 1.89682 10.2681L1.74374 9.89853ZM1.31346 10.186C1.1903 10.3092 1.09261 10.4554 1.02596 10.6163L1.39551 10.7694C1.44206 10.657 1.51029 10.5549 1.5963 10.4689L1.31346 10.186ZM1.02596 10.6163C0.959304 10.7772 0.925 10.9497 0.925 11.1239H1.325C1.325 11.0022 1.34896 10.8818 1.39551 10.7694L1.02596 10.6163ZM0.925 11.1239C0.925 11.298 0.959304 11.4705 1.02596 11.6314L1.39551 11.4783C1.34896 11.366 1.325 11.2455 1.325 11.1239H0.925ZM1.02596 11.6314C1.09261 11.7923 1.1903 11.9385 1.31346 12.0617L1.5963 11.7789C1.51029 11.6928 1.44206 11.5907 1.39551 11.4783L1.02596 11.6314ZM1.31346 12.0617L8.06271 18.8109L8.34555 18.5281L1.5963 11.7789L1.31346 12.0617ZM8.06253 18.8108C8.1856 18.9342 8.3318 19.032 8.49276 19.0988L8.64607 18.7294C8.5337 18.6827 8.43164 18.6144 8.34573 18.5283L8.06253 18.8108ZM8.49276 19.0988C8.65372 19.1656 8.82628 19.2 9.00054 19.2L9.00054 18.8C8.87889 18.8 8.75843 18.776 8.64607 18.7294L8.49276 19.0988ZM9.00054 19.2C9.17481 19.2 9.34736 19.1656 9.50832 19.0988L9.35502 18.7294C9.24265 18.776 9.1222 18.8 9.00054 18.8L9.00054 19.2ZM9.50832 19.0988C9.66928 19.032 9.81548 18.9341 9.93855 18.8108L9.65535 18.5283C9.56944 18.6144 9.46738 18.6827 9.35502 18.7294L9.50832 19.0988ZM9.93837 18.8109L16.6876 12.0617L16.4048 11.7789L9.65553 18.5281L9.93837 18.8109ZM16.6876 12.0617C16.9363 11.813 17.0761 11.4756 17.0761 11.1239H16.6761C16.6761 11.3695 16.5785 11.6051 16.4048 11.7789L16.6876 12.0617ZM17.0761 11.1239C17.0761 10.7721 16.9363 10.4348 16.6876 10.186L16.4048 10.4689C16.5785 10.6426 16.6761 10.8782 16.6761 11.1239H17.0761ZM16.6876 10.186C16.4389 9.93731 16.1015 9.79757 15.7498 9.79757L15.7498 10.1976C15.9955 10.1976 16.2311 10.2952 16.4048 10.4689L16.6876 10.186ZM15.7498 9.79757C15.398 9.79757 15.0607 9.93731 14.812 10.186L15.0948 10.4689C15.2685 10.2952 15.5041 10.1976 15.7498 10.1976L15.7498 9.79757ZM14.8119 10.1861L9.98396 15.0163L10.2669 15.2991L15.0948 10.4688L14.8119 10.1861ZM10.3254 15.1577L10.3254 2.12487H9.92541L9.92542 15.1577H10.3254ZM10.3254 2.12487C10.3254 1.7735 10.1858 1.43651 9.93737 1.18805L9.65452 1.47089C9.82797 1.64434 9.92541 1.87958 9.92541 2.12487H10.3254ZM9.93737 1.18805C9.6889 0.939583 9.35192 0.8 9.00054 0.8V1.2C9.24583 1.2 9.48108 1.29744 9.65452 1.47089L9.93737 1.18805Z" fill="#5B2222" mask="url(#path-1-outside-1_570_1275)"/>
</svg>
