<svg width="24" height="27" viewBox="0 0 24 27" fill="none" xmlns="http://www.w3.org/2000/svg">
<ellipse cx="12" cy="13.2759" rx="12" ry="13.2759" fill="#FDF6D6"/>
<path d="M11.6393 7.97531C11.3564 8.98403 10.8181 9.88649 10.0835 10.5736L10.0699 10.5863L10.067 10.5879L10.0529 10.6005L9.99649 10.6516L9.94063 10.7025L9.92234 10.7192L9.91723 10.7239L9.91589 10.7251L9.91587 10.7251L9.91555 10.7254L9.91547 10.7255L9.91545 10.7255L9.91544 10.7255L9.81414 10.6149C9.80114 10.6269 9.78748 10.638 9.77323 10.6481L11.6393 7.97531ZM11.6393 7.97531C12.1089 8.53178 12.4243 9.23128 12.5417 9.9896C12.6737 10.8429 12.5473 11.7201 12.1829 12.4844L12.1827 12.4849C12.1209 12.6155 12.096 12.7625 12.11 12.9075C12.1241 13.0525 12.1768 13.1912 12.2633 13.3057C12.3498 13.4204 12.4669 13.5063 12.6012 13.5501C12.7357 13.5939 12.8793 13.5926 13.0131 13.5464L13.0133 13.5464C13.8102 13.2699 14.5169 12.7521 15.0553 12.0565C15.3032 12.5156 15.4677 13.0256 15.5383 13.5576C15.619 14.1664 15.5745 14.7874 15.4082 15.3742C15.2419 15.9609 14.9584 16.4974 14.5796 16.9441C14.2177 17.371 13.778 17.7051 13.2912 17.925C12.8615 17.6722 12.4807 17.3259 12.172 16.9056C11.8482 16.4648 11.6113 15.9528 11.4772 15.4025C11.4361 15.2162 11.4042 15.0275 11.3818 14.8372L11.3817 14.8362C11.3627 14.6838 11.301 14.5398 11.2029 14.425C11.1046 14.31 10.9742 14.2296 10.8287 14.1982L10.8286 14.1982C10.7839 14.1886 10.7384 14.1838 10.6928 14.1839C10.5676 14.1839 10.4456 14.2203 10.3392 14.2882C10.2329 14.356 10.1464 14.4524 10.087 14.5663L10.2197 14.6355L10.0871 14.5661C9.67538 15.3519 9.44548 16.2351 9.4147 17.1377C9.13917 16.8544 8.90371 16.5249 8.71741 16.1602C8.47786 15.6912 8.32454 15.1736 8.26679 14.6375C8.20904 14.1014 8.24808 13.558 8.38151 13.039C8.51494 12.52 8.73997 12.0362 9.04295 11.6156L9.04296 11.6156L9.04435 11.6136C9.27363 11.2841 9.54969 10.9991 9.8612 10.7696" fill="#5B2222" stroke="#5B2222" stroke-width="0.3"/>
</svg>
