<svg width="13" height="13" viewBox="0 0 13 13" fill="none" xmlns="http://www.w3.org/2000/svg">
<path d="M2.4375 12.1865H0.8125C0.363848 12.1865 0 11.8229 0 11.3968V5.73219C0 5.28354 0.363848 4.94254 0.8125 4.94254H2.4375C2.88615 4.94254 3.25 5.30639 3.25 5.73219V11.3742C3.25 11.8229 2.88691 12.1865 2.4375 12.1865ZM11.865 6.90117C12.0631 7.11699 12.1875 7.40391 12.1875 7.72129C12.1875 8.31721 11.7592 8.81105 11.1937 8.91693C11.3064 9.1 11.375 9.31582 11.375 9.56973C11.375 10.1111 11.0195 10.5645 10.5308 10.7232C10.5498 10.788 10.5625 10.8771 10.5625 10.9693C10.5625 11.6424 10.0166 12.1875 9.34375 12.1875H7.85357C6.9748 12.1875 6.1199 11.9026 5.41684 11.3755L4.55 10.7258C4.24277 10.4957 4.0625 10.1334 4.0625 9.77285L4.06523 5.71035C4.06523 5.71035 4.06463 5.71095 4.06523 5.71035C4.06701 5.35514 4.22069 5.00094 4.51997 4.76176L4.93384 4.43092C7.01289 2.74473 6.07852 0.8125 7.68066 0.8125C8.46676 0.8125 8.93674 1.43508 8.93674 2.03404C8.93674 2.41871 8.63814 3.50975 8.06025 4.47205H11.7812C12.4546 4.47205 13 5.01719 13 5.69029C13 6.33496 12.4973 6.85801 11.865 6.90117Z" fill="#919191"/>
</svg>
