<svg width="13" height="12" viewBox="0 0 13 12" fill="none" xmlns="http://www.w3.org/2000/svg">
<path d="M1 0.9H0.9V1V7.28571V7.38571H1H2.47143V9.28693V9.49629L2.63428 9.36471L3.27235 8.84915L3.27267 8.84889L5.09883 7.38571H8.85714H8.95714V7.28571V1V0.9H8.85714H1ZM4.62075 6.5078L3.45714 7.43421V6.5V6.4H3.35714H1.88571V1.88571H7.97143V6.4H4.79343H4.75906L4.73196 6.42113L4.62156 6.50716L4.62156 6.50716L4.62075 6.5078ZM9.64286 2.47143H9.54286V2.57143V3.35714V3.45714H9.64286H11.1143V7.97143H9.64286H9.54286V8.07143V9.00584L8.2688 7.99315L8.24147 7.97143H8.20657H5.26014H5.22506L5.19767 7.99334L4.21553 8.77906L3.99292 8.95714H4.278H7.90111L10.366 10.9363L10.5286 11.0669V10.8584V8.95714H12H12.1V8.85714V2.57143V2.47143H12H9.64286Z" fill="black" stroke="black" stroke-width="0.2"/>
</svg>
