<svg width="25" height="26" viewBox="0 0 25 26" fill="none" xmlns="http://www.w3.org/2000/svg">
<path d="M20.3125 4.61328H4.6875C4.25603 4.61328 3.90625 4.96306 3.90625 5.39453V21.0195C3.90625 21.451 4.25603 21.8008 4.6875 21.8008H20.3125C20.744 21.8008 21.0938 21.451 21.0938 21.0195V5.39453C21.0938 4.96306 20.744 4.61328 20.3125 4.61328Z" stroke="#323B4B" stroke-width="2" stroke-linecap="round" stroke-linejoin="round"/>
<path d="M17.1875 3.05078V6.17578" stroke="#323B4B" stroke-width="2" stroke-linecap="round" stroke-linejoin="round"/>
<path d="M7.8125 3.05078V6.17578" stroke="#323B4B" stroke-width="2" stroke-linecap="round" stroke-linejoin="round"/>
<path d="M3.90625 9.30078H21.0938" stroke="#323B4B" stroke-width="2" stroke-linecap="round" stroke-linejoin="round"/>
<path d="M8.98438 13.207H11.7188L10.1563 15.1602C10.4132 15.1602 10.6661 15.2235 10.8927 15.3446C11.1193 15.4657 11.3125 15.6408 11.4553 15.8544C11.5981 16.068 11.686 16.3135 11.7112 16.5691C11.7364 16.8248 11.6982 17.0828 11.6 17.3202C11.5018 17.5575 11.3465 17.767 11.148 17.9301C10.9494 18.0932 10.7137 18.2048 10.4618 18.255C10.2098 18.3052 9.94937 18.2926 9.70348 18.2181C9.45759 18.1437 9.23385 18.0097 9.05207 17.8282" stroke="#323B4B" stroke-width="2" stroke-linecap="round" stroke-linejoin="round"/>
<path d="M14.0625 14.3789L15.625 13.207V18.2852" stroke="#323B4B" stroke-width="2" stroke-linecap="round" stroke-linejoin="round"/>
</svg>
