<svg width="25" height="25" viewBox="0 0 25 25" fill="none" xmlns="http://www.w3.org/2000/svg">
<path d="M20.3125 3.90625H4.6875C4.25603 3.90625 3.90625 4.25603 3.90625 4.6875V20.3125C3.90625 20.744 4.25603 21.0938 4.6875 21.0938H20.3125C20.744 21.0938 21.0938 20.744 21.0938 20.3125V4.6875C21.0938 4.25603 20.744 3.90625 20.3125 3.90625Z" stroke="#45244F" stroke-width="2" stroke-linecap="round" stroke-linejoin="round"/>
<path d="M17.1875 2.34375V5.46875" stroke="#45244F" stroke-width="2" stroke-linecap="round" stroke-linejoin="round"/>
<path d="M7.8125 2.34375V5.46875" stroke="#45244F" stroke-width="2" stroke-linecap="round" stroke-linejoin="round"/>
<path d="M3.90625 8.59375H21.0938" stroke="#45244F" stroke-width="2" stroke-linecap="round" stroke-linejoin="round"/>
<path d="M8.98438 12.4996H11.7188L10.1563 14.4528C10.4132 14.4528 10.6661 14.5161 10.8927 14.6372C11.1193 14.7583 11.3125 14.9334 11.4553 15.147C11.5981 15.3606 11.686 15.6061 11.7112 15.8618C11.7364 16.1174 11.6982 16.3754 11.6 16.6128C11.5018 16.8502 11.3465 17.0596 11.148 17.2227C10.9494 17.3858 10.7137 17.4974 10.4618 17.5476C10.2098 17.5978 9.94937 17.5852 9.70348 17.5107C9.45759 17.4363 9.23385 17.3023 9.05207 17.1208" stroke="#45244F" stroke-width="2" stroke-linecap="round" stroke-linejoin="round"/>
<path d="M14.0625 13.6716L15.625 12.4998V17.5779" stroke="#45244F" stroke-width="2" stroke-linecap="round" stroke-linejoin="round"/>
</svg>
