<svg width="23" height="23" viewBox="0 0 23 23" fill="none" xmlns="http://www.w3.org/2000/svg">
<path d="M11.8963 17.1361L16.4276 20.007C17.0068 20.374 17.726 19.8282 17.5541 19.1521L16.2449 14.002C16.208 13.8586 16.2124 13.7076 16.2575 13.5665C16.3026 13.4255 16.3866 13.3 16.4998 13.2045L20.5632 9.82252C21.0971 9.37813 20.8216 8.49205 20.1356 8.44753L14.8291 8.10313C14.6861 8.09292 14.5491 8.04231 14.4338 7.95721C14.3185 7.8721 14.2298 7.756 14.1779 7.62241L12.1988 2.63851C12.145 2.49672 12.0493 2.37466 11.9245 2.28852C11.7997 2.20238 11.6517 2.15625 11.5 2.15625C11.3484 2.15625 11.2003 2.20238 11.0755 2.28852C10.9507 2.37466 10.855 2.49672 10.8012 2.63851L8.8221 7.62241C8.77025 7.756 8.68151 7.8721 8.56623 7.95721C8.45094 8.04231 8.31385 8.09292 8.17092 8.10313L2.8644 8.44753C2.17844 8.49205 1.90286 9.37813 2.43678 9.82252L6.50017 13.2045C6.61341 13.3 6.69741 13.4255 6.7425 13.5665C6.7876 13.7076 6.79197 13.8586 6.7551 14.002L5.54097 18.7781C5.33472 19.5894 6.19769 20.2444 6.89275 19.804L11.1037 17.1361C11.2221 17.0607 11.3596 17.0207 11.5 17.0207C11.6404 17.0207 11.7779 17.0607 11.8963 17.1361V17.1361Z" stroke="#E5DB00" stroke-width="3" stroke-linecap="round" stroke-linejoin="round"/>
<path d="M14 8L11.5 4L7.5 8.5L4 10L6 12.5V15.5L7.5 18L11.5 17.5L16.5 19L17 15.5L17.5 12.5L19.5 8.5L14 8Z" fill="#E5DB00"/>
</svg>
