<svg width="19" height="13" viewBox="0 0 19 13" fill="none" xmlns="http://www.w3.org/2000/svg">
<path fill-rule="evenodd" clip-rule="evenodd" d="M17.2451 0.925398C17.5173 1.20569 17.7107 1.55276 17.8056 1.93156C18.0591 3.33529 18.1822 4.75942 18.1732 6.18578C18.1783 7.59082 18.0552 8.9934 17.8056 10.3761C17.7107 10.7549 17.5173 11.102 17.2451 11.3823C16.9728 11.6626 16.6314 11.8662 16.2551 11.9725C14.8805 12.3396 9.38198 12.3396 9.38198 12.3396C9.38198 12.3396 3.88345 12.3396 2.50882 11.9725C2.14024 11.8718 1.80391 11.6778 1.53231 11.4094C1.26071 11.1409 1.06303 10.807 0.958362 10.44C0.704828 9.03627 0.58176 7.61214 0.590728 6.18578C0.583724 4.77008 0.706784 3.35673 0.958362 1.96349C1.0533 1.58468 1.24665 1.23761 1.51888 0.957324C1.79111 0.677036 2.13259 0.473459 2.50882 0.367156C3.88345 0 9.38198 0 9.38198 0C9.38198 0 14.8805 0 16.2551 0.335229C16.6314 0.441533 16.9728 0.645109 17.2451 0.925398ZM12.1792 6.1852L7.58374 8.7952V3.5752L12.1792 6.1852Z" fill="white"/>
</svg>
