<svg width="17" height="16" viewBox="0 0 17 16" fill="none" xmlns="http://www.w3.org/2000/svg">
<path d="M11.2463 4.78906C12.518 4.78906 13.7377 5.29362 14.637 6.19173C15.5363 7.08984 16.0415 8.30793 16.0415 9.57805V15.1652H12.8447V9.57805C12.8447 9.15468 12.6763 8.74865 12.3765 8.44928C12.0768 8.14991 11.6702 7.98172 11.2463 7.98172C10.8224 7.98172 10.4158 8.14991 10.116 8.44928C9.81627 8.74865 9.64787 9.15468 9.64787 9.57805V15.1652H6.45105V9.57805C6.45105 8.30793 6.95626 7.08984 7.85554 6.19173C8.75482 5.29362 9.9745 4.78906 11.2463 4.78906Z" fill="white"/>
<path d="M3.25431 5.58716H0.0574951V15.1651H3.25431V5.58716Z" fill="white"/>
<path d="M1.65603 3.19266C2.5388 3.19266 3.25443 2.47796 3.25443 1.59633C3.25443 0.714701 2.5388 0 1.65603 0C0.773249 0 0.0576172 0.714701 0.0576172 1.59633C0.0576172 2.47796 0.773249 3.19266 1.65603 3.19266Z" fill="white"/>
</svg>
