<svg width="19" height="18" viewBox="0 0 19 18" fill="none" xmlns="http://www.w3.org/2000/svg">
<path d="M13.7673 1H5.77526C3.56832 1 1.77924 2.78675 1.77924 4.99083V12.9725C1.77924 15.1765 3.56832 16.9633 5.77526 16.9633H13.7673C15.9742 16.9633 17.7633 15.1765 17.7633 12.9725V4.99083C17.7633 2.78675 15.9742 1 13.7673 1Z" stroke="white" stroke-width="1.59633" stroke-linecap="round" stroke-linejoin="round"/>
<path d="M12.9683 8.47875C13.0669 9.14302 12.9533 9.82143 12.6436 10.4175C12.334 11.0136 11.8439 11.4969 11.2433 11.7989C10.6427 12.1008 9.96206 12.2059 9.2982 12.0992C8.63433 11.9925 8.02105 11.6795 7.54558 11.2046C7.07012 10.7298 6.75668 10.1173 6.64986 9.45428C6.54303 8.79127 6.64826 8.11151 6.95056 7.51167C7.25287 6.91183 7.73687 6.42247 8.33371 6.11318C8.93056 5.80389 9.60986 5.69043 10.275 5.78893C10.9535 5.88941 11.5816 6.20515 12.0666 6.68951C12.5516 7.17387 12.8677 7.80117 12.9683 8.47875Z" stroke="white" stroke-width="1.59633" stroke-linecap="round" stroke-linejoin="round"/>
<path d="M14.1669 4.5918H14.1758" stroke="white" stroke-width="1.59633" stroke-linecap="round" stroke-linejoin="round"/>
</svg>
