<svg width="92" height="24" viewBox="0 0 92 24" fill="none" xmlns="http://www.w3.org/2000/svg">
<path d="M34.4004 5.88054H29.3093C28.9609 5.88054 28.6646 6.13364 28.6103 6.47756L26.5512 19.5324C26.5103 19.79 26.7098 20.0223 26.9711 20.0223H29.4016C29.75 20.0223 30.0463 19.7692 30.1006 19.4245L30.6559 15.9034C30.7095 15.5587 31.0066 15.3056 31.3542 15.3056H32.9659C36.3195 15.3056 38.255 13.6828 38.7604 10.4669C38.9882 9.05995 38.7701 7.95449 38.1113 7.18029C37.3877 6.33016 36.1044 5.88054 34.4004 5.88054ZM34.9877 10.6485C34.7093 12.4754 33.3135 12.4754 31.9639 12.4754H31.1956L31.7346 9.06367C31.7666 8.85747 31.9453 8.70561 32.1537 8.70561H32.5058C33.4252 8.70561 34.2924 8.70561 34.7406 9.22968C35.0078 9.54234 35.0897 10.0069 34.9877 10.6485Z" fill="#253B80"/>
<path d="M49.6185 10.5897H47.1806C46.9729 10.5897 46.7935 10.7416 46.7615 10.9478L46.6535 11.6297L46.4831 11.3825C45.9553 10.6165 44.7783 10.3605 43.6036 10.3605C40.9096 10.3605 38.6086 12.4009 38.1604 15.2632C37.9274 16.691 38.2587 18.0563 39.0686 19.0084C39.8116 19.8838 40.8746 20.2486 42.1394 20.2486C44.3101 20.2486 45.5138 18.8528 45.5138 18.8528L45.4051 19.5302C45.3642 19.7893 45.5637 20.0215 45.8235 20.0215H48.0195C48.3687 20.0215 48.6635 19.7684 48.7185 19.4238L50.0362 11.0796C50.0779 10.8227 49.8791 10.5897 49.6185 10.5897ZM46.2203 15.3347C45.985 16.7275 44.8796 17.6625 43.4696 17.6625C42.7617 17.6625 42.1959 17.4354 41.8327 17.0051C41.4724 16.5778 41.3354 15.9697 41.45 15.2922C41.6696 13.9113 42.7937 12.9458 44.1821 12.9458C44.8744 12.9458 45.4371 13.1758 45.8079 13.6098C46.1793 14.0483 46.3267 14.6602 46.2203 15.3347Z" fill="#253B80"/>
<path d="M62.6027 10.5897H60.1528C59.9191 10.5897 59.6995 10.7059 59.567 10.9002L56.1881 15.8773L54.7558 11.0945C54.6657 10.7952 54.3895 10.5897 54.0769 10.5897H51.6694C51.3769 10.5897 51.1736 10.8756 51.2667 11.151L53.9652 19.0702L51.4282 22.6516C51.2287 22.9337 51.4297 23.3215 51.7744 23.3215H54.2213C54.4536 23.3215 54.6709 23.2084 54.8027 23.0178L62.9511 11.256C63.1462 10.9746 62.9459 10.5897 62.6027 10.5897Z" fill="#253B80"/>
<path d="M70.7139 5.88054H65.6221C65.2744 5.88054 64.9782 6.13364 64.9238 6.47756L62.8648 19.5324C62.8238 19.79 63.0233 20.0223 63.2831 20.0223H65.896C66.1387 20.0223 66.3464 19.8451 66.3844 19.6039L66.9687 15.9034C67.0223 15.5587 67.3194 15.3056 67.667 15.3056H69.2779C72.6323 15.3056 74.567 13.6828 75.0732 10.4669C75.3018 9.05995 75.0822 7.95449 74.4234 7.18029C73.7005 6.33016 72.4179 5.88054 70.7139 5.88054ZM71.3013 10.6485C71.0236 12.4754 69.6278 12.4754 68.2774 12.4754H67.5099L68.0496 9.06367C68.0817 8.85747 68.2588 8.70561 68.468 8.70561H68.8201C69.7387 8.70561 70.6067 8.70561 71.0549 9.22968C71.3221 9.54234 71.4033 10.0069 71.3013 10.6485Z" fill="#179BD7"/>
<path d="M85.9313 10.5897H83.4949C83.2857 10.5897 83.1078 10.7416 83.0765 10.9478L82.9686 11.6297L82.7973 11.3825C82.2695 10.6165 81.0934 10.3605 79.9187 10.3605C77.2246 10.3605 74.9244 12.4009 74.4762 15.2632C74.244 16.691 74.5737 18.0563 75.3837 19.0084C76.1281 19.8838 77.1896 20.2486 78.4544 20.2486C80.6251 20.2486 81.8288 18.8528 81.8288 18.8528L81.7202 19.5302C81.6792 19.7893 81.8787 20.0215 82.14 20.0215H84.3353C84.683 20.0215 84.9792 19.7684 85.0336 19.4238L86.3519 11.0796C86.3921 10.8227 86.1926 10.5897 85.9313 10.5897ZM82.5331 15.3347C82.2993 16.7275 81.1924 17.6625 79.7824 17.6625C79.076 17.6625 78.5087 17.4354 78.1455 17.0051C77.7852 16.5778 77.6497 15.9697 77.7628 15.2922C77.9839 13.9113 79.1065 12.9458 80.4948 12.9458C81.1872 12.9458 81.7499 13.1758 82.1207 13.6098C82.4936 14.0483 82.641 14.6602 82.5331 15.3347Z" fill="#179BD7"/>
<path d="M88.8056 6.2386L86.716 19.5325C86.675 19.79 86.8745 20.0223 87.1343 20.0223H89.2351C89.5842 20.0223 89.8805 19.7692 89.9341 19.4245L91.9947 6.37036C92.0356 6.11279 91.8361 5.87979 91.5763 5.87979H89.2239C89.0162 5.88054 88.8376 6.0324 88.8056 6.2386Z" fill="#179BD7"/>
<path d="M5.40895 22.5593L5.79828 20.0863L4.93103 20.0662H0.789821L3.66775 1.81824C3.67668 1.76315 3.70571 1.71178 3.74815 1.67531C3.79058 1.63883 3.84492 1.61873 3.9015 1.61873H10.8842C13.2023 1.61873 14.802 2.10112 15.6373 3.05323C16.0288 3.49988 16.2782 3.96663 16.3988 4.48028C16.5254 5.01924 16.5276 5.66316 16.404 6.44853L16.3951 6.50585V7.00908L16.7867 7.23091C17.1164 7.40585 17.3785 7.6061 17.5795 7.83538C17.9145 8.21727 18.1311 8.70263 18.2226 9.27807C18.3172 9.86988 18.2859 10.5741 18.1311 11.3714C17.9524 12.2885 17.6636 13.0873 17.2735 13.7409C16.9147 14.3431 16.4576 14.8426 15.9149 15.2297C15.3968 15.5974 14.7812 15.8766 14.0852 16.0553C13.4107 16.2309 12.6417 16.3195 11.7983 16.3195H11.2549C10.8663 16.3195 10.4889 16.4595 10.1926 16.7104C9.89556 16.9664 9.69904 17.3163 9.63874 17.6989L9.5978 17.9215L8.90995 22.2801L8.87869 22.4402C8.8705 22.4908 8.85635 22.5161 8.83551 22.5332C8.8169 22.5488 8.7901 22.5593 8.76405 22.5593H5.40895Z" fill="#253B80"/>
<path d="M17.1574 6.56391C17.1365 6.69716 17.1127 6.83339 17.0859 6.97334C16.1651 11.7012 13.0147 13.3344 8.99109 13.3344H6.94245C6.45039 13.3344 6.03575 13.6917 5.95907 14.1771L4.91018 20.8292L4.61316 22.7148C4.56329 23.0335 4.80894 23.3208 5.13053 23.3208H8.76405C9.19432 23.3208 9.55983 23.0081 9.62757 22.5838L9.66331 22.3992L10.3474 18.0578L10.3913 17.8195C10.4583 17.3937 10.8246 17.0811 11.2549 17.0811H11.7983C15.3187 17.0811 18.0745 15.6518 18.88 11.5158C19.2164 9.788 19.0423 8.34531 18.1519 7.33066C17.8824 7.02471 17.5482 6.77086 17.1574 6.56391Z" fill="#179BD7"/>
<path d="M16.1941 6.17979C16.0534 6.13885 15.9082 6.10163 15.7594 6.06813C15.6097 6.03537 15.4564 6.00634 15.2986 5.98103C14.7462 5.8917 14.141 5.84927 13.4926 5.84927H8.01963C7.88489 5.84927 7.75685 5.87979 7.64221 5.93488C7.38985 6.05622 7.20225 6.29518 7.15684 6.58773L5.99257 13.962L5.95907 14.1771C6.03575 13.6917 6.45039 13.3344 6.94245 13.3344H8.99109C13.0147 13.3344 16.1651 11.7012 17.0859 6.97334C17.1127 6.83339 17.1365 6.69716 17.1574 6.56391C16.9244 6.44034 16.672 6.33463 16.4003 6.24456C16.3333 6.22222 16.2641 6.20064 16.1941 6.17979Z" fill="#222D65"/>
<path d="M7.15684 6.58773C7.20225 6.29518 7.38985 6.05622 7.64221 5.93488C7.75685 5.87979 7.88489 5.84927 8.01963 5.84927H13.4926C14.141 5.84927 14.7462 5.8917 15.2986 5.98103C15.4564 6.00634 15.6097 6.03537 15.7594 6.06813C15.9082 6.10163 16.0534 6.13885 16.1941 6.17979C16.2641 6.20064 16.3326 6.22297 16.4003 6.24456C16.672 6.33463 16.9244 6.44034 17.1574 6.56391C17.4313 4.81676 17.1559 3.62718 16.2112 2.55C15.1698 1.36414 13.2901 0.856445 10.8849 0.856445H3.90224C3.41092 0.856445 2.99181 1.21377 2.91588 1.69987L0.00743588 20.1354C-0.0498844 20.5002 0.231506 20.8292 0.59925 20.8292H4.91018L5.99257 13.962L7.15684 6.58773Z" fill="#253B80"/>
</svg>
