<svg width="19" height="15" viewBox="0 0 19 15" fill="none" xmlns="http://www.w3.org/2000/svg">
<path d="M18.2744 0.604706C17.5091 1.14385 16.6617 1.55621 15.7649 1.8259C15.2836 1.27318 14.6439 0.881423 13.9323 0.703619C13.2208 0.525815 12.4718 0.570541 11.7865 0.831747C11.1013 1.09295 10.5129 1.55804 10.1009 2.16409C9.68896 2.77015 9.47331 3.48795 9.48314 4.22039V5.01856C8.07865 5.05493 6.68695 4.74384 5.43198 4.113C4.17702 3.48215 3.09775 2.55114 2.2903 1.40287C2.2903 1.40287 -0.906514 8.58636 6.28633 11.779C4.64039 12.8948 2.67964 13.4543 0.691895 13.3753C7.88473 17.3662 16.676 13.3753 16.676 4.19645C16.6752 3.97412 16.6538 3.75235 16.612 3.53397C17.4277 2.73061 18.0033 1.71632 18.2744 0.604706Z" fill="white"/>
</svg>
