<svg width="90" height="32" viewBox="0 0 90 32" fill="none" xmlns="http://www.w3.org/2000/svg">
<g clip-path="url(#clip0_570_2274)">
<path d="M37.0303 29.7827V11.4907C37.0303 8.12499 39.7587 5.39661 43.1243 5.39661L48.5251 5.40474C51.881 5.41141 54.598 8.1338 54.598 11.4898V15.3833C54.598 18.749 51.8695 21.4774 48.5039 21.4774H40.8722" stroke="#939598" stroke-width="1.12664" stroke-miterlimit="10" stroke-linecap="round" stroke-linejoin="round"/>
<path d="M56.1074 5.39404H58.4502C59.8315 5.39404 60.951 6.51373 60.951 7.89502V21.5591" stroke="#939598" stroke-width="1.12664" stroke-miterlimit="10" stroke-linecap="round" stroke-linejoin="round"/>
<path d="M60.4477 3.27705L59.3853 2.21451C59.1216 1.95091 59.1216 1.52347 59.3853 1.25987L60.447 0.197999C60.7112 -0.0659997 61.1392 -0.0659997 61.403 0.197999L62.4648 1.25987C62.7285 1.52347 62.7285 1.95091 62.4648 2.21451L61.4024 3.27705C61.1388 3.54065 60.7114 3.54065 60.4477 3.27705Z" fill="#32BCAD"/>
<path d="M65.4453 5.38184H67.7687C68.964 5.38184 70.1102 5.85669 70.9552 6.7017L76.3896 12.136C77.0934 12.84 78.2348 12.84 78.9388 12.136L84.3532 6.72159C85.1984 5.87658 86.3445 5.40173 87.5398 5.40173H89.4288" stroke="#939598" stroke-width="1.12664" stroke-miterlimit="10" stroke-linecap="round" stroke-linejoin="round"/>
<path d="M65.4453 21.4396H67.7687C68.964 21.4396 70.1102 20.9647 70.9552 20.1197L76.3896 14.6853C77.0934 13.9813 78.2348 13.9813 78.9388 14.6853L84.3532 20.0998C85.1984 20.9448 86.3445 21.4197 87.5398 21.4197H89.4288" stroke="#939598" stroke-width="1.12664" stroke-miterlimit="10" stroke-linecap="round" stroke-linejoin="round"/>
<path d="M23.1789 24.9113C22.0129 24.9113 20.9162 24.4573 20.0916 23.6331L15.6338 19.1752C15.3208 18.8614 14.7753 18.8623 14.4624 19.1752L9.98831 23.6494C9.16373 24.4736 8.067 24.9276 6.90096 24.9276H6.02246L11.6685 30.5735C13.4316 32.3367 16.2905 32.3367 18.0538 30.5735L23.7159 24.9113H23.1789Z" fill="#32BCAD"/>
<path d="M6.90071 9.14314C8.06674 9.14314 9.16347 9.59716 9.98805 10.4213L14.4621 14.8962C14.7844 15.2186 15.3105 15.2198 15.6335 14.8959L20.0913 10.4376C20.9159 9.61347 22.0126 9.15945 23.1786 9.15945H23.7156L18.0537 3.49743C16.2902 1.73409 13.4314 1.73409 11.6682 3.49743L6.02246 9.14316L6.90071 9.14314Z" fill="#32BCAD"/>
<path d="M28.3986 13.8428L24.977 10.4212C24.9017 10.4514 24.8201 10.4702 24.734 10.4702H23.1783C22.374 10.4702 21.5867 10.7964 21.0184 11.3652L16.5607 15.823C16.1435 16.2401 15.5954 16.4489 15.0478 16.4489C14.4996 16.4489 13.9519 16.2401 13.5348 15.8234L9.06031 11.3489C8.49198 10.78 7.70466 10.4539 6.90038 10.4539H4.98749C4.9059 10.4539 4.82966 10.4347 4.75768 10.4076L1.3225 13.8428C-0.440833 15.6061 -0.440833 18.4648 1.3225 20.2282L4.75755 23.6632C4.82965 23.6361 4.9059 23.6169 4.98749 23.6169H6.90038C7.70466 23.6169 8.49198 23.2908 9.06031 22.7221L13.5344 18.248C14.3431 17.44 15.7528 17.4397 16.5607 18.2484L21.0184 22.7058C21.5867 23.2745 22.374 23.6007 23.1783 23.6007H24.734C24.8201 23.6007 24.9017 23.6195 24.977 23.6497L28.3986 20.2281C30.1618 18.4648 30.1618 15.6061 28.3986 13.8428" fill="#32BCAD"/>
<path d="M41.6741 28.2276C41.4216 28.2276 41.1277 28.2884 40.837 28.3554V29.4701C41.0384 29.5436 41.2683 29.579 41.4888 29.579C42.0478 29.579 42.3128 29.3905 42.3128 28.8981C42.3128 28.4353 42.0957 28.2276 41.6741 28.2276ZM40.6484 30.2977V28.0933H40.8019L40.8179 28.1893C41.0765 28.1286 41.4343 28.0487 41.6899 28.0487C41.8978 28.0487 42.0957 28.0804 42.2617 28.2147C42.4536 28.3715 42.5142 28.6236 42.5142 28.8981C42.5142 29.1862 42.4182 29.4575 42.1563 29.6075C41.9743 29.7097 41.7283 29.7513 41.5079 29.7513C41.281 29.7513 41.0639 29.716 40.837 29.6491V30.2977H40.6484Z" fill="#939598"/>
<path d="M43.9179 28.221C43.3588 28.221 43.1096 28.3968 43.1096 28.8888C43.1096 29.3647 43.3555 29.5789 43.9179 29.5789C44.4736 29.5789 44.7228 29.4062 44.7228 28.9143C44.7228 28.4384 44.477 28.221 43.9179 28.221ZM44.6366 29.5789C44.4512 29.7128 44.2022 29.7513 43.9179 29.7513C43.6272 29.7513 43.3778 29.7098 43.1958 29.5789C42.9914 29.4352 42.9082 29.1986 42.9082 28.9017C42.9082 28.6076 42.9914 28.3683 43.1958 28.221C43.3778 28.0902 43.6272 28.0486 43.9179 28.0486C44.2052 28.0486 44.4512 28.0902 44.6366 28.221C44.8443 28.3683 44.9241 28.6076 44.9241 28.8981C44.9241 29.1955 44.841 29.4352 44.6366 29.5789Z" fill="#939598"/>
<path d="M47.2831 29.7066L46.6601 28.3683H46.6472L46.034 29.7066H45.8647L45.2002 28.0933H45.4078L45.9605 29.4477H45.9734L46.5738 28.0933H46.7463L47.3629 29.4477H47.3758L47.9157 28.0933H48.1168L47.4524 29.7066H47.2831Z" fill="#939598"/>
<path d="M49.3223 28.2179C48.8048 28.2179 48.6291 28.4478 48.597 28.7803H50.0475C50.0316 28.413 49.8429 28.2179 49.3223 28.2179ZM49.316 29.7513C49.0059 29.7513 48.8048 29.7067 48.6451 29.5723C48.4565 29.4094 48.3926 29.1732 48.3926 28.9017C48.3926 28.6429 48.479 28.3683 48.693 28.2116C48.8718 28.0872 49.0923 28.0487 49.3223 28.0487C49.53 28.0487 49.7696 28.071 49.9675 28.2053C50.2008 28.3617 50.2456 28.6367 50.2456 28.9495H48.5907C48.597 29.2816 48.7057 29.5758 49.3317 29.5758C49.629 29.5758 49.9069 29.5277 50.1656 29.483V29.6522C49.8972 29.7004 49.6001 29.7513 49.316 29.7513Z" fill="#939598"/>
<path d="M50.7861 29.7067V28.0933H50.9394L50.9556 28.1893C51.2973 28.1032 51.457 28.0487 51.7574 28.0487H51.7798V28.2276H51.7349C51.4827 28.2276 51.3294 28.2626 50.9748 28.3554V29.7067H50.7861Z" fill="#939598"/>
<path d="M52.874 28.2179C52.3566 28.2179 52.1808 28.4478 52.1488 28.7803H53.5992C53.5834 28.413 53.3947 28.2179 52.874 28.2179ZM52.8677 29.7513C52.5577 29.7513 52.3566 29.7067 52.1969 29.5723C52.0082 29.4094 51.9443 29.1732 51.9443 28.9017C51.9443 28.6429 52.0307 28.3683 52.2448 28.2116C52.4236 28.0872 52.6441 28.0487 52.874 28.0487C53.0818 28.0487 53.3213 28.071 53.5192 28.2053C53.7525 28.3617 53.7974 28.6367 53.7974 28.9495H52.1425C52.1488 29.2816 52.2575 29.5758 52.8835 29.5758C53.1806 29.5758 53.4585 29.5277 53.7174 29.483V29.6522C53.449 29.7004 53.1519 29.7513 52.8677 29.7513Z" fill="#939598"/>
<path d="M55.8628 28.3299C55.6615 28.2564 55.4316 28.2211 55.2111 28.2211C54.6521 28.2211 54.3868 28.4099 54.3868 28.9017C54.3868 29.3679 54.604 29.5723 55.0256 29.5723C55.2781 29.5723 55.572 29.5116 55.8628 29.4478V28.3299ZM55.898 29.7067L55.882 29.6107C55.6232 29.6714 55.2653 29.7514 55.0097 29.7514C54.8024 29.7514 54.604 29.7227 54.4379 29.5853C54.2463 29.4287 54.1855 29.1763 54.1855 28.9017C54.1855 28.6142 54.2814 28.3425 54.5433 28.1956C54.7254 28.0902 54.9714 28.0487 55.1951 28.0487C55.4187 28.0487 55.636 28.0872 55.8628 28.151V27.4131H56.0513V29.7067H55.898Z" fill="#939598"/>
<path d="M58.8148 28.2278C58.5622 28.2278 58.2683 28.2885 57.9776 28.3556V29.4671C58.1822 29.5438 58.4089 29.5792 58.6294 29.5792C59.1884 29.5792 59.4534 29.3906 59.4534 28.8983C59.4534 28.4354 59.2363 28.2278 58.8148 28.2278ZM59.2971 29.6076C59.1149 29.7099 58.869 29.7514 58.6485 29.7514C58.4089 29.7514 58.1694 29.7099 57.9266 29.63L57.917 29.7068H57.7891V27.4131H57.9776V28.1828C58.2364 28.1256 58.5845 28.0488 58.8305 28.0488C59.0384 28.0488 59.2363 28.0805 59.4023 28.2148C59.5942 28.3716 59.6548 28.6237 59.6548 28.8983C59.6548 29.1863 59.5588 29.4576 59.2971 29.6076Z" fill="#939598"/>
<path d="M59.9044 30.3262V30.1508C59.997 30.1601 60.0835 30.1668 60.1441 30.1668C60.3774 30.1668 60.5177 30.0995 60.6487 29.8343L60.7095 29.7066L59.8662 28.0933H60.0835L60.8055 29.486H60.8182L61.505 28.0933H61.719L60.8118 29.9048C60.6457 30.2338 60.4667 30.3423 60.1377 30.3423C60.0641 30.3423 59.9844 30.336 59.9044 30.3262" fill="#939598"/>
<path d="M64.317 28.7866H63.691V29.3523H64.3201C64.7514 29.3523 64.9145 29.3041 64.9145 29.0678C64.9145 28.8152 64.6909 28.7866 64.317 28.7866ZM64.2022 27.8698H63.691V28.4446H64.2052C64.6302 28.4446 64.7994 28.3938 64.7994 28.1541C64.7994 27.8987 64.5854 27.8698 64.2022 27.8698ZM65.1733 29.5535C64.943 29.7004 64.6651 29.7067 64.1573 29.7067H63.2021V27.5184H64.135C64.5726 27.5184 64.8409 27.5247 65.0646 27.659C65.2244 27.7549 65.2881 27.9018 65.2881 28.0934C65.2881 28.3232 65.1925 28.4768 64.943 28.5791V28.5917C65.2244 28.6559 65.4064 28.7996 65.4064 29.1094C65.4064 29.3201 65.3298 29.4575 65.1733 29.5535" fill="#939598"/>
<path d="M67.3175 29.0294C67.1288 29.0132 66.9373 29.0039 66.7361 29.0039C66.4071 29.0039 66.2918 29.0709 66.2918 29.2209C66.2918 29.3615 66.3878 29.4383 66.6401 29.4383C66.8509 29.4383 67.1033 29.3905 67.3175 29.3423V29.0294ZM67.4132 29.7066L67.4004 29.6107C67.1256 29.678 66.8063 29.7513 66.5251 29.7513C66.3524 29.7513 66.1673 29.7289 66.0362 29.633C65.9151 29.5469 65.8574 29.4063 65.8574 29.2433C65.8574 29.0611 65.9374 28.8919 66.1289 28.8057C66.2982 28.7259 66.5251 28.7196 66.7329 28.7196C66.9021 28.7196 67.1288 28.729 67.3175 28.7419V28.713C67.3175 28.4607 67.1512 28.3776 66.6976 28.3776C66.5219 28.3776 66.3078 28.387 66.1034 28.4062V28.0804C66.3301 28.0616 66.5859 28.0486 66.7967 28.0486C67.0777 28.0486 67.3686 28.071 67.5474 28.1987C67.7325 28.3298 67.7679 28.512 67.7679 28.7512V29.7066L67.4132 29.7066Z" fill="#939598"/>
<path d="M69.8746 29.7067V28.8152C69.8746 28.5216 69.7247 28.4161 69.4561 28.4161C69.2582 28.4161 69.0091 28.4671 68.7981 28.5184V29.7067H68.3477V28.0933H68.715L68.731 28.1956C69.0152 28.1223 69.3317 28.0487 69.5937 28.0487C69.7916 28.0487 69.9929 28.0773 70.1462 28.2148C70.2739 28.3299 70.322 28.4894 70.322 28.7196V29.7067H69.8746Z" fill="#939598"/>
<path d="M71.5945 29.7513C71.3869 29.7513 71.1599 29.7227 70.9939 29.5821C70.7958 29.4223 70.7383 29.17 70.7383 28.8981C70.7383 28.6428 70.8213 28.3648 71.0673 28.2084C71.2687 28.0773 71.5177 28.0487 71.7765 28.0487C71.9619 28.0487 72.144 28.0615 72.3451 28.0804V28.4254C72.1821 28.4098 71.9872 28.3968 71.8309 28.3968C71.4026 28.3968 71.2015 28.5312 71.2015 28.9017C71.2015 29.25 71.3516 29.3999 71.7029 29.3999C71.9074 29.3999 72.1472 29.3616 72.3804 29.3169V29.649C72.1279 29.7004 71.8532 29.7513 71.5945 29.7513" fill="#939598"/>
<path d="M73.7108 28.3871C73.2827 28.3871 73.0941 28.5214 73.0941 28.8888C73.0941 29.2563 73.2795 29.4129 73.7108 29.4129C74.1356 29.4129 74.3208 29.2816 74.3208 28.9143C74.3208 28.5469 74.1389 28.3871 73.7108 28.3871ZM74.4838 29.5821C74.2858 29.716 74.027 29.7513 73.7108 29.7513C73.388 29.7513 73.1294 29.713 72.9345 29.5821C72.7109 29.4352 72.6309 29.1924 72.6309 28.9017C72.6309 28.6108 72.7109 28.3648 72.9345 28.2179C73.1294 28.087 73.388 28.0487 73.7108 28.0487C74.0303 28.0487 74.2858 28.087 74.4838 28.2179C74.7075 28.3648 74.7841 28.6108 74.7841 28.8983C74.7841 29.1892 74.7043 29.4352 74.4838 29.5821Z" fill="#939598"/>
<path d="M77.3844 29.7513C77.1131 29.7513 76.8192 29.7067 76.5986 29.5246C76.3367 29.3072 76.2568 28.9719 76.2568 28.6107C76.2568 28.2883 76.359 27.9049 76.7008 27.6814C76.9659 27.509 77.2949 27.4738 77.6272 27.4738C77.8702 27.4738 78.1193 27.4898 78.3909 27.5121V27.9049C78.1576 27.8857 77.8702 27.8697 77.6465 27.8697C77.0234 27.8697 76.7584 28.1063 76.7584 28.6107C76.7584 29.1255 77.0042 29.3554 77.4644 29.3554C77.7646 29.3554 78.1 29.2947 78.4387 29.2241V29.6138C78.1 29.6812 77.7453 29.7513 77.3844 29.7513" fill="#939598"/>
<path d="M79.7626 28.3361C79.3887 28.3361 79.2449 28.4704 79.2162 28.7164H80.3025C80.2895 28.4544 80.1362 28.3361 79.7626 28.3361ZM79.6953 29.7513C79.4302 29.7513 79.1906 29.7195 79.0117 29.5722C78.8201 29.4128 78.7529 29.1731 78.7529 28.8981C78.7529 28.6522 78.8329 28.3776 79.0566 28.2178C79.2545 28.0773 79.507 28.0486 79.7626 28.0486C79.9925 28.0486 80.2641 28.0741 80.462 28.2115C80.721 28.3936 80.7433 28.6749 80.7463 29.007H79.2131C79.2225 29.2531 79.3536 29.4128 79.8072 29.4128C80.0883 29.4128 80.4013 29.3712 80.6666 29.3297V29.6459C80.3567 29.6972 80.018 29.7513 79.6953 29.7513Z" fill="#939598"/>
<path d="M82.7496 29.7067V28.8152C82.7496 28.5216 82.5997 28.4161 82.3311 28.4161C82.1331 28.4161 81.8841 28.4671 81.6731 28.5184V29.7067H81.2227V28.0933H81.59L81.606 28.1956C81.8902 28.1223 82.2067 28.0487 82.4687 28.0487C82.6666 28.0487 82.8679 28.0773 83.0212 28.2148C83.1489 28.3299 83.197 28.4894 83.197 28.7196V29.7067H82.7496Z" fill="#939598"/>
<path d="M84.4797 29.7513C84.2626 29.7513 84.0644 29.6906 83.9559 29.5214C83.876 29.4063 83.8375 29.25 83.8375 29.0326V28.4287H83.5117V28.0934H83.8375L83.8856 27.6045H84.2849V28.0934H84.9205V28.4287H84.2849V28.9464C84.2849 29.071 84.2944 29.1763 84.3295 29.2531C84.3774 29.3617 84.4828 29.4031 84.6234 29.4031C84.7288 29.4031 84.8567 29.3871 84.946 29.3714V29.6938C84.7992 29.7228 84.6297 29.7513 84.4797 29.7513" fill="#939598"/>
<path d="M85.3594 29.7067V28.0933H85.7269L85.7429 28.1956C86.04 28.1125 86.2603 28.0487 86.5415 28.0487C86.5542 28.0487 86.5735 28.0487 86.5988 28.0517V28.4352C86.5477 28.4322 86.4871 28.4322 86.4423 28.4322C86.2219 28.4322 86.0559 28.4576 85.8098 28.5153V29.7067L85.3594 29.7067Z" fill="#939598"/>
<path d="M88.2374 29.0294C88.0489 29.0132 87.8572 29.0039 87.656 29.0039C87.327 29.0039 87.2117 29.0709 87.2117 29.2209C87.2117 29.3615 87.3077 29.4383 87.56 29.4383C87.771 29.4383 88.0232 29.3905 88.2374 29.3423V29.0294ZM88.3332 29.7066L88.3205 29.6107C88.0457 29.678 87.7263 29.7513 87.445 29.7513C87.2725 29.7513 87.0873 29.7289 86.9561 29.633C86.835 29.5469 86.7773 29.4063 86.7773 29.2433C86.7773 29.0611 86.8573 28.8919 87.049 28.8057C87.2183 28.7259 87.445 28.7196 87.6528 28.7196C87.8221 28.7196 88.0489 28.729 88.2374 28.7419V28.713C88.2374 28.4607 88.0712 28.3776 87.6175 28.3776C87.4419 28.3776 87.2278 28.387 87.0233 28.4062V28.0804C87.2501 28.0616 87.5058 28.0486 87.7168 28.0486C87.9977 28.0486 88.2886 28.071 88.4674 28.1987C88.6526 28.3298 88.6878 28.512 88.6878 28.7512V29.7066L88.3332 29.7066Z" fill="#939598"/>
<path d="M89.2666 27.4131H89.717V29.7067H89.2666V27.4131Z" fill="#939598"/>
</g>
<defs>
<clipPath id="clip0_570_2274">
<rect width="90" height="31.8958" fill="white"/>
</clipPath>
</defs>
</svg>
