<svg width="61" height="61" viewBox="0 0 61 61" fill="none" xmlns="http://www.w3.org/2000/svg">
<circle cx="30.5" cy="30.5" r="30.5" fill="#260530"/>
<path d="M22.3789 22.8818L30.2236 15.0371L38.0683 22.8818H34.146V25.4967H26.3013V22.8818H22.3789Z" stroke="white" stroke-width="1.30745" stroke-linecap="round" stroke-linejoin="round"/>
<path d="M34.1494 30.7266H26.3047" stroke="white" stroke-width="1.30745" stroke-linecap="round" stroke-linejoin="round"/>
<path d="M34.1494 28.1113H26.3047" stroke="white" stroke-width="1.30745" stroke-linecap="round" stroke-linejoin="round"/>
<path d="M16.2471 42.1037C17.3603 42.1037 18.1623 41.4469 18.1623 40.4098V37.1603H16.9247V40.2923C16.9247 40.638 16.7519 40.9007 16.2471 40.9007C15.7424 40.9007 15.5696 40.638 15.5696 40.2923V37.1603H14.332V40.4098C14.332 41.4469 15.134 42.1037 16.2471 42.1037Z" fill="white"/>
<path d="M20.7576 37.1603H18.8771V42H20.1147V40.5481H20.7576C21.7256 40.5481 22.4861 39.8498 22.4861 38.8542C22.4861 37.8586 21.7256 37.1603 20.7576 37.1603ZM20.7576 39.3728H20.1147V38.3426H20.7576C21.0342 38.3426 21.2485 38.55 21.2485 38.8542C21.2485 39.1584 21.0342 39.3728 20.7576 39.3728Z" fill="white"/>
<path d="M27.767 39.2276H25.3264V40.2923H26.5017C26.3358 40.6795 25.9832 40.9284 25.3886 40.9284C24.4691 40.9284 24.0059 40.2992 24.0059 39.594C24.0059 38.8197 24.5521 38.2666 25.3126 38.2666C25.8034 38.2666 26.1837 38.4809 26.3704 38.7713L27.4213 38.1698C27.0064 37.5129 26.2252 37.0566 25.2987 37.0566C23.8676 37.0566 22.7752 38.1698 22.7752 39.5871C22.7752 40.9906 23.8399 42.1037 25.3679 42.1037C26.7783 42.1037 27.767 41.1427 27.767 39.7184V39.2276Z" fill="white"/>
<path d="M30.8665 42H32.194L31.1984 40.2093C31.6962 39.9328 32.0212 39.4281 32.0212 38.8335C32.0212 37.8586 31.2606 37.1603 30.2789 37.1603H28.343V42H29.5806V40.4375H30.0231L30.8665 42ZM29.5806 38.3011H30.2651C30.5693 38.3011 30.7836 38.5293 30.7836 38.8473C30.7836 39.1723 30.5693 39.3935 30.2651 39.3866H29.5806V38.3011Z" fill="white"/>
<path d="M35.6433 42H36.9777L35.3806 37.1603H33.8734L32.2763 42H33.6176L33.825 41.3017H35.4359L35.6433 42ZM34.143 40.237L34.627 38.5915L35.1179 40.237H34.143Z" fill="white"/>
<path d="M39.3 37.1603H37.3296V42H39.3C40.6344 42 41.6507 40.9491 41.6507 39.5802C41.6507 38.2112 40.6344 37.1603 39.3 37.1603ZM39.3 40.8039H38.6017V38.3564H39.3C39.9637 38.3564 40.4408 38.8404 40.4408 39.5802C40.4408 40.3199 39.9637 40.8039 39.3 40.8039Z" fill="white"/>
<path d="M43.4622 40.8385V40.1264H45.1284V38.9856H43.4622V38.3149H45.3012V37.1603H42.2246V42H45.3358V40.8385H43.4622Z" fill="white"/>
</svg>
