<svg width="19" height="19" viewBox="0 0 19 19" fill="none" xmlns="http://www.w3.org/2000/svg">
<path d="M9.49998 1.58331C5.13473 1.58331 1.58331 5.13473 1.58331 9.49998C1.58331 13.8652 5.13473 17.4166 9.49998 17.4166C13.8652 17.4166 17.4166 13.8652 17.4166 9.49998C17.4166 5.13473 13.8652 1.58331 9.49998 1.58331ZM9.49998 15.8333C6.00794 15.8333 3.16665 12.992 3.16665 9.49998C3.16665 6.00794 6.00794 3.16665 9.49998 3.16665C12.992 3.16665 15.8333 6.00794 15.8333 9.49998C15.8333 12.992 12.992 15.8333 9.49998 15.8333Z" fill="#56076D"/>
<path d="M10.2916 5.54169H8.70831V10.2917H13.4583V8.70835H10.2916V5.54169Z" fill="#56076D"/>
</svg>
