<svg width="51" height="50" viewBox="0 0 51 50" fill="none" xmlns="http://www.w3.org/2000/svg">
<circle cx="25.3008" cy="25" r="25" fill="white"/>
<g opacity="0.8">
<path d="M34.2156 33.0387V30.9233C34.2156 29.8012 33.7701 28.725 32.977 27.9316C32.184 27.1381 31.1084 26.6924 29.9869 26.6924H21.5295C20.408 26.6924 19.3324 27.1381 18.5393 27.9316C17.7463 28.725 17.3008 29.8012 17.3008 30.9233V33.0387" stroke="#610F29" stroke-width="2" stroke-linecap="round" stroke-linejoin="round"/>
<path d="M25.7579 22.4617C28.0932 22.4617 29.9864 20.5675 29.9864 18.2309C29.9864 15.8942 28.0932 14 25.7579 14C23.4225 14 21.5293 15.8942 21.5293 18.2309C21.5293 20.5675 23.4225 22.4617 25.7579 22.4617Z" stroke="#610F29" stroke-width="2" stroke-linecap="round" stroke-linejoin="round"/>
</g>
</svg>
