<svg width="235" height="235" viewBox="0 0 235 235" fill="none" xmlns="http://www.w3.org/2000/svg">
<circle cx="117.5" cy="117.5" r="117.5" fill="#FFC8C8"/>
<g opacity="0.8">
<path d="M154.209 152.293V143.138C154.209 138.281 152.281 133.623 148.849 130.189C145.416 126.755 140.761 124.826 135.907 124.826H99.3024C94.4483 124.826 89.793 126.755 86.3606 130.189C82.9283 133.623 81 138.281 81 143.138V152.293" fill="#FFC8C8"/>
<path d="M154.209 152.293V143.138C154.209 138.281 152.281 133.623 148.849 130.189C145.416 126.755 140.761 124.826 135.907 124.826H99.3024C94.4483 124.826 89.793 126.755 86.3606 130.189C82.9283 133.623 81 138.281 81 143.138V152.293" stroke="#EB5C5D" stroke-width="6" stroke-linecap="round" stroke-linejoin="round"/>
<path d="M117.604 106.514C127.712 106.514 135.906 98.3156 135.906 88.2024C135.906 78.0891 127.712 69.8906 117.604 69.8906C107.497 69.8906 99.3027 78.0891 99.3027 88.2024C99.3027 98.3156 107.497 106.514 117.604 106.514Z" fill="#FFC8C8" stroke="#EB5C5D" stroke-width="6" stroke-linecap="round" stroke-linejoin="round"/>
</g>
</svg>
